  0
SECTION
  2
HEADER
  9
$ACADVER
  1
AC1015
  9
$ACADMAINTVER
 70
6
  9
$DWGCODEPAGE
  3
ANSI_1252
  9
$INSBASE
 10
0.0
 20
0.0
 30
0.0
  9
$EXTMIN
 10
1e+20
 20
1e+20
 30
1e+20
  9
$EXTMAX
 10
-1e+20
 20
-1e+20
 30
-1e+20
  9
$LIMMIN
 10
0.0
 20
0.0
  9
$LIMMAX
 10
420.0
 20
297.0
  9
$ORTHOMODE
 70
0
  9
$REGENMODE
 70
1
  9
$FILLMODE
 70
1
  9
$QTEXTMODE
 70
0
  9
$MIRRTEXT
 70
1
  9
$LTSCALE
 40
1.0
  9
$ATTMODE
 70
1
  9
$TEXTSIZE
 40
2.5
  9
$TRACEWID
 40
1.0
  9
$TEXTSTYLE
  7
Standard
  9
$CLAYER
  8
0
  9
$CELTYPE
  6
ByLayer
  9
$CECOLOR
 62
256
  9
$CELTSCALE
 40
1.0
  9
$DISPSILH
 70
0
  9
$DIMSCALE
 40
1.0
  9
$DIMASZ
 40
2.5
  9
$DIMEXO
 40
0.625
  9
$DIMDLI
 40
3.75
  9
$DIMRND
 40
0.0
  9
$DIMDLE
 40
0.0
  9
$DIMEXE
 40
1.25
  9
$DIMTP
 40
0.0
  9
$DIMTM
 40
0.0
  9
$DIMTXT
 40
2.5
  9
$DIMCEN
 40
2.5
  9
$DIMTSZ
 40
0.0
  9
$DIMTOL
 70
0
  9
$DIMLIM
 70
0
  9
$DIMTIH
 70
0
  9
$DIMTOH
 70
0
  9
$DIMSE1
 70
0
  9
$DIMSE2
 70
0
  9
$DIMTAD
 70
1
  9
$DIMZIN
 70
8
  9
$DIMBLK
  1

  9
$DIMASO
 70
1
  9
$DIMSHO
 70
1
  9
$DIMPOST
  1

  9
$DIMAPOST
  1

  9
$DIMALT
 70
0
  9
$DIMALTD
 70
3
  9
$DIMALTF
 40
0.03937007874
  9
$DIMLFAC
 40
1.0
  9
$DIMTOFL
 70
1
  9
$DIMTVP
 40
0.0
  9
$DIMTIX
 70
0
  9
$DIMSOXD
 70
0
  9
$DIMSAH
 70
0
  9
$DIMBLK1
  1

  9
$DIMBLK2
  1

  9
$DIMSTYLE
  2
ISO-25
  9
$DIMCLRD
 70
0
  9
$DIMCLRE
 70
0
  9
$DIMCLRT
 70
0
  9
$DIMTFAC
 40
1.0
  9
$DIMGAP
 40
0.625
  9
$DIMJUST
 70
0
  9
$DIMSD1
 70
0
  9
$DIMSD2
 70
0
  9
$DIMTOLJ
 70
0
  9
$DIMTZIN
 70
8
  9
$DIMALTZ
 70
0
  9
$DIMALTTZ
 70
0
  9
$DIMUPT
 70
0
  9
$DIMDEC
 70
2
  9
$DIMTDEC
 70
2
  9
$DIMALTU
 70
2
  9
$DIMALTTD
 70
3
  9
$DIMTXSTY
  7
Standard
  9
$DIMAUNIT
 70
0
  9
$DIMADEC
 70
0
  9
$DIMALTRND
 40
0.0
  9
$DIMAZIN
 70
0
  9
$DIMDSEP
 70
44
  9
$DIMATFIT
 70
3
  9
$DIMFRAC
 70
0
  9
$DIMLDRBLK
  1

  9
$DIMLUNIT
 70
2
  9
$DIMLWD
 70
-2
  9
$DIMLWE
 70
-2
  9
$DIMTMOVE
 70
0
  9
$LUNITS
 70
2
  9
$LUPREC
 70
4
  9
$SKETCHINC
 40
1.0
  9
$FILLETRAD
 40
10.0
  9
$AUNITS
 70
0
  9
$AUPREC
 70
2
  9
$MENU
  1
.
  9
$ELEVATION
 40
0.0
  9
$PELEVATION
 40
0.0
  9
$THICKNESS
 40
0.0
  9
$LIMCHECK
 70
0
  9
$CHAMFERA
 40
0.0
  9
$CHAMFERB
 40
0.0
  9
$CHAMFERC
 40
0.0
  9
$CHAMFERD
 40
0.0
  9
$SKPOLY
 70
0
  9
$TDCREATE
 40
2460451.647280093
  9
$TDUCREATE
 40
2458532.153996898
  9
$TDUPDATE
 40
2460451.647349537
  9
$TDUUPDATE
 40
2458532.1544311
  9
$TDINDWG
 40
0.0
  9
$TDUSRTIMER
 40
0.0
  9
$USRTIMER
 70
1
  9
$ANGBASE
 50
0.0
  9
$ANGDIR
 70
0
  9
$PDMODE
 70
0
  9
$PDSIZE
 40
0.0
  9
$PLINEWID
 40
0.0
  9
$SPLFRAME
 70
0
  9
$SPLINETYPE
 70
6
  9
$SPLINESEGS
 70
8
  9
$HANDSEED
  5
A0
  9
$SURFTAB1
 70
6
  9
$SURFTAB2
 70
6
  9
$SURFTYPE
 70
6
  9
$SURFU
 70
6
  9
$SURFV
 70
6
  9
$UCSBASE
  2

  9
$UCSNAME
  2

  9
$UCSORG
 10
0.0
 20
0.0
 30
0.0
  9
$UCSXDIR
 10
1.0
 20
0.0
 30
0.0
  9
$UCSYDIR
 10
0.0
 20
1.0
 30
0.0
  9
$UCSORTHOREF
  2

  9
$UCSORTHOVIEW
 70
0
  9
$UCSORGTOP
 10
0.0
 20
0.0
 30
0.0
  9
$UCSORGBOTTOM
 10
0.0
 20
0.0
 30
0.0
  9
$UCSORGLEFT
 10
0.0
 20
0.0
 30
0.0
  9
$UCSORGRIGHT
 10
0.0
 20
0.0
 30
0.0
  9
$UCSORGFRONT
 10
0.0
 20
0.0
 30
0.0
  9
$UCSORGBACK
 10
0.0
 20
0.0
 30
0.0
  9
$PUCSBASE
  2

  9
$PUCSNAME
  2

  9
$PUCSORG
 10
0.0
 20
0.0
 30
0.0
  9
$PUCSXDIR
 10
1.0
 20
0.0
 30
0.0
  9
$PUCSYDIR
 10
0.0
 20
1.0
 30
0.0
  9
$PUCSORTHOREF
  2

  9
$PUCSORTHOVIEW
 70
0
  9
$PUCSORGTOP
 10
0.0
 20
0.0
 30
0.0
  9
$PUCSORGBOTTOM
 10
0.0
 20
0.0
 30
0.0
  9
$PUCSORGLEFT
 10
0.0
 20
0.0
 30
0.0
  9
$PUCSORGRIGHT
 10
0.0
 20
0.0
 30
0.0
  9
$PUCSORGFRONT
 10
0.0
 20
0.0
 30
0.0
  9
$PUCSORGBACK
 10
0.0
 20
0.0
 30
0.0
  9
$USERI1
 70
0
  9
$USERI2
 70
0
  9
$USERI3
 70
0
  9
$USERI4
 70
0
  9
$USERI5
 70
0
  9
$USERR1
 40
0.0
  9
$USERR2
 40
0.0
  9
$USERR3
 40
0.0
  9
$USERR4
 40
0.0
  9
$USERR5
 40
0.0
  9
$WORLDVIEW
 70
1
  9
$SHADEDGE
 70
3
  9
$SHADEDIF
 70
70
  9
$TILEMODE
 70
1
  9
$MAXACTVP
 70
64
  9
$PINSBASE
 10
0.0
 20
0.0
 30
0.0
  9
$PLIMCHECK
 70
0
  9
$PEXTMIN
 10
1e+20
 20
1e+20
 30
1e+20
  9
$PEXTMAX
 10
-1e+20
 20
-1e+20
 30
-1e+20
  9
$PLIMMIN
 10
0.0
 20
0.0
  9
$PLIMMAX
 10
420.0
 20
297.0
  9
$UNITMODE
 70
0
  9
$VISRETAIN
 70
1
  9
$PLINEGEN
 70
0
  9
$PSLTSCALE
 70
1
  9
$TREEDEPTH
 70
3020
  9
$CMLSTYLE
  2
Standard
  9
$CMLJUST
 70
0
  9
$CMLSCALE
 40
20.0
  9
$PROXYGRAPHICS
 70
1
  9
$MEASUREMENT
 70
1
  9
$CELWEIGHT
370
-1
  9
$ENDCAPS
280
0
  9
$JOINSTYLE
280
0
  9
$LWDISPLAY
290
0
  9
$INSUNITS
 70
6
  9
$HYPERLINKBASE
  1

  9
$STYLESHEET
  1

  9
$XEDIT
290
1
  9
$CEPSNTYPE
380
0
  9
$PSTYLEMODE
290
1
  9
$FINGERPRINTGUID
  2
{CBFD08DA-EF5B-4D7C-9419-3BBE4CBD39D0}
  9
$VERSIONGUID
  2
{B208519C-1A73-45F7-905E-BB41E3D5A74A}
  9
$EXTNAMES
290
1
  9
$PSVPSCALE
 40
0.0
  9
$OLESTARTUP
290
0
  0
ENDSEC
  0
SECTION
  2
CLASSES
  0
CLASS
  1
ACDBDICTIONARYWDFLT
  2
AcDbDictionaryWithDefault
  3
ObjectDBX Classes
 90
0
280
0
281
0
  0
CLASS
  1
SUN
  2
AcDbSun
  3
SCENEOE
 90
1153
280
0
281
0
  0
CLASS
  1
VISUALSTYLE
  2
AcDbVisualStyle
  3
ObjectDBX Classes
 90
4095
280
0
281
0
  0
CLASS
  1
MATERIAL
  2
AcDbMaterial
  3
ObjectDBX Classes
 90
1153
280
0
281
0
  0
CLASS
  1
SCALE
  2
AcDbScale
  3
ObjectDBX Classes
 90
1153
280
0
281
0
  0
CLASS
  1
TABLESTYLE
  2
AcDbTableStyle
  3
ObjectDBX Classes
 90
4095
280
0
281
0
  0
CLASS
  1
MLEADERSTYLE
  2
AcDbMLeaderStyle
  3
ACDB_MLEADERSTYLE_CLASS
 90
4095
280
0
281
0
  0
CLASS
  1
DICTIONARYVAR
  2
AcDbDictionaryVar
  3
ObjectDBX Classes
 90
0
280
0
281
0
  0
CLASS
  1
CELLSTYLEMAP
  2
AcDbCellStyleMap
  3
ObjectDBX Classes
 90
1152
280
0
281
0
  0
CLASS
  1
MENTALRAYRENDERSETTINGS
  2
AcDbMentalRayRenderSettings
  3
SCENEOE
 90
1024
280
0
281
0
  0
CLASS
  1
ACDBDETAILVIEWSTYLE
  2
AcDbDetailViewStyle
  3
ObjectDBX Classes
 90
1025
280
0
281
0
  0
CLASS
  1
ACDBSECTIONVIEWSTYLE
  2
AcDbSectionViewStyle
  3
ObjectDBX Classes
 90
1025
280
0
281
0
  0
CLASS
  1
RASTERVARIABLES
  2
AcDbRasterVariables
  3
ISM
 90
0
280
0
281
0
  0
CLASS
  1
ACDBPLACEHOLDER
  2
AcDbPlaceHolder
  3
ObjectDBX Classes
 90
0
280
0
281
0
  0
CLASS
  1
LAYOUT
  2
AcDbLayout
  3
ObjectDBX Classes
 90
0
280
0
281
0
  0
ENDSEC
  0
SECTION
  2
TABLES
  0
TABLE
  2
VPORT
  5
8
330
0
100
AcDbSymbolTable
 70
1
  0
VPORT
  5
23
330
8
100
AcDbSymbolTableRecord
100
AcDbViewportTableRecord
  2
*Active
 70
0
 10
0.0
 20
0.0
 11
1.0
 21
1.0
 12
0.0
 22
0.0
 13
0.0
 23
0.0
 14
0.5
 24
0.5
 15
0.5
 25
0.5
 16
0.0
 26
0.0
 36
1.0
 17
0.0
 27
0.0
 37
0.0
 40
1000.0
 41
1.34
 42
50.0
 43
0.0
 44
0.0
 50
0.0
 51
0.0
 71
0
 72
1000
 73
1
 74
3
 75
0
 76
0
 77
0
 78
0
281
0
 65
0
146
0.0
  0
ENDTAB
  0
TABLE
  2
LTYPE
  5
2
330
0
100
AcDbSymbolTable
 70
3
  0
LTYPE
  5
24
330
2
100
AcDbSymbolTableRecord
100
AcDbLinetypeTableRecord
  2
ByBlock
 70
0
  3

 72
65
 73
0
 40
0.0
  0
LTYPE
  5
25
330
2
100
AcDbSymbolTableRecord
100
AcDbLinetypeTableRecord
  2
ByLayer
 70
0
  3

 72
65
 73
0
 40
0.0
  0
LTYPE
  5
26
330
2
100
AcDbSymbolTableRecord
100
AcDbLinetypeTableRecord
  2
Continuous
 70
0
  3

 72
65
 73
0
 40
0.0
  0
ENDTAB
  0
TABLE
  2
LAYER
  5
1
330
0
100
AcDbSymbolTable
 70
2
  0
LAYER
  5
27
330
1
100
AcDbSymbolTableRecord
100
AcDbLayerTableRecord
  2
0
 70
0
 62
7
  6
Continuous
370
-3
390
13
  0
LAYER
  5
28
330
1
100
AcDbSymbolTableRecord
100
AcDbLayerTableRecord
  2
Defpoints
 70
0
 62
7
  6
Continuous
290
0
370
-3
390
13
  0
ENDTAB
  0
TABLE
  2
STYLE
  5
5
330
0
100
AcDbSymbolTable
 70
1
  0
STYLE
  5
29
330
5
100
AcDbSymbolTableRecord
100
AcDbTextStyleTableRecord
  2
Standard
 70
0
 40
0.0
 41
1.0
 50
0.0
 71
0
 42
2.5
  3
txt
  4

  0
ENDTAB
  0
TABLE
  2
VIEW
  5
7
330
0
100
AcDbSymbolTable
 70
0
  0
ENDTAB
  0
TABLE
  2
UCS
  5
6
330
0
100
AcDbSymbolTable
 70
0
  0
ENDTAB
  0
TABLE
  2
APPID
  5
3
330
0
100
AcDbSymbolTable
 70
3
  0
APPID
  5
2A
330
3
100
AcDbSymbolTableRecord
100
AcDbRegAppTableRecord
  2
ACAD
 70
0
  0
APPID
  5
9D
330
3
100
AcDbSymbolTableRecord
100
AcDbRegAppTableRecord
  2
HATCHBACKGROUNDCOLOR
 70
0
  0
APPID
  5
9E
330
3
100
AcDbSymbolTableRecord
100
AcDbRegAppTableRecord
  2
EZDXF
 70
0
  0
ENDTAB
  0
TABLE
  2
DIMSTYLE
  5
4
330
0
100
AcDbSymbolTable
 70
1
100
AcDbDimStyleTable
  0
DIMSTYLE
105
2B
330
4
100
AcDbSymbolTableRecord
100
AcDbDimStyleTableRecord
  2
Standard
 70
0
  3

  4

 40
1.0
 41
2.5
 42
0.625
 43
3.75
 44
1.25
 45
0.0
 46
0.0
 47
0.0
 48
0.0
140
2.5
141
2.5
142
0.0
143
0.03937007874
144
1.0
145
0.0
146
1.0
147
0.625
148
0.0
 71
0
 72
0
 73
0
 74
0
 75
0
 76
0
 77
1
 78
8
 79
3
170
0
171
3
172
1
173
0
174
0
175
0
176
0
177
0
178
0
179
2
271
2
272
2
273
2
274
3
275
0
276
0
277
2
278
44
279
0
280
0
281
0
282
0
283
0
284
8
285
0
286
0
288
0
289
3
371
-2
372
-2
  0
ENDTAB
  0
TABLE
  2
BLOCK_RECORD
  5
9
330
0
100
AcDbSymbolTable
 70
2
  0
BLOCK_RECORD
  5
17
330
9
100
AcDbSymbolTableRecord
100
AcDbBlockTableRecord
  2
*Model_Space
340
1A
  0
BLOCK_RECORD
  5
1B
330
9
100
AcDbSymbolTableRecord
100
AcDbBlockTableRecord
  2
*Paper_Space
340
1E
  0
ENDTAB
  0
ENDSEC
  0
SECTION
  2
BLOCKS
  0
BLOCK
  5
18
330
17
100
AcDbEntity
  8
0
100
AcDbBlockBegin
  2
*Model_Space
 70
0
 10
0.0
 20
0.0
 30
0.0
  3
*Model_Space
  1

  0
ENDBLK
  5
19
330
17
100
AcDbEntity
  8
0
100
AcDbBlockEnd
  0
BLOCK
  5
1C
330
1B
100
AcDbEntity
  8
0
100
AcDbBlockBegin
  2
*Paper_Space
 70
0
 10
0.0
 20
0.0
 30
0.0
  3
*Paper_Space
  1

  0
ENDBLK
  5
1D
330
1B
100
AcDbEntity
  8
0
100
AcDbBlockEnd
  0
ENDSEC
  0
SECTION
  2
ENTITIES
  0
LWPOLYLINE
  5
30
330
17
100
AcDbEntity
  8
0
 62
5
100
AcDbPolyline
 90
3
 70
0
 10
74.68514099783081
 20
3.0594827586206894
 10
63.75075921908894
 20
3.4965517241379307
 10
62.95553145336226
 20
3.6982758620689653
  0
SPLINE
  5
31
330
17
100
AcDbEntity
  8
0
 62
8
100
AcDbSpline
 70
0
 71
3
 72
8
 73
4
 74
0
 40
0.0
 40
0.0
 40
0.0
 40
0.0
 40
1.0
 40
1.0
 40
1.0
 40
1.0
 10
62.95553145336226
 20
3.6982758620689653
 30
0.0
 10
65.2136164943908
 20
9.730640180165434
 30
0.0
 10
65.35408076033549
 20
10.457794753679384
 30
0.0
 10
65.93763557483732
 20
21.685344827586206
 30
0.0
  0
SPLINE
  5
32
330
17
100
AcDbEntity
  8
0
 62
8
100
AcDbSpline
 70
0
 71
3
 72
9
 73
5
 74
0
 40
0.0
 40
0.0
 40
0.0
 40
0.0
 40
0.45279090030330543
 40
1.0
 40
1.0
 40
1.0
 40
1.0
 10
65.93763557483732
 20
21.685344827586206
 30
0.0
 10
67.9115221748343
 20
20.97702707905048
 30
0.0
 10
70.07139571942507
 20
20.06150639402301
 30
0.0
 10
73.26523141621679
 20
15.329614154613205
 30
0.0
 10
73.65797180043384
 20
13.448275862068964
 30
0.0
  0
LWPOLYLINE
  5
33
330
17
100
AcDbEntity
  8
0
 62
6
100
AcDbPolyline
 90
2
 70
0
 10
73.65797180043384
 20
13.448275862068964
 10
74.88394793926248
 20
13.179310344827586
  0
LWPOLYLINE
  5
34
330
17
100
AcDbEntity
  8
0
 62
6
100
AcDbPolyline
 90
2
 70
0
 10
74.88394793926248
 20
13.179310344827586
 10
75.91111713665944
 20
13.347413793103447
  0
SPLINE
  5
35
330
17
100
AcDbEntity
  8
0
 62
8
100
AcDbSpline
 70
0
 71
3
 72
9
 73
5
 74
0
 40
0.0
 40
0.0
 40
0.0
 40
0.0
 40
0.5445724272864549
 40
1.0
 40
1.0
 40
1.0
 40
1.0
 10
75.91111713665944
 20
13.347413793103447
 30
0.0
 10
76.6569593533034
 20
15.696408152285711
 30
0.0
 10
79.20343469336956
 20
19.555778251947498
 30
0.0
 10
81.94954042580837
 20
20.933254982321017
 30
0.0
 10
83.6977223427332
 20
21.382758620689653
 30
0.0
  0
SPLINE
  5
36
330
17
100
AcDbEntity
  8
0
 62
8
100
AcDbSpline
 70
0
 71
3
 72
8
 73
4
 74
0
 40
0.0
 40
0.0
 40
0.0
 40
0.0
 40
1.0
 40
1.0
 40
1.0
 40
1.0
 10
83.6977223427332
 20
21.382758620689653
 30
0.0
 10
84.19031056355813
 20
10.67922738385412
 30
0.0
 10
84.25052178168083
 20
9.993964835539979
 30
0.0
 10
86.48101952277658
 20
3.6310344827586203
 30
0.0
  0
LWPOLYLINE
  5
37
330
17
100
AcDbEntity
  8
0
 62
6
100
AcDbPolyline
 90
2
 70
0
 10
86.48101952277658
 20
3.6310344827586203
 10
74.68514099783081
 20
3.0594827586206894
  0
SPLINE
  5
39
330
17
100
AcDbEntity
  8
0
 62
8
100
AcDbSpline
 70
0
 71
3
 72
8
 73
4
 74
0
 40
0.0
 40
0.0
 40
0.0
 40
0.0
 40
1.0
 40
1.0
 40
1.0
 40
1.0
 10
43.339913232104124
 20
2.6896551724137927
 30
0.0
 10
35.20335033208663
 20
3.7053984826094655
 30
0.0
 10
32.65983648400575
 20
2.329022576343861
 30
0.0
 10
27.468492407809112
 20
2.7905172413793102
 30
0.0
  0
SPLINE
  5
3A
330
17
100
AcDbEntity
  8
0
 62
8
100
AcDbSpline
 70
0
 71
3
 72
8
 73
4
 74
0
 40
0.0
 40
0.0
 40
0.0
 40
0.0
 40
1.0
 40
1.0
 40
1.0
 40
1.0
 10
27.468492407809112
 20
2.7905172413793102
 30
0.0
 10
28.738391901312976
 20
5.77319858975078
 30
0.0
 10
25.847170901745017
 20
17.578256392969298
 30
0.0
 10
26.24251626898048
 20
17.617241379310343
 30
0.0
  0
LWPOLYLINE
  5
3B
330
17
100
AcDbEntity
  8
0
 62
6
100
AcDbPolyline
 90
2
 70
0
 10
26.24251626898048
 20
17.617241379310343
 10
26.540726681127985
 20
17.785344827586204
  0
LWPOLYLINE
  5
3C
330
17
100
AcDbEntity
  8
0
 62
6
100
AcDbPolyline
 90
2
 70
0
 10
26.540726681127985
 20
17.785344827586204
 10
26.07684381778742
 20
18.188793103448276
  0
LWPOLYLINE
  5
3D
330
17
100
AcDbEntity
  8
0
 62
5
100
AcDbPolyline
 90
3
 70
0
 10
26.07684381778742
 20
18.188793103448276
 10
25.911171366594363
 20
19.80258620689655
 10
25.911171366594363
 20
20.474999999999998
  0
LWPOLYLINE
  5
3E
330
17
100
AcDbEntity
  8
0
 62
6
100
AcDbPolyline
 90
2
 70
0
 10
25.911171366594363
 20
20.474999999999998
 10
26.109978308026033
 20
20.743965517241378
  0
LWPOLYLINE
  5
3F
330
17
100
AcDbEntity
  8
0
 62
6
100
AcDbPolyline
 90
2
 70
0
 10
26.109978308026033
 20
20.743965517241378
 10
25.944305856832973
 20
20.979310344827585
  0
LWPOLYLINE
  5
40
330
17
100
AcDbEntity
  8
0
 62
5
100
AcDbPolyline
 90
3
 70
0
 10
25.944305856832973
 20
20.979310344827585
 10
25.944305856832973
 20
22.256896551724136
 10
26.606995661605207
 20
35.16724137931034
  0
SPLINE
  5
41
330
17
100
AcDbEntity
  8
0
 62
8
100
AcDbSpline
 70
0
 71
3
 72
9
 73
5
 74
0
 40
0.0
 40
0.0
 40
0.0
 40
0.0
 40
0.4597335570297629
 40
1.0
 40
1.0
 40
1.0
 40
1.0
 10
26.606995661605207
 20
35.16724137931034
 30
0.0
 10
28.182977428978162
 20
34.86611212759821
 30
0.0
 10
31.45204323885398
 20
33.19643320092664
 30
0.0
 10
33.58008036946205
 20
29.716428028016477
 30
0.0
 10
34.55927331887202
 20
27.199137931034482
 30
0.0
  0
LWPOLYLINE
  5
42
330
17
100
AcDbEntity
  8
0
 62
6
100
AcDbPolyline
 90
2
 70
0
 10
34.55927331887202
 20
27.199137931034482
 10
34.82434924078091
 20
26.997413793103448
  0
LWPOLYLINE
  5
43
330
17
100
AcDbEntity
  8
0
 62
5
100
AcDbPolyline
 90
3
 70
0
 10
34.82434924078091
 20
26.997413793103448
 10
35.81838394793927
 20
26.963793103448275
 10
37.17689804772235
 20
27.16551724137931
  0
SPLINE
  5
44
330
17
100
AcDbEntity
  8
0
 62
8
100
AcDbSpline
 70
0
 71
3
 72
9
 73
5
 74
0
 40
0.0
 40
0.0
 40
0.0
 40
0.0
 40
0.5552066183625923
 40
1.0
 40
1.0
 40
1.0
 40
1.0
 10
37.17689804772235
 20
27.16551724137931
 30
0.0
 10
38.56962978427631
 20
30.254733336734105
 30
0.0
 10
40.313449242376436
 20
33.01539210051281
 30
0.0
 10
44.048845835687715
 20
35.0057560758238
 30
0.0
 10
45.195444685466384
 20
34.99913793103448
 30
0.0
  0
LWPOLYLINE
  5
45
330
17
100
AcDbEntity
  8
0
 62
5
100
AcDbPolyline
 90
3
 70
0
 10
45.195444685466384
 20
34.99913793103448
 10
45.5267895878525
 20
21.987931034482756
 10
45.36111713665944
 20
20.77758620689655
  0
LWPOLYLINE
  5
46
330
17
100
AcDbEntity
  8
0
 62
6
100
AcDbPolyline
 90
2
 70
0
 10
45.36111713665944
 20
20.77758620689655
 10
45.5267895878525
 20
20.64310344827586
  0
SPLINE
  5
47
330
17
100
AcDbEntity
  8
0
 62
8
100
AcDbSpline
 70
0
 71
3
 72
8
 73
4
 74
0
 40
0.0
 40
0.0
 40
0.0
 40
0.0
 40
1.0
 40
1.0
 40
1.0
 40
1.0
 10
45.5267895878525
 20
20.64310344827586
 30
0.0
 10
46.02680448258964
 20
20.298841732662797
 30
0.0
 10
42.36192438426792
 20
6.25867086114323
 30
-0.0
 10
43.671258134490245
 20
2.8241379310344827
 30
0.0
  0
LWPOLYLINE
  5
48
330
17
100
AcDbEntity
  8
0
 62
6
100
AcDbPolyline
 90
2
 70
0
 10
43.671258134490245
 20
2.8241379310344827
 10
43.339913232104124
 20
2.6896551724137927
  0
SPLINE
  5
4A
330
17
100
AcDbEntity
  8
0
 62
8
100
AcDbSpline
 70
0
 71
3
 72
12
 73
8
 74
0
 40
0.0
 40
0.0
 40
0.0
 40
0.0
 40
0.27047612834187207
 40
0.4168706626183769
 40
0.6204174920525113
 40
0.7347016793893527
 40
1.0
 40
1.0
 40
1.0
 40
1.0
 10
106.12977223427333
 20
2.521551724137931
 30
0.0
 10
105.14958904170584
 20
5.7669163131275525
 30
0.0
 10
104.80916228383613
 20
7.299374108272537
 30
0.0
 10
102.06678289896881
 20
10.688251422278247
 30
0.0
 10
97.25124032056536
 20
15.104338555267733
 30
0.0
 10
96.07870338459425
 20
17.115150150254493
 30
0.0
 10
94.28367428753462
 20
21.177115521163348
 30
0.0
 10
94.7646420824295
 20
22.122413793103448
 30
0.0
  0
LWPOLYLINE
  5
4B
330
17
100
AcDbEntity
  8
0
 62
6
100
AcDbPolyline
 90
2
 70
0
 10
94.7646420824295
 20
22.122413793103448
 10
95.12912147505423
 20
22.45862068965517
  0
LWPOLYLINE
  5
4C
330
17
100
AcDbEntity
  8
0
 62
6
100
AcDbPolyline
 90
2
 70
0
 10
95.12912147505423
 20
22.45862068965517
 10
94.7315075921909
 20
22.761206896551723
  0
SPLINE
  5
4D
330
17
100
AcDbEntity
  8
0
 62
8
100
AcDbSpline
 70
0
 71
3
 72
8
 73
4
 74
0
 40
0.0
 40
0.0
 40
0.0
 40
0.0
 40
1.0
 40
1.0
 40
1.0
 40
1.0
 10
94.7315075921909
 20
22.761206896551723
 30
0.0
 10
94.47474423324496
 20
22.73684149737327
 30
0.0
 10
94.64072770007864
 20
33.09135060471545
 30
0.0
 10
94.89718004338395
 20
33.418965517241375
 30
0.0
  0
LWPOLYLINE
  5
4E
330
17
100
AcDbEntity
  8
0
 62
6
100
AcDbPolyline
 90
2
 70
0
 10
94.89718004338395
 20
33.418965517241375
 10
95.62613882863342
 20
33.72155172413793
  0
LWPOLYLINE
  5
4F
330
17
100
AcDbEntity
  8
0
 62
6
100
AcDbPolyline
 90
2
 70
0
 10
95.62613882863342
 20
33.72155172413793
 10
94.96344902386117
 20
33.99051724137931
  0
SPLINE
  5
50
330
17
100
AcDbEntity
  8
0
 62
8
100
AcDbSpline
 70
0
 71
3
 72
8
 73
4
 74
0
 40
0.0
 40
0.0
 40
0.0
 40
0.0
 40
1.0
 40
1.0
 40
1.0
 40
1.0
 10
94.96344902386117
 20
33.99051724137931
 30
0.0
 10
94.62074028038042
 20
34.04694615050936
 30
0.0
 10
94.63884490710673
 20
44.576048449241696
 30
-0.0
 10
95.06285249457702
 20
47.068965517241374
 30
0.0
  0
LWPOLYLINE
  5
51
330
17
100
AcDbEntity
  8
0
 62
6
100
AcDbPolyline
 90
2
 70
0
 10
95.06285249457702
 20
47.068965517241374
 10
95.49360086767896
 20
47.4051724137931
  0
LWPOLYLINE
  5
52
330
17
100
AcDbEntity
  8
0
 62
6
100
AcDbPolyline
 90
2
 70
0
 10
95.49360086767896
 20
47.4051724137931
 10
95.19539045553147
 20
47.70775862068965
  0
SPLINE
  5
53
330
17
100
AcDbEntity
  8
0
 62
8
100
AcDbSpline
 70
0
 71
3
 72
11
 73
7
 74
0
 40
0.0
 40
0.0
 40
0.0
 40
0.0
 40
0.30757508469476735
 40
0.5586092951756393
 40
0.683464701061597
 40
1.0
 40
1.0
 40
1.0
 40
1.0
 10
95.19539045553147
 20
47.70775862068965
 30
0.0
 10
95.96212390091183
 20
49.52842743165227
 30
0.0
 10
96.1296140898822
 20
51.39834385407905
 30
0.0
 10
103.19359454280658
 20
57.702350743359325
 30
0.0
 10
104.63739306078625
 20
59.52174869324752
 30
0.0
 10
106.01424336206956
 20
62.61016601535079
 30
0.0
 10
106.36171366594361
 20
64.68620689655172
 30
0.0
  0
LWPOLYLINE
  5
54
330
17
100
AcDbEntity
  8
0
 62
6
100
AcDbPolyline
 90
2
 70
0
 10
106.36171366594361
 20
64.68620689655172
 10
106.69305856832973
 20
64.85431034482758
  0
LWPOLYLINE
  5
55
330
17
100
AcDbEntity
  8
0
 62
5
100
AcDbPolyline
 90
3
 70
0
 10
106.69305856832973
 20
64.85431034482758
 10
112.5909978308026
 20
63.13965517241379
 10
115.30802603036878
 20
62.131034482758615
  0
LWPOLYLINE
  5
56
330
17
100
AcDbEntity
  8
0
 62
5
100
AcDbPolyline
 90
3
 70
0
 10
115.30802603036878
 20
62.131034482758615
 10
115.6725054229935
 20
61.18965517241379
 10
119.81431670281997
 20
45.32068965517241
  0
LWPOLYLINE
  5
57
330
17
100
AcDbEntity
  8
0
 62
6
100
AcDbPolyline
 90
2
 70
0
 10
119.81431670281997
 20
45.32068965517241
 10
119.78118221258136
 20
45.01810344827586
  0
LWPOLYLINE
  5
58
330
17
100
AcDbEntity
  8
0
 62
6
100
AcDbPolyline
 90
2
 70
0
 10
119.78118221258136
 20
45.01810344827586
 10
119.38356832971802
 20
44.81637931034482
  0
LWPOLYLINE
  5
59
330
17
100
AcDbEntity
  8
0
 62
6
100
AcDbPolyline
 90
2
 70
0
 10
119.38356832971802
 20
44.81637931034482
 10
119.74804772234275
 20
44.4801724137931
  0
SPLINE
  5
5A
330
17
100
AcDbEntity
  8
0
 62
8
100
AcDbSpline
 70
0
 71
3
 72
8
 73
4
 74
0
 40
0.0
 40
0.0
 40
0.0
 40
0.0
 40
1.0
 40
1.0
 40
1.0
 40
1.0
 10
119.74804772234275
 20
44.4801724137931
 30
0.0
 10
119.83239044665257
 20
43.05133304570255
 30
0.0
 10
119.77762680100224
 20
33.93033534925921
 30
0.0
 10
119.58237527114969
 20
33.88965517241379
 30
0.0
  0
LWPOLYLINE
  5
5B
330
17
100
AcDbEntity
  8
0
 62
6
100
AcDbPolyline
 90
2
 70
0
 10
119.58237527114969
 20
33.88965517241379
 10
119.25103036876357
 20
33.68793103448276
  0
LWPOLYLINE
  5
5C
330
17
100
AcDbEntity
  8
0
 62
6
100
AcDbPolyline
 90
2
 70
0
 10
119.25103036876357
 20
33.68793103448276
 10
119.58237527114969
 20
33.45258620689655
  0
SPLINE
  5
5D
330
17
100
AcDbEntity
  8
0
 62
8
100
AcDbSpline
 70
0
 71
3
 72
8
 73
4
 74
0
 40
0.0
 40
0.0
 40
0.0
 40
0.0
 40
1.0
 40
1.0
 40
1.0
 40
1.0
 10
119.58237527114969
 20
33.45258620689655
 30
0.0
 10
119.77179096722652
 20
33.82233410813152
 30
0.0
 10
119.73744844756267
 20
22.29857767375367
 30
0.0
 10
119.58237527114969
 20
22.72758620689655
 30
0.0
  0
LWPOLYLINE
  5
5E
330
17
100
AcDbEntity
  8
0
 62
6
100
AcDbPolyline
 90
2
 70
0
 10
119.58237527114969
 20
22.72758620689655
 10
119.11849240780911
 20
22.525862068965516
  0
LWPOLYLINE
  5
5F
330
17
100
AcDbEntity
  8
0
 62
6
100
AcDbPolyline
 90
2
 70
0
 10
119.11849240780911
 20
22.525862068965516
 10
119.6155097613883
 20
22.223275862068963
  0
SPLINE
  5
60
330
17
100
AcDbEntity
  8
0
 62
8
100
AcDbSpline
 70
0
 71
3
 72
9
 73
5
 74
0
 40
0.0
 40
0.0
 40
0.0
 40
0.0
 40
0.30946496331097384
 40
1.0
 40
1.0
 40
1.0
 40
1.0
 10
119.6155097613883
 20
22.223275862068963
 30
0.0
 10
119.72204376875865
 20
22.125046275635146
 30
0.0
 10
118.46751859874003
 20
16.779394662929768
 30
0.0
 10
116.94260061916897
 20
10.145647432719702
 30
0.0
 10
115.04295010845988
 20
5.244827586206896
 30
0.0
  0
LWPOLYLINE
  5
61
330
17
100
AcDbEntity
  8
0
 62
5
100
AcDbPolyline
 90
3
 70
0
 10
115.04295010845988
 20
5.244827586206896
 10
109.70829718004339
 20
3.429310344827586
 10
106.12977223427333
 20
2.521551724137931
  0
LWPOLYLINE
  5
63
330
17
100
AcDbEntity
  8
0
 62
6
100
AcDbPolyline
 90
2
 70
0
 10
60.63611713665944
 20
2.3198275862068964
 10
50.49696312364426
 20
2.992241379310345
  0
LWPOLYLINE
  5
64
330
17
100
AcDbEntity
  8
0
 62
5
100
AcDbPolyline
 90
3
 70
0
 10
50.49696312364426
 20
2.992241379310345
 10
50.19875271149675
 20
3.7655172413793103
 10
48.70770065075922
 20
21.147413793103446
  0
SPLINE
  5
65
330
17
100
AcDbEntity
  8
0
 62
8
100
AcDbSpline
 70
0
 71
3
 72
8
 73
4
 74
0
 40
0.0
 40
0.0
 40
0.0
 40
0.0
 40
1.0
 40
1.0
 40
1.0
 40
1.0
 10
48.70770065075922
 20
21.147413793103446
 30
0.0
 10
52.06794120761315
 20
21.875641278958263
 30
0.0
 10
52.56435000226145
 20
22.181338749866228
 30
0.0
 10
53.84354663774404
 20
23.70258620689655
 30
0.0
  0
SPLINE
  5
66
330
17
100
AcDbEntity
  8
0
 62
8
100
AcDbSpline
 70
0
 71
3
 72
9
 73
5
 74
0
 40
0.0
 40
0.0
 40
0.0
 40
0.0
 40
0.3915177393152079
 40
1.0
 40
1.0
 40
1.0
 40
1.0
 10
53.84354663774404
 20
23.70258620689655
 30
0.0
 10
54.436433049369235
 20
24.58362881116959
 30
0.0
 10
54.01134639540438
 20
29.420595145344322
 30
0.0
 10
53.18686591126358
 20
33.849668306443014
 30
0.0
 10
51.1927874186551
 20
39.30258620689655
 30
0.0
  0
LWPOLYLINE
  5
67
330
17
100
AcDbEntity
  8
0
 62
6
100
AcDbPolyline
 90
2
 70
0
 10
51.1927874186551
 20
39.30258620689655
 10
55.9972885032538
 20
42.563793103448276
  0
SPLINE
  5
68
330
17
100
AcDbEntity
  8
0
 62
8
100
AcDbSpline
 70
0
 71
3
 72
8
 73
4
 74
0
 40
0.0
 40
0.0
 40
0.0
 40
0.0
 40
1.0
 40
1.0
 40
1.0
 40
1.0
 10
55.9972885032538
 20
42.563793103448276
 30
0.0
 10
57.33938364350034
 20
40.6166242072568
 30
0.0
 10
58.01734746887831
 20
37.81715068722349
 30
0.0
 10
59.60894793926248
 20
33.58706896551724
 30
0.0
  0
LWPOLYLINE
  5
69
330
17
100
AcDbEntity
  8
0
 62
6
100
AcDbPolyline
 90
2
 70
0
 10
59.60894793926248
 20
33.58706896551724
 10
59.44327548806942
 20
33.25086206896552
  0
LWPOLYLINE
  5
6A
330
17
100
AcDbEntity
  8
0
 62
6
100
AcDbPolyline
 90
2
 70
0
 10
59.44327548806942
 20
33.25086206896552
 10
59.80775488069415
 20
33.04913793103448
  0
SPLINE
  5
6B
330
17
100
AcDbEntity
  8
0
 62
8
100
AcDbSpline
 70
0
 71
3
 72
8
 73
4
 74
0
 40
0.0
 40
0.0
 40
0.0
 40
0.0
 40
1.0
 40
1.0
 40
1.0
 40
1.0
 10
59.80775488069415
 20
33.04913793103448
 30
0.0
 10
61.053647403139436
 20
30.0834615029886
 30
0.0
 10
64.48131994155189
 20
20.5052124939762
 30
0.0
 10
64.11523861171366
 20
20.306896551724137
 30
0.0
  0
LWPOLYLINE
  5
6C
330
17
100
AcDbEntity
  8
0
 62
6
100
AcDbPolyline
 90
2
 70
0
 10
64.11523861171366
 20
20.306896551724137
 10
63.78389370932755
 20
20.004310344827584
  0
LWPOLYLINE
  5
6D
330
17
100
AcDbEntity
  8
0
 62
6
100
AcDbPolyline
 90
2
 70
0
 10
63.78389370932755
 20
20.004310344827584
 10
64.14837310195229
 20
19.701724137931034
  0
SPLINE
  5
6E
330
17
100
AcDbEntity
  8
0
 62
8
100
AcDbSpline
 70
0
 71
3
 72
9
 73
5
 74
0
 40
0.0
 40
0.0
 40
0.0
 40
0.0
 40
0.38210684278531465
 40
1.0
 40
1.0
 40
1.0
 40
1.0
 10
64.14837310195229
 20
19.701724137931034
 30
0.0
 10
64.22049155263112
 20
18.343391335109196
 30
0.0
 10
62.64950506043294
 20
14.903477429053218
 30
0.0
 10
61.091382854859425
 20
6.073526208172602
 30
0.0
 10
61.33194143167029
 20
2.4206896551724135
 30
0.0
  0
LWPOLYLINE
  5
6F
330
17
100
AcDbEntity
  8
0
 62
6
100
AcDbPolyline
 90
2
 70
0
 10
61.33194143167029
 20
2.4206896551724135
 10
60.63611713665944
 20
2.3198275862068964
  0
LWPOLYLINE
  5
71
330
17
100
AcDbEntity
  8
0
 62
6
100
AcDbPolyline
 90
2
 70
0
 10
17.32933839479393
 20
2.2189655172413794
 10
1.756127982646421
 20
2.4879310344827585
  0
LWPOLYLINE
  5
72
330
17
100
AcDbEntity
  8
0
 62
6
100
AcDbPolyline
 90
2
 70
0
 10
1.756127982646421
 20
2.4879310344827585
 10
1.5904555314533624
 20
2.6896551724137927
  0
LWPOLYLINE
  5
73
330
17
100
AcDbEntity
  8
0
 62
5
100
AcDbPolyline
 90
3
 70
0
 10
1.5904555314533624
 20
2.6896551724137927
 10
1.1928416485900217
 20
23.4
 10
1.6898590021691975
 20
37.991379310344826
  0
SPLINE
  5
74
330
17
100
AcDbEntity
  8
0
 62
8
100
AcDbSpline
 70
0
 71
3
 72
8
 73
4
 74
0
 40
0.0
 40
0.0
 40
0.0
 40
0.0
 40
1.0
 40
1.0
 40
1.0
 40
1.0
 10
1.6898590021691975
 20
37.991379310344826
 30
0.0
 10
6.830763131083792
 20
38.31499781289889
 30
0.0
 10
10.135218332912151
 20
39.16321568747662
 30
0.0
 10
12.591106290672451
 20
40.98362068965517
 30
0.0
  0
LWPOLYLINE
  5
75
330
17
100
AcDbEntity
  8
0
 62
6
100
AcDbPolyline
 90
2
 70
0
 10
12.591106290672451
 20
40.98362068965517
 10
14.612310195227767
 20
43.404310344827586
  0
LWPOLYLINE
  5
76
330
17
100
AcDbEntity
  8
0
 62
6
100
AcDbPolyline
 90
2
 70
0
 10
14.612310195227767
 20
43.404310344827586
 10
20.47711496746204
 20
41.31982758620689
  0
SPLINE
  5
77
330
17
100
AcDbEntity
  8
0
 62
8
100
AcDbSpline
 70
0
 71
3
 72
9
 73
5
 74
0
 40
0.0
 40
0.0
 40
0.0
 40
0.0
 40
0.57212964156355
 40
1.0
 40
1.0
 40
1.0
 40
1.0
 10
20.47711496746204
 20
41.31982758620689
 30
0.0
 10
19.704119339262906
 20
35.88115606090141
 30
0.0
 10
19.2250567458975
 20
30.82123012828422
 30
0.0
 10
19.036803526513882
 20
23.499300992555714
 30
0.0
 10
19.549349240780913
 20
22.45862068965517
 30
0.0
  0
SPLINE
  5
78
330
17
100
AcDbEntity
  8
0
 62
8
100
AcDbSpline
 70
0
 71
3
 72
8
 73
4
 74
0
 40
0.0
 40
0.0
 40
0.0
 40
0.0
 40
1.0
 40
1.0
 40
1.0
 40
1.0
 10
19.549349240780913
 20
22.45862068965517
 30
0.0
 10
20.254248442776706
 20
21.005910585738945
 30
0.0
 10
20.783994164827455
 20
20.597883305951154
 30
0.0
 10
23.492353579175706
 20
19.66810344827586
 30
0.0
  0
LWPOLYLINE
  5
79
330
17
100
AcDbEntity
  8
0
 62
6
100
AcDbPolyline
 90
2
 70
0
 10
23.492353579175706
 20
19.66810344827586
 10
18.9529284164859
 20
2.353448275862069
  0
LWPOLYLINE
  5
7A
330
17
100
AcDbEntity
  8
0
 62
6
100
AcDbPolyline
 90
2
 70
0
 10
18.9529284164859
 20
2.353448275862069
 10
17.32933839479393
 20
2.2189655172413794
  0
LWPOLYLINE
  5
7C
330
17
100
AcDbEntity
  8
0
 62
6
100
AcDbPolyline
 90
2
 70
0
 10
53.611605206073754
 20
0.0
 10
54.83758134490239
 20
0.3362068965517241
  0
LWPOLYLINE
  5
7D
330
17
100
AcDbEntity
  8
0
 62
6
100
AcDbPolyline
 90
2
 70
0
 10
54.83758134490239
 20
0.3362068965517241
 10
55.16892624728851
 20
0.03362068965517241
  0
LWPOLYLINE
  5
7E
330
17
100
AcDbEntity
  8
0
 62
6
100
AcDbPolyline
 90
2
 70
0
 10
55.16892624728851
 20
0.03362068965517241
 10
55.699078091106294
 20
0.20172413793103447
  0
LWPOLYLINE
  5
7F
330
17
100
AcDbEntity
  8
0
 62
6
100
AcDbPolyline
 90
2
 70
0
 10
55.699078091106294
 20
0.20172413793103447
 10
55.864750542299355
 20
0.0
  0
LWPOLYLINE
  5
80
330
17
100
AcDbEntity
  8
0
 62
6
100
AcDbPolyline
 90
2
 70
0
 10
55.864750542299355
 20
0.0
 10
56.2954989154013
 20
0.5379310344827586
  0
LWPOLYLINE
  5
81
330
17
100
AcDbEntity
  8
0
 62
6
100
AcDbPolyline
 90
2
 70
0
 10
56.2954989154013
 20
0.5379310344827586
 10
55.93101952277658
 20
1.4793103448275862
  0
LWPOLYLINE
  5
82
330
17
100
AcDbEntity
  8
0
 62
6
100
AcDbPolyline
 90
2
 70
0
 10
55.93101952277658
 20
1.4793103448275862
 10
56.096691973969634
 20
1.714655172413793
  0
LWPOLYLINE
  5
83
330
17
100
AcDbEntity
  8
0
 62
5
100
AcDbPolyline
 90
3
 70
0
 10
56.096691973969634
 20
1.714655172413793
 10
59.80775488069415
 20
1.8491379310344827
 10
61.03373101952278
 20
1.714655172413793
  0
LWPOLYLINE
  5
84
330
17
100
AcDbEntity
  8
0
 62
6
100
AcDbPolyline
 90
2
 70
0
 10
61.03373101952278
 20
1.714655172413793
 10
61.03373101952278
 20
1.3448275862068964
  0
LWPOLYLINE
  5
85
330
17
100
AcDbEntity
  8
0
 62
6
100
AcDbPolyline
 90
2
 70
0
 10
61.03373101952278
 20
1.3448275862068964
 10
60.66925162689805
 20
1.0758620689655172
  0
LWPOLYLINE
  5
86
330
17
100
AcDbEntity
  8
0
 62
6
100
AcDbPolyline
 90
2
 70
0
 10
60.66925162689805
 20
1.0758620689655172
 10
60.83492407809111
 20
0.2353448275862069
  0
LWPOLYLINE
  5
87
330
17
100
AcDbEntity
  8
0
 62
6
100
AcDbPolyline
 90
2
 70
0
 10
60.83492407809111
 20
0.2353448275862069
 10
61.1
 20
0.36982758620689654
  0
LWPOLYLINE
  5
88
330
17
100
AcDbEntity
  8
0
 62
6
100
AcDbPolyline
 90
2
 70
0
 10
61.1
 20
0.36982758620689654
 10
61.39821041214751
 20
0.06724137931034482
  0
LWPOLYLINE
  5
89
330
17
100
AcDbEntity
  8
0
 62
6
100
AcDbPolyline
 90
2
 70
0
 10
61.39821041214751
 20
0.06724137931034482
 10
62.29284164859003
 20
0.3025862068965517
  0
LWPOLYLINE
  5
8A
330
17
100
AcDbEntity
  8
0
 62
6
100
AcDbPolyline
 90
2
 70
0
 10
62.29284164859003
 20
0.3025862068965517
 10
62.524783080260306
 20
0.10086206896551723
  0
LWPOLYLINE
  5
8B
330
17
100
AcDbEntity
  8
0
 62
6
100
AcDbPolyline
 90
2
 70
0
 10
62.524783080260306
 20
0.10086206896551723
 10
63.6182212581345
 20
0.06724137931034482
  0
LWPOLYLINE
  5
8C
330
17
100
AcDbEntity
  8
0
 62
6
100
AcDbPolyline
 90
2
 70
0
 10
63.6182212581345
 20
0.06724137931034482
 10
62.524783080260306
 20
0.10086206896551723
  0
LWPOLYLINE
  5
8D
330
17
100
AcDbEntity
  8
0
 62
6
100
AcDbPolyline
 90
2
 70
0
 10
62.524783080260306
 20
0.10086206896551723
 10
62.29284164859003
 20
0.3025862068965517
  0
LWPOLYLINE
  5
8E
330
17
100
AcDbEntity
  8
0
 62
6
100
AcDbPolyline
 90
2
 70
0
 10
62.29284164859003
 20
0.3025862068965517
 10
61.39821041214751
 20
0.06724137931034482
  0
LWPOLYLINE
  5
8F
330
17
100
AcDbEntity
  8
0
 62
6
100
AcDbPolyline
 90
2
 70
0
 10
61.39821041214751
 20
0.06724137931034482
 10
61.06686550976139
 20
0.36982758620689654
  0
LWPOLYLINE
  5
90
330
17
100
AcDbEntity
  8
0
 62
6
100
AcDbPolyline
 90
2
 70
0
 10
61.06686550976139
 20
0.36982758620689654
 10
60.8017895878525
 20
0.2353448275862069
  0
LWPOLYLINE
  5
91
330
17
100
AcDbEntity
  8
0
 62
6
100
AcDbPolyline
 90
2
 70
0
 10
60.8017895878525
 20
0.2353448275862069
 10
60.83492407809111
 20
0.9077586206896551
  0
LWPOLYLINE
  5
92
330
17
100
AcDbEntity
  8
0
 62
6
100
AcDbPolyline
 90
2
 70
0
 10
60.83492407809111
 20
0.9077586206896551
 10
60.66925162689805
 20
1.0758620689655172
  0
LWPOLYLINE
  5
93
330
17
100
AcDbEntity
  8
0
 62
6
100
AcDbPolyline
 90
2
 70
0
 10
60.66925162689805
 20
1.0758620689655172
 10
61.03373101952278
 20
1.3448275862068964
  0
LWPOLYLINE
  5
94
330
17
100
AcDbEntity
  8
0
 62
6
100
AcDbPolyline
 90
2
 70
0
 10
61.03373101952278
 20
1.3448275862068964
 10
61.03373101952278
 20
1.6810344827586206
  0
LWPOLYLINE
  5
95
330
17
100
AcDbEntity
  8
0
 62
5
100
AcDbPolyline
 90
3
 70
0
 10
61.03373101952278
 20
1.6810344827586206
 10
59.80775488069415
 20
1.8491379310344827
 10
56.096691973969634
 20
1.714655172413793
  0
LWPOLYLINE
  5
96
330
17
100
AcDbEntity
  8
0
 62
6
100
AcDbPolyline
 90
2
 70
0
 10
56.096691973969634
 20
1.714655172413793
 10
55.93101952277658
 20
1.4793103448275862
  0
LWPOLYLINE
  5
97
330
17
100
AcDbEntity
  8
0
 62
6
100
AcDbPolyline
 90
2
 70
0
 10
55.93101952277658
 20
1.4793103448275862
 10
56.2954989154013
 20
0.5379310344827586
  0
LWPOLYLINE
  5
98
330
17
100
AcDbEntity
  8
0
 62
6
100
AcDbPolyline
 90
2
 70
0
 10
56.2954989154013
 20
0.5379310344827586
 10
55.897885032537964
 20
0.0
  0
LWPOLYLINE
  5
99
330
17
100
AcDbEntity
  8
0
 62
6
100
AcDbPolyline
 90
2
 70
0
 10
55.897885032537964
 20
0.0
 10
55.699078091106294
 20
0.20172413793103447
  0
LWPOLYLINE
  5
9A
330
17
100
AcDbEntity
  8
0
 62
6
100
AcDbPolyline
 90
2
 70
0
 10
55.699078091106294
 20
0.20172413793103447
 10
55.16892624728851
 20
0.03362068965517241
  0
LWPOLYLINE
  5
9B
330
17
100
AcDbEntity
  8
0
 62
6
100
AcDbPolyline
 90
2
 70
0
 10
55.16892624728851
 20
0.03362068965517241
 10
54.97011930585684
 20
0.3362068965517241
  0
LWPOLYLINE
  5
9C
330
17
100
AcDbEntity
  8
0
 62
6
100
AcDbPolyline
 90
2
 70
0
 10
54.97011930585684
 20
0.3362068965517241
 10
53.611605206073754
 20
0.0
  0
ENDSEC
  0
SECTION
  2
OBJECTS
  0
DICTIONARY
  5
A
330
0
100
AcDbDictionary
280
0
281
1
  3
ACAD_COLOR
350
B
  3
ACAD_GROUP
350
C
  3
ACAD_LAYOUT
350
D
  3
ACAD_MATERIAL
350
E
  3
ACAD_MLEADERSTYLE
350
F
  3
ACAD_MLINESTYLE
350
10
  3
ACAD_PLOTSETTINGS
350
11
  3
ACAD_PLOTSTYLENAME
350
12
  3
ACAD_SCALELIST
350
14
  3
ACAD_TABLESTYLE
350
15
  3
ACAD_VISUALSTYLE
350
16
  3
EZDXF_META
350
2D
  0
DICTIONARY
  5
B
330
A
100
AcDbDictionary
280
0
281
1
  0
DICTIONARY
  5
C
330
A
100
AcDbDictionary
280
0
281
1
  3
*A1
350
2F
  3
*A2
350
38
  3
*A3
350
49
  3
*A4
350
62
  3
*A5
350
70
  3
*A6
350
7B
  0
DICTIONARY
  5
D
330
A
100
AcDbDictionary
280
0
281
1
  3
Model
350
1A
  3
Layout1
350
1E
  0
DICTIONARY
  5
E
330
A
100
AcDbDictionary
280
0
281
1
  3
ByBlock
350
1F
  3
ByLayer
350
20
  3
Global
350
21
  0
DICTIONARY
  5
F
330
A
100
AcDbDictionary
280
0
281
1
  3
Standard
350
2C
  0
DICTIONARY
  5
10
330
A
100
AcDbDictionary
280
0
281
1
  3
Standard
350
22
  0
DICTIONARY
  5
11
330
A
100
AcDbDictionary
280
0
281
1
  0
ACDBDICTIONARYWDFLT
  5
12
330
A
100
AcDbDictionary
280
0
281
1
  3
Normal
350
13
100
AcDbDictionaryWithDefault
340
13
  0
ACDBPLACEHOLDER
  5
13
330
12
  0
DICTIONARY
  5
14
330
A
100
AcDbDictionary
280
0
281
1
  0
DICTIONARY
  5
15
330
A
100
AcDbDictionary
280
0
281
1
  0
DICTIONARY
  5
16
330
A
100
AcDbDictionary
280
0
281
1
  0
LAYOUT
  5
1A
330
D
100
AcDbPlotSettings
  1

  2
Adobe PDF
  4
A3
  6

 40
7.5
 41
20.0
 42
7.5
 43
20.0
 44
420.0
 45
297.0
 46
0.0
 47
0.0
 48
0.0
 49
0.0
140
0.0
141
0.0
142
1.0
143
1.0
 70
1024
 72
1
 73
0
 74
5
  7

 75
16
 76
0
 77
2
 78
300
147
1.0
148
0.0
149
0.0
100
AcDbLayout
  1
Model
 70
1
 71
0
 10
0.0
 20
0.0
 11
420.0
 21
297.0
 12
0.0
 22
0.0
 32
0.0
 14
1e+20
 24
1e+20
 34
1e+20
 15
-1e+20
 25
-1e+20
 35
-1e+20
146
0.0
 13
0.0
 23
0.0
 33
0.0
 16
1.0
 26
0.0
 36
0.0
 17
0.0
 27
1.0
 37
0.0
 76
1
330
17
  0
LAYOUT
  5
1E
330
D
100
AcDbPlotSettings
  1

  2
Adobe PDF
  4
A3
  6

 40
7.5
 41
20.0
 42
7.5
 43
20.0
 44
420.0
 45
297.0
 46
0.0
 47
0.0
 48
0.0
 49
0.0
140
0.0
141
0.0
142
1.0
143
1.0
 70
0
 72
1
 73
0
 74
5
  7

 75
16
 76
0
 77
2
 78
300
147
1.0
148
0.0
149
0.0
100
AcDbLayout
  1
Layout1
 70
1
 71
1
 10
0.0
 20
0.0
 11
420.0
 21
297.0
 12
0.0
 22
0.0
 32
0.0
 14
1e+20
 24
1e+20
 34
1e+20
 15
-1e+20
 25
-1e+20
 35
-1e+20
146
0.0
 13
0.0
 23
0.0
 33
0.0
 16
1.0
 26
0.0
 36
0.0
 17
0.0
 27
1.0
 37
0.0
 76
1
330
1B
  0
MATERIAL
  5
1F
102
{ACAD_REACTORS
330
E
102
}
330
E
100
AcDbMaterial
  1
ByBlock
  2

 70
0
 40
1.0
 71
1
 41
1.0
 91
-1023410177
 42
1.0
 72
1
  3

 73
1
 74
1
 75
1
 44
0.5
 73
0
 45
1.0
 46
1.0
 77
1
  4

 78
1
 79
1
170
1
 48
1.0
171
1
  6

172
1
173
1
174
1
140
1.0
141
1.0
175
1
  7

176
1
177
1
178
1
143
1.0
179
1
  8

270
1
271
1
272
1
145
1.0
146
1.0
273
1
  9

274
1
275
1
276
1
 42
1.0
 72
1
  3

 73
1
 74
1
 75
1
 94
63
  0
MATERIAL
  5
20
102
{ACAD_REACTORS
330
E
102
}
330
E
100
AcDbMaterial
  1
ByLayer
  2

 70
0
 40
1.0
 71
1
 41
1.0
 91
-1023410177
 42
1.0
 72
1
  3

 73
1
 74
1
 75
1
 44
0.5
 73
0
 45
1.0
 46
1.0
 77
1
  4

 78
1
 79
1
170
1
 48
1.0
171
1
  6

172
1
173
1
174
1
140
1.0
141
1.0
175
1
  7

176
1
177
1
178
1
143
1.0
179
1
  8

270
1
271
1
272
1
145
1.0
146
1.0
273
1
  9

274
1
275
1
276
1
 42
1.0
 72
1
  3

 73
1
 74
1
 75
1
 94
63
  0
MATERIAL
  5
21
102
{ACAD_REACTORS
330
E
102
}
330
E
100
AcDbMaterial
  1
Global
  2

 70
0
 40
1.0
 71
1
 41
1.0
 91
-1023410177
 42
1.0
 72
1
  3

 73
1
 74
1
 75
1
 44
0.5
 73
0
 45
1.0
 46
1.0
 77
1
  4

 78
1
 79
1
170
1
 48
1.0
171
1
  6

172
1
173
1
174
1
140
1.0
141
1.0
175
1
  7

176
1
177
1
178
1
143
1.0
179
1
  8

270
1
271
1
272
1
145
1.0
146
1.0
273
1
  9

274
1
275
1
276
1
 42
1.0
 72
1
  3

 73
1
 74
1
 75
1
 94
63
  0
MLINESTYLE
  5
22
102
{ACAD_REACTORS
330
10
102
}
330
10
100
AcDbMlineStyle
  2
Standard
 70
0
  3

 62
256
 51
90.0
 52
90.0
 71
2
 49
0.5
 62
256
  6
BYLAYER
 49
-0.5
 62
256
  6
BYLAYER
  0
MLEADERSTYLE
  5
2C
102
{ACAD_REACTORS
330
F
102
}
330
F
100
AcDbMLeaderStyle
179
2
170
2
171
1
172
0
 90
2
 40
0.0
 41
0.0
173
1
 91
-1056964608
 92
-2
290
1
 42
2.0
291
1
 43
8.0
  3
Standard
 44
4.0
300

342
29
174
1
175
1
176
0
178
1
 93
-1056964608
 45
4.0
292
0
297
0
 46
4.0
 94
-1056964608
 47
1.0
 49
1.0
140
1.0
294
1
141
0.0
177
0
142
1.0
295
0
296
0
143
3.75
271
0
272
9
273
9
  0
DICTIONARY
  5
2D
330
A
100
AcDbDictionary
281
1
  3
CREATED_BY_EZDXF
350
2E
  3
WRITTEN_BY_EZDXF
350
9F
  0
DICTIONARYVAR
  5
2E
330
2D
100
DictionaryVariables
280
0
  1
1.3.0 @ 2024-05-20T12:02:05.099804+00:00
  0
GROUP
  5
2F
102
{ACAD_REACTORS
330
C
102
}
330
C
100
AcDbGroup
300

 70
1
 71
1
340
30
340
31
340
32
340
33
340
34
340
35
340
36
340
37
  0
GROUP
  5
38
102
{ACAD_REACTORS
330
C
102
}
330
C
100
AcDbGroup
300

 70
1
 71
1
340
39
340
3A
340
3B
340
3C
340
3D
340
3E
340
3F
340
40
340
41
340
42
340
43
340
44
340
45
340
46
340
47
340
48
  0
GROUP
  5
49
102
{ACAD_REACTORS
330
C
102
}
330
C
100
AcDbGroup
300

 70
1
 71
1
340
4A
340
4B
340
4C
340
4D
340
4E
340
4F
340
50
340
51
340
52
340
53
340
54
340
55
340
56
340
57
340
58
340
59
340
5A
340
5B
340
5C
340
5D
340
5E
340
5F
340
60
340
61
  0
GROUP
  5
62
102
{ACAD_REACTORS
330
C
102
}
330
C
100
AcDbGroup
300

 70
1
 71
1
340
63
340
64
340
65
340
66
340
67
340
68
340
69
340
6A
340
6B
340
6C
340
6D
340
6E
340
6F
  0
GROUP
  5
70
102
{ACAD_REACTORS
330
C
102
}
330
C
100
AcDbGroup
300

 70
1
 71
1
340
71
340
72
340
73
340
74
340
75
340
76
340
77
340
78
340
79
340
7A
  0
GROUP
  5
7B
102
{ACAD_REACTORS
330
C
102
}
330
C
100
AcDbGroup
300

 70
1
 71
1
340
7C
340
7D
340
7E
340
7F
340
80
340
81
340
82
340
83
340
84
340
85
340
86
340
87
340
88
340
89
340
8A
340
8B
340
8C
340
8D
340
8E
340
8F
340
90
340
91
340
92
340
93
340
94
340
95
340
96
340
97
340
98
340
99
340
9A
340
9B
340
9C
  0
DICTIONARYVAR
  5
9F
330
2D
100
DictionaryVariables
280
0
  1
1.3.0 @ 2024-05-20T12:02:11.163641+00:00
  0
ENDSEC
  0
EOF
