  0
SECTION
  2
HEADER
  9
$ACADVER
  1
AC1015
  9
$ACADMAINTVER
 70
6
  9
$DWGCODEPAGE
  3
ANSI_1252
  9
$INSBASE
 10
0.0
 20
0.0
 30
0.0
  9
$EXTMIN
 10
1e+20
 20
1e+20
 30
1e+20
  9
$EXTMAX
 10
-1e+20
 20
-1e+20
 30
-1e+20
  9
$LIMMIN
 10
0.0
 20
0.0
  9
$LIMMAX
 10
420.0
 20
297.0
  9
$ORTHOMODE
 70
0
  9
$REGENMODE
 70
1
  9
$FILLMODE
 70
1
  9
$QTEXTMODE
 70
0
  9
$MIRRTEXT
 70
1
  9
$LTSCALE
 40
1.0
  9
$ATTMODE
 70
1
  9
$TEXTSIZE
 40
2.5
  9
$TRACEWID
 40
1.0
  9
$TEXTSTYLE
  7
Standard
  9
$CLAYER
  8
0
  9
$CELTYPE
  6
ByLayer
  9
$CECOLOR
 62
256
  9
$CELTSCALE
 40
1.0
  9
$DISPSILH
 70
0
  9
$DIMSCALE
 40
1.0
  9
$DIMASZ
 40
2.5
  9
$DIMEXO
 40
0.625
  9
$DIMDLI
 40
3.75
  9
$DIMRND
 40
0.0
  9
$DIMDLE
 40
0.0
  9
$DIMEXE
 40
1.25
  9
$DIMTP
 40
0.0
  9
$DIMTM
 40
0.0
  9
$DIMTXT
 40
2.5
  9
$DIMCEN
 40
2.5
  9
$DIMTSZ
 40
0.0
  9
$DIMTOL
 70
0
  9
$DIMLIM
 70
0
  9
$DIMTIH
 70
0
  9
$DIMTOH
 70
0
  9
$DIMSE1
 70
0
  9
$DIMSE2
 70
0
  9
$DIMTAD
 70
1
  9
$DIMZIN
 70
8
  9
$DIMBLK
  1

  9
$DIMASO
 70
1
  9
$DIMSHO
 70
1
  9
$DIMPOST
  1

  9
$DIMAPOST
  1

  9
$DIMALT
 70
0
  9
$DIMALTD
 70
3
  9
$DIMALTF
 40
0.03937007874
  9
$DIMLFAC
 40
1.0
  9
$DIMTOFL
 70
1
  9
$DIMTVP
 40
0.0
  9
$DIMTIX
 70
0
  9
$DIMSOXD
 70
0
  9
$DIMSAH
 70
0
  9
$DIMBLK1
  1

  9
$DIMBLK2
  1

  9
$DIMSTYLE
  2
ISO-25
  9
$DIMCLRD
 70
0
  9
$DIMCLRE
 70
0
  9
$DIMCLRT
 70
0
  9
$DIMTFAC
 40
1.0
  9
$DIMGAP
 40
0.625
  9
$DIMJUST
 70
0
  9
$DIMSD1
 70
0
  9
$DIMSD2
 70
0
  9
$DIMTOLJ
 70
0
  9
$DIMTZIN
 70
8
  9
$DIMALTZ
 70
0
  9
$DIMALTTZ
 70
0
  9
$DIMUPT
 70
0
  9
$DIMDEC
 70
2
  9
$DIMTDEC
 70
2
  9
$DIMALTU
 70
2
  9
$DIMALTTD
 70
3
  9
$DIMTXSTY
  7
Standard
  9
$DIMAUNIT
 70
0
  9
$DIMADEC
 70
0
  9
$DIMALTRND
 40
0.0
  9
$DIMAZIN
 70
0
  9
$DIMDSEP
 70
44
  9
$DIMATFIT
 70
3
  9
$DIMFRAC
 70
0
  9
$DIMLDRBLK
  1

  9
$DIMLUNIT
 70
2
  9
$DIMLWD
 70
-2
  9
$DIMLWE
 70
-2
  9
$DIMTMOVE
 70
0
  9
$LUNITS
 70
2
  9
$LUPREC
 70
4
  9
$SKETCHINC
 40
1.0
  9
$FILLETRAD
 40
10.0
  9
$AUNITS
 70
0
  9
$AUPREC
 70
2
  9
$MENU
  1
.
  9
$ELEVATION
 40
0.0
  9
$PELEVATION
 40
0.0
  9
$THICKNESS
 40
0.0
  9
$LIMCHECK
 70
0
  9
$CHAMFERA
 40
0.0
  9
$CHAMFERB
 40
0.0
  9
$CHAMFERC
 40
0.0
  9
$CHAMFERD
 40
0.0
  9
$SKPOLY
 70
0
  9
$TDCREATE
 40
2460451.6463078703
  9
$TDUCREATE
 40
2458532.153996898
  9
$TDUPDATE
 40
2460451.646388889
  9
$TDUUPDATE
 40
2458532.1544311
  9
$TDINDWG
 40
0.0
  9
$TDUSRTIMER
 40
0.0
  9
$USRTIMER
 70
1
  9
$ANGBASE
 50
0.0
  9
$ANGDIR
 70
0
  9
$PDMODE
 70
0
  9
$PDSIZE
 40
0.0
  9
$PLINEWID
 40
0.0
  9
$SPLFRAME
 70
0
  9
$SPLINETYPE
 70
6
  9
$SPLINESEGS
 70
8
  9
$HANDSEED
  5
3C
  9
$SURFTAB1
 70
6
  9
$SURFTAB2
 70
6
  9
$SURFTYPE
 70
6
  9
$SURFU
 70
6
  9
$SURFV
 70
6
  9
$UCSBASE
  2

  9
$UCSNAME
  2

  9
$UCSORG
 10
0.0
 20
0.0
 30
0.0
  9
$UCSXDIR
 10
1.0
 20
0.0
 30
0.0
  9
$UCSYDIR
 10
0.0
 20
1.0
 30
0.0
  9
$UCSORTHOREF
  2

  9
$UCSORTHOVIEW
 70
0
  9
$UCSORGTOP
 10
0.0
 20
0.0
 30
0.0
  9
$UCSORGBOTTOM
 10
0.0
 20
0.0
 30
0.0
  9
$UCSORGLEFT
 10
0.0
 20
0.0
 30
0.0
  9
$UCSORGRIGHT
 10
0.0
 20
0.0
 30
0.0
  9
$UCSORGFRONT
 10
0.0
 20
0.0
 30
0.0
  9
$UCSORGBACK
 10
0.0
 20
0.0
 30
0.0
  9
$PUCSBASE
  2

  9
$PUCSNAME
  2

  9
$PUCSORG
 10
0.0
 20
0.0
 30
0.0
  9
$PUCSXDIR
 10
1.0
 20
0.0
 30
0.0
  9
$PUCSYDIR
 10
0.0
 20
1.0
 30
0.0
  9
$PUCSORTHOREF
  2

  9
$PUCSORTHOVIEW
 70
0
  9
$PUCSORGTOP
 10
0.0
 20
0.0
 30
0.0
  9
$PUCSORGBOTTOM
 10
0.0
 20
0.0
 30
0.0
  9
$PUCSORGLEFT
 10
0.0
 20
0.0
 30
0.0
  9
$PUCSORGRIGHT
 10
0.0
 20
0.0
 30
0.0
  9
$PUCSORGFRONT
 10
0.0
 20
0.0
 30
0.0
  9
$PUCSORGBACK
 10
0.0
 20
0.0
 30
0.0
  9
$USERI1
 70
0
  9
$USERI2
 70
0
  9
$USERI3
 70
0
  9
$USERI4
 70
0
  9
$USERI5
 70
0
  9
$USERR1
 40
0.0
  9
$USERR2
 40
0.0
  9
$USERR3
 40
0.0
  9
$USERR4
 40
0.0
  9
$USERR5
 40
0.0
  9
$WORLDVIEW
 70
1
  9
$SHADEDGE
 70
3
  9
$SHADEDIF
 70
70
  9
$TILEMODE
 70
1
  9
$MAXACTVP
 70
64
  9
$PINSBASE
 10
0.0
 20
0.0
 30
0.0
  9
$PLIMCHECK
 70
0
  9
$PEXTMIN
 10
1e+20
 20
1e+20
 30
1e+20
  9
$PEXTMAX
 10
-1e+20
 20
-1e+20
 30
-1e+20
  9
$PLIMMIN
 10
0.0
 20
0.0
  9
$PLIMMAX
 10
420.0
 20
297.0
  9
$UNITMODE
 70
0
  9
$VISRETAIN
 70
1
  9
$PLINEGEN
 70
0
  9
$PSLTSCALE
 70
1
  9
$TREEDEPTH
 70
3020
  9
$CMLSTYLE
  2
Standard
  9
$CMLJUST
 70
0
  9
$CMLSCALE
 40
20.0
  9
$PROXYGRAPHICS
 70
1
  9
$MEASUREMENT
 70
1
  9
$CELWEIGHT
370
-1
  9
$ENDCAPS
280
0
  9
$JOINSTYLE
280
0
  9
$LWDISPLAY
290
0
  9
$INSUNITS
 70
6
  9
$HYPERLINKBASE
  1

  9
$STYLESHEET
  1

  9
$XEDIT
290
1
  9
$CEPSNTYPE
380
0
  9
$PSTYLEMODE
290
1
  9
$FINGERPRINTGUID
  2
{795C7772-DE32-47B6-AABE-B5AB43016919}
  9
$VERSIONGUID
  2
{43564286-AFFD-481A-BC8D-990964CA07CF}
  9
$EXTNAMES
290
1
  9
$PSVPSCALE
 40
0.0
  9
$OLESTARTUP
290
0
  0
ENDSEC
  0
SECTION
  2
CLASSES
  0
CLASS
  1
ACDBDICTIONARYWDFLT
  2
AcDbDictionaryWithDefault
  3
ObjectDBX Classes
 90
0
280
0
281
0
  0
CLASS
  1
SUN
  2
AcDbSun
  3
SCENEOE
 90
1153
280
0
281
0
  0
CLASS
  1
VISUALSTYLE
  2
AcDbVisualStyle
  3
ObjectDBX Classes
 90
4095
280
0
281
0
  0
CLASS
  1
MATERIAL
  2
AcDbMaterial
  3
ObjectDBX Classes
 90
1153
280
0
281
0
  0
CLASS
  1
SCALE
  2
AcDbScale
  3
ObjectDBX Classes
 90
1153
280
0
281
0
  0
CLASS
  1
TABLESTYLE
  2
AcDbTableStyle
  3
ObjectDBX Classes
 90
4095
280
0
281
0
  0
CLASS
  1
MLEADERSTYLE
  2
AcDbMLeaderStyle
  3
ACDB_MLEADERSTYLE_CLASS
 90
4095
280
0
281
0
  0
CLASS
  1
DICTIONARYVAR
  2
AcDbDictionaryVar
  3
ObjectDBX Classes
 90
0
280
0
281
0
  0
CLASS
  1
CELLSTYLEMAP
  2
AcDbCellStyleMap
  3
ObjectDBX Classes
 90
1152
280
0
281
0
  0
CLASS
  1
MENTALRAYRENDERSETTINGS
  2
AcDbMentalRayRenderSettings
  3
SCENEOE
 90
1024
280
0
281
0
  0
CLASS
  1
ACDBDETAILVIEWSTYLE
  2
AcDbDetailViewStyle
  3
ObjectDBX Classes
 90
1025
280
0
281
0
  0
CLASS
  1
ACDBSECTIONVIEWSTYLE
  2
AcDbSectionViewStyle
  3
ObjectDBX Classes
 90
1025
280
0
281
0
  0
CLASS
  1
RASTERVARIABLES
  2
AcDbRasterVariables
  3
ISM
 90
0
280
0
281
0
  0
CLASS
  1
ACDBPLACEHOLDER
  2
AcDbPlaceHolder
  3
ObjectDBX Classes
 90
0
280
0
281
0
  0
CLASS
  1
LAYOUT
  2
AcDbLayout
  3
ObjectDBX Classes
 90
0
280
0
281
0
  0
ENDSEC
  0
SECTION
  2
TABLES
  0
TABLE
  2
VPORT
  5
8
330
0
100
AcDbSymbolTable
 70
1
  0
VPORT
  5
23
330
8
100
AcDbSymbolTableRecord
100
AcDbViewportTableRecord
  2
*Active
 70
0
 10
0.0
 20
0.0
 11
1.0
 21
1.0
 12
0.0
 22
0.0
 13
0.0
 23
0.0
 14
0.5
 24
0.5
 15
0.5
 25
0.5
 16
0.0
 26
0.0
 36
1.0
 17
0.0
 27
0.0
 37
0.0
 40
1000.0
 41
1.34
 42
50.0
 43
0.0
 44
0.0
 50
0.0
 51
0.0
 71
0
 72
1000
 73
1
 74
3
 75
0
 76
0
 77
0
 78
0
281
0
 65
0
146
0.0
  0
ENDTAB
  0
TABLE
  2
LTYPE
  5
2
330
0
100
AcDbSymbolTable
 70
3
  0
LTYPE
  5
24
330
2
100
AcDbSymbolTableRecord
100
AcDbLinetypeTableRecord
  2
ByBlock
 70
0
  3

 72
65
 73
0
 40
0.0
  0
LTYPE
  5
25
330
2
100
AcDbSymbolTableRecord
100
AcDbLinetypeTableRecord
  2
ByLayer
 70
0
  3

 72
65
 73
0
 40
0.0
  0
LTYPE
  5
26
330
2
100
AcDbSymbolTableRecord
100
AcDbLinetypeTableRecord
  2
Continuous
 70
0
  3

 72
65
 73
0
 40
0.0
  0
ENDTAB
  0
TABLE
  2
LAYER
  5
1
330
0
100
AcDbSymbolTable
 70
2
  0
LAYER
  5
27
330
1
100
AcDbSymbolTableRecord
100
AcDbLayerTableRecord
  2
0
 70
0
 62
7
  6
Continuous
370
-3
390
13
  0
LAYER
  5
28
330
1
100
AcDbSymbolTableRecord
100
AcDbLayerTableRecord
  2
Defpoints
 70
0
 62
7
  6
Continuous
290
0
370
-3
390
13
  0
ENDTAB
  0
TABLE
  2
STYLE
  5
5
330
0
100
AcDbSymbolTable
 70
1
  0
STYLE
  5
29
330
5
100
AcDbSymbolTableRecord
100
AcDbTextStyleTableRecord
  2
Standard
 70
0
 40
0.0
 41
1.0
 50
0.0
 71
0
 42
2.5
  3
txt
  4

  0
ENDTAB
  0
TABLE
  2
VIEW
  5
7
330
0
100
AcDbSymbolTable
 70
0
  0
ENDTAB
  0
TABLE
  2
UCS
  5
6
330
0
100
AcDbSymbolTable
 70
0
  0
ENDTAB
  0
TABLE
  2
APPID
  5
3
330
0
100
AcDbSymbolTable
 70
3
  0
APPID
  5
2A
330
3
100
AcDbSymbolTableRecord
100
AcDbRegAppTableRecord
  2
ACAD
 70
0
  0
APPID
  5
39
330
3
100
AcDbSymbolTableRecord
100
AcDbRegAppTableRecord
  2
HATCHBACKGROUNDCOLOR
 70
0
  0
APPID
  5
3A
330
3
100
AcDbSymbolTableRecord
100
AcDbRegAppTableRecord
  2
EZDXF
 70
0
  0
ENDTAB
  0
TABLE
  2
DIMSTYLE
  5
4
330
0
100
AcDbSymbolTable
 70
1
100
AcDbDimStyleTable
  0
DIMSTYLE
105
2B
330
4
100
AcDbSymbolTableRecord
100
AcDbDimStyleTableRecord
  2
Standard
 70
0
  3

  4

 40
1.0
 41
2.5
 42
0.625
 43
3.75
 44
1.25
 45
0.0
 46
0.0
 47
0.0
 48
0.0
140
2.5
141
2.5
142
0.0
143
0.03937007874
144
1.0
145
0.0
146
1.0
147
0.625
148
0.0
 71
0
 72
0
 73
0
 74
0
 75
0
 76
0
 77
1
 78
8
 79
3
170
0
171
3
172
1
173
0
174
0
175
0
176
0
177
0
178
0
179
2
271
2
272
2
273
2
274
3
275
0
276
0
277
2
278
44
279
0
280
0
281
0
282
0
283
0
284
8
285
0
286
0
288
0
289
3
371
-2
372
-2
  0
ENDTAB
  0
TABLE
  2
BLOCK_RECORD
  5
9
330
0
100
AcDbSymbolTable
 70
2
  0
BLOCK_RECORD
  5
17
330
9
100
AcDbSymbolTableRecord
100
AcDbBlockTableRecord
  2
*Model_Space
340
1A
  0
BLOCK_RECORD
  5
1B
330
9
100
AcDbSymbolTableRecord
100
AcDbBlockTableRecord
  2
*Paper_Space
340
1E
  0
ENDTAB
  0
ENDSEC
  0
SECTION
  2
BLOCKS
  0
BLOCK
  5
18
330
17
100
AcDbEntity
  8
0
100
AcDbBlockBegin
  2
*Model_Space
 70
0
 10
0.0
 20
0.0
 30
0.0
  3
*Model_Space
  1

  0
ENDBLK
  5
19
330
17
100
AcDbEntity
  8
0
100
AcDbBlockEnd
  0
BLOCK
  5
1C
330
1B
100
AcDbEntity
  8
0
100
AcDbBlockBegin
  2
*Paper_Space
 70
0
 10
0.0
 20
0.0
 30
0.0
  3
*Paper_Space
  1

  0
ENDBLK
  5
1D
330
1B
100
AcDbEntity
  8
0
100
AcDbBlockEnd
  0
ENDSEC
  0
SECTION
  2
ENTITIES
  0
LWPOLYLINE
  5
30
330
17
100
AcDbEntity
  8
0
 62
6
100
AcDbPolyline
 90
42
 70
0
 10
62.65338983050848
 20
66.13861386138613
 10
53.056892655367236
 20
66.2046204620462
 10
52.88429378531074
 20
66.53465346534652
 10
52.74621468926554
 20
67.85478547854785
 10
50.951186440677965
 20
89.63696369636963
 10
50.81310734463277
 20
90.0990099009901
 10
50.84762711864407
 20
90.82508250825082
 10
50.502429378531076
 20
93.79537953795379
 10
50.15723163841808
 20
98.8118811881188
 10
50.26079096045198
 20
99.07590759075907
 10
52.67717514124294
 20
100.39603960396039
 10
53.574689265536726
 20
101.18811881188118
 10
54.12700564971752
 20
101.98019801980197
 10
54.817401129943505
 20
103.30033003300329
 10
55.2316384180791
 20
104.68646864686468
 10
55.3697175141243
 20
106.2046204620462
 10
55.3697175141243
 20
108.58085808580857
 10
54.88644067796611
 20
114.05940594059405
 10
54.023446327683615
 20
120.46204620462045
 10
51.50350282485876
 20
132.87128712871285
 10
56.060112994350284
 20
139.47194719471946
 10
56.26723163841808
 20
139.3399339933993
 10
56.81954802259887
 20
137.4917491749175
 10
58.33841807909605
 20
131.55115511551153
 10
60.09892655367232
 20
123.96039603960395
 10
60.23700564971752
 20
123.23432343234322
 10
60.13344632768362
 20
122.5082508250825
 10
60.444124293785315
 20
122.3102310231023
 10
63.274745762711866
 20
110.62706270627062
 10
65.20785310734463
 20
102.04620462046203
 10
65.55305084745763
 20
99.86798679867987
 10
65.55305084745763
 20
99.14191419141913
 10
65.27689265536723
 20
98.61386138613861
 10
65.62209039548023
 20
98.15181518151815
 10
65.65661016949153
 20
97.82178217821782
 10
65.48401129943502
 20
94.32343234323432
 10
64.20677966101695
 20
82.97029702970296
 10
63.89610169491526
 20
78.67986798679867
 10
63.758022598870056
 20
74.91749174917491
 10
63.82706214689266
 20
66.27062706270627
 10
62.65338983050848
 20
66.13861386138613
 10
62.65338983050848
 20
66.13861386138613
  0
LWPOLYLINE
  5
32
330
17
100
AcDbEntity
  8
0
 62
6
100
AcDbPolyline
 90
32
 70
0
 10
76.25418079096046
 20
65.74257425742573
 10
66.17440677966103
 20
66.66666666666666
 10
65.76016949152543
 20
66.73267326732673
 10
65.62209039548023
 20
66.99669966996699
 10
67.24451977401131
 20
75.77557755775577
 10
67.900395480226
 20
81.84818481848184
 10
68.62531073446328
 20
99.66996699669966
 10
68.90146892655368
 20
99.73597359735973
 10
69.35022598870057
 20
99.47194719471946
 10
71.21429378531074
 20
97.82178217821782
 10
72.80220338983051
 20
95.64356435643563
 10
73.665197740113
 20
94.12541254125412
 10
75.01146892655368
 20
90.56105610561055
 10
76.39225988700565
 20
84.88448844884488
 10
76.66841807909604
 20
84.48844884488449
 10
77.53141242937853
 20
84.42244224422441
 10
78.46344632768361
 20
84.48844884488449
 10
78.73960451977402
 20
84.88448844884488
 10
80.05135593220339
 20
90.03300330033002
 10
80.56915254237289
 20
91.55115511551155
 10
81.63926553672317
 20
93.99339933993399
 10
82.64033898305085
 20
95.84158415841583
 10
84.71152542372882
 20
98.34983498349834
 10
85.9542372881356
 20
99.33993399339933
 10
86.71367231638419
 20
99.66996699669966
 10
87.30050847457628
 20
82.11221122112211
 10
88.02542372881356
 20
75.3135313531353
 10
89.57881355932204
 20
66.73267326732673
 10
88.57774011299435
 20
66.4026402640264
 10
84.53892655367233
 20
66.07260726072607
 10
76.25418079096046
 20
65.74257425742573
 10
76.25418079096046
 20
65.74257425742573
  0
LWPOLYLINE
  5
34
330
17
100
AcDbEntity
  8
0
 62
6
100
AcDbPolyline
 90
52
 70
0
 10
32.310508474576274
 20
64.09240924092408
 10
32.13790960451978
 20
64.42244224422441
 10
32.103389830508476
 20
65.14851485148515
 10
31.93079096045198
 20
73.46534653465346
 10
31.585593220338986
 20
79.66996699669966
 10
31.20587570621469
 20
83.76237623762376
 10
30.273841807909605
 20
90.89108910891088
 10
30.446440677966102
 20
91.55115511551155
 10
30.13576271186441
 20
92.14521452145213
 10
29.825084745762712
 20
95.57755775577557
 10
29.825084745762712
 20
96.5016501650165
 10
29.963163841807912
 20
96.96369636963695
 10
29.790564971751415
 20
97.42574257425741
 10
29.859604519774013
 20
108.05280528052805
 10
29.687005649717516
 20
123.03630363036302
 10
29.790564971751415
 20
123.23432343234322
 10
30.411920903954805
 20
123.03630363036302
 10
31.654632768361584
 20
122.24422442244223
 10
32.897344632768366
 20
121.05610561056105
 10
33.93293785310735
 20
119.73597359735973
 10
35.03757062146893
 20
117.82178217821782
 10
35.900564971751415
 20
115.9075907590759
 10
36.7290395480226
 20
113.59735973597358
 10
38.04079096045198
 20
109.17491749174917
 10
39.80129943502825
 20
109.1089108910891
 10
40.491694915254236
 20
109.43894389438942
 10
41.94152542372881
 20
115.5115511551155
 10
42.562881355932205
 20
117.49174917491749
 10
43.322316384180795
 20
119.33993399339933
 10
44.11627118644068
 20
120.85808580858085
 10
45.22090395480226
 20
122.5082508250825
 10
46.360056497175144
 20
123.69636963696368
 10
47.913446327683616
 20
124.68646864686467
 10
48.6038418079096
 20
107.85478547854784
 10
49.1216384180791
 20
99.47194719471946
 10
49.0180790960452
 20
98.54785478547853
 10
49.156158192090395
 20
98.2178217821782
 10
49.190677966101696
 20
97.35973597359735
 10
49.0871186440678
 20
93.99339933993399
 10
48.88
 20
93.06930693069306
 10
48.949039548022604
 20
92.27722772277227
 10
48.189604519774015
 20
81.18811881188118
 10
48.12056497175141
 20
73.26732673267325
 10
48.224124293785316
 20
65.74257425742573
 10
48.05152542372882
 20
65.54455445544554
 10
44.04723163841808
 20
65.28052805280528
 10
40.491694915254236
 20
65.14851485148515
 10
40.250056497175144
 20
65.34653465346534
 10
39.93937853107345
 20
65.08250825082507
 10
38.38598870056497
 20
64.81848184818482
 10
32.310508474576274
 20
64.09240924092408
 10
32.310508474576274
 20
64.09240924092408
  0
LWPOLYLINE
  5
36
330
17
100
AcDbEntity
  8
0
 62
6
100
AcDbPolyline
 90
31
 70
0
 10
7.697909604519775
 20
62.97029702970296
 10
7.525310734463277
 20
63.36633663366336
 10
7.490790960451978
 20
63.89438943894389
 10
6.558757062146893
 20
96.89768976897689
 10
6.420677966101695
 20
115.3135313531353
 10
6.455197740112995
 20
127.19471947194718
 10
6.593276836158193
 20
127.45874587458745
 10
8.491864406779662
 20
127.78877887788778
 10
11.564124293785312
 20
128.9108910891089
 10
14.670903954802261
 20
131.02310231023102
 10
16.051694915254238
 20
132.4092409240924
 10
16.811129943502827
 20
133.5313531353135
 10
17.84672316384181
 20
135.64356435643563
 10
18.709717514124296
 20
138.08580858085807
 10
24.336440677966102
 20
134.98349834983497
 10
24.44
 20
134.78547854785478
 10
24.44
 20
133.66336633663366
 10
23.818644067796612
 20
121.45214521452144
 10
23.715084745762713
 20
113.53135313531352
 10
23.818644067796612
 20
104.42244224422441
 10
24.267401129943504
 20
100.52805280528052
 10
24.923276836158195
 20
98.67986798679867
 10
25.544632768361584
 20
97.68976897689768
 10
26.062429378531075
 20
97.16171617161716
 10
28.271694915254237
 20
95.57755775577557
 10
25.02683615819209
 20
69.5049504950495
 10
24.4054802259887
 20
63.762376237623755
 10
24.198361581920906
 20
63.49834983498349
 10
23.542485875706216
 20
63.432343234323426
 10
7.697909604519775
 20
62.97029702970296
 10
7.697909604519775
 20
62.97029702970296
  0
LWPOLYLINE
  5
38
330
17
100
AcDbEntity
  8
0
 62
6
100
AcDbPolyline
 90
67
 70
0
 10
103.8009604519774
 20
28.84488448844884
 10
103.66288135593221
 20
29.174917491749174
 10
102.97248587570623
 20
33.399339933993396
 10
102.28209039548022
 20
36.43564356435643
 10
101.03937853107345
 20
40.198019801980195
 10
98.83011299435029
 20
44.48844884488449
 10
94.65322033898306
 20
51.35313531353135
 10
93.03079096045198
 20
55.24752475247524
 10
91.4774011299435
 20
61.386138613861384
 10
91.27028248587571
 20
65.14851485148515
 10
91.33932203389831
 20
65.47854785478548
 10
91.5809604519774
 20
65.74257425742573
 10
91.27028248587571
 20
66.006600660066
 10
91.20124293785311
 20
66.27062706270627
 10
91.02864406779662
 20
68.9108910891089
 10
90.89056497175142
 20
78.48184818481847
 10
90.92508474576272
 20
84.48844884488449
 10
91.02864406779662
 20
86.33663366336633
 10
91.5809604519774
 20
86.6006600660066
 10
91.71903954802261
 20
86.86468646864685
 10
91.13220338983051
 20
87.19471947194718
 10
90.95960451977402
 20
87.59075907590758
 10
90.68344632768363
 20
92.93729372937293
 10
90.57988700564972
 20
99.47194719471946
 10
90.61440677966102
 20
110.36303630363035
 10
90.68344632768363
 20
111.8151815181518
 10
91.02864406779662
 20
112.34323432343233
 10
90.82152542372881
 20
112.6072607260726
 10
90.82152542372881
 20
113.13531353135312
 10
91.8571186440678
 20
118.08580858085807
 10
93.23790960451979
 20
121.9141914191419
 10
97.6564406779661
 20
130.4290429042904
 10
99.10627118644068
 20
133.46534653465346
 10
99.79666666666667
 20
135.3135313531353
 10
100.69418079096046
 20
139.07590759075907
 10
101.66073446327684
 20
145.74257425742573
 10
104.2842372881356
 20
144.8184818481848
 10
108.73728813559323
 20
142.77227722772275
 10
110.8429943502825
 20
141.45214521452144
 10
110.98107344632768
 20
141.12211221122112
 10
112.18926553672317
 20
134.85148514851483
 10
116.1590395480226
 20
110.42904290429041
 10
116.1245197740113
 20
109.90099009900989
 10
115.74480225988701
 20
109.5049504950495
 10
116.0554802259887
 20
109.1089108910891
 10
116.1590395480226
 20
108.7128712871287
 10
116.435197740113
 20
97.35973597359735
 10
116.4697175141243
 20
89.43894389438942
 10
116.4006779661017
 20
88.9108910891089
 10
116.0554802259887
 20
88.44884488448844
 10
116.435197740113
 20
88.11881188118811
 10
116.5042372881356
 20
87.85478547854785
 10
116.74587570621469
 20
75.3135313531353
 10
116.8839548022599
 20
73.13531353135313
 10
116.9184745762712
 20
68.11881188118811
 10
116.4697175141243
 20
67.45874587458745
 10
116.9875141242938
 20
66.93069306930693
 10
116.9875141242938
 20
66.4026402640264
 10
116.6423163841808
 20
64.02640264026402
 10
116.4006779661017
 20
60.46204620462046
 10
115.01988700564972
 20
48.18481848184818
 10
112.94870056497176
 20
34.65346534653465
 10
112.49994350282486
 20
34.12541254125412
 10
109.08248587570623
 20
31.815181518151814
 10
106.07926553672317
 20
29.966996699669963
 10
103.8009604519774
 20
28.84488448844884
 10
103.8009604519774
 20
28.84488448844884
  0
ENDSEC
  0
SECTION
  2
OBJECTS
  0
DICTIONARY
  5
A
330
0
100
AcDbDictionary
280
0
281
1
  3
ACAD_COLOR
350
B
  3
ACAD_GROUP
350
C
  3
ACAD_LAYOUT
350
D
  3
ACAD_MATERIAL
350
E
  3
ACAD_MLEADERSTYLE
350
F
  3
ACAD_MLINESTYLE
350
10
  3
ACAD_PLOTSETTINGS
350
11
  3
ACAD_PLOTSTYLENAME
350
12
  3
ACAD_SCALELIST
350
14
  3
ACAD_TABLESTYLE
350
15
  3
ACAD_VISUALSTYLE
350
16
  3
EZDXF_META
350
2D
  0
DICTIONARY
  5
B
330
A
100
AcDbDictionary
280
0
281
1
  0
DICTIONARY
  5
C
330
A
100
AcDbDictionary
280
0
281
1
  3
*A1
350
2F
  3
*A2
350
31
  3
*A3
350
33
  3
*A4
350
35
  3
*A5
350
37
  0
DICTIONARY
  5
D
330
A
100
AcDbDictionary
280
0
281
1
  3
Model
350
1A
  3
Layout1
350
1E
  0
DICTIONARY
  5
E
330
A
100
AcDbDictionary
280
0
281
1
  3
ByBlock
350
1F
  3
ByLayer
350
20
  3
Global
350
21
  0
DICTIONARY
  5
F
330
A
100
AcDbDictionary
280
0
281
1
  3
Standard
350
2C
  0
DICTIONARY
  5
10
330
A
100
AcDbDictionary
280
0
281
1
  3
Standard
350
22
  0
DICTIONARY
  5
11
330
A
100
AcDbDictionary
280
0
281
1
  0
ACDBDICTIONARYWDFLT
  5
12
330
A
100
AcDbDictionary
280
0
281
1
  3
Normal
350
13
100
AcDbDictionaryWithDefault
340
13
  0
ACDBPLACEHOLDER
  5
13
330
12
  0
DICTIONARY
  5
14
330
A
100
AcDbDictionary
280
0
281
1
  0
DICTIONARY
  5
15
330
A
100
AcDbDictionary
280
0
281
1
  0
DICTIONARY
  5
16
330
A
100
AcDbDictionary
280
0
281
1
  0
LAYOUT
  5
1A
330
D
100
AcDbPlotSettings
  1

  2
Adobe PDF
  4
A3
  6

 40
7.5
 41
20.0
 42
7.5
 43
20.0
 44
420.0
 45
297.0
 46
0.0
 47
0.0
 48
0.0
 49
0.0
140
0.0
141
0.0
142
1.0
143
1.0
 70
1024
 72
1
 73
0
 74
5
  7

 75
16
 76
0
 77
2
 78
300
147
1.0
148
0.0
149
0.0
100
AcDbLayout
  1
Model
 70
1
 71
0
 10
0.0
 20
0.0
 11
420.0
 21
297.0
 12
0.0
 22
0.0
 32
0.0
 14
1e+20
 24
1e+20
 34
1e+20
 15
-1e+20
 25
-1e+20
 35
-1e+20
146
0.0
 13
0.0
 23
0.0
 33
0.0
 16
1.0
 26
0.0
 36
0.0
 17
0.0
 27
1.0
 37
0.0
 76
1
330
17
  0
LAYOUT
  5
1E
330
D
100
AcDbPlotSettings
  1

  2
Adobe PDF
  4
A3
  6

 40
7.5
 41
20.0
 42
7.5
 43
20.0
 44
420.0
 45
297.0
 46
0.0
 47
0.0
 48
0.0
 49
0.0
140
0.0
141
0.0
142
1.0
143
1.0
 70
0
 72
1
 73
0
 74
5
  7

 75
16
 76
0
 77
2
 78
300
147
1.0
148
0.0
149
0.0
100
AcDbLayout
  1
Layout1
 70
1
 71
1
 10
0.0
 20
0.0
 11
420.0
 21
297.0
 12
0.0
 22
0.0
 32
0.0
 14
1e+20
 24
1e+20
 34
1e+20
 15
-1e+20
 25
-1e+20
 35
-1e+20
146
0.0
 13
0.0
 23
0.0
 33
0.0
 16
1.0
 26
0.0
 36
0.0
 17
0.0
 27
1.0
 37
0.0
 76
1
330
1B
  0
MATERIAL
  5
1F
102
{ACAD_REACTORS
330
E
102
}
330
E
100
AcDbMaterial
  1
ByBlock
  2

 70
0
 40
1.0
 71
1
 41
1.0
 91
-1023410177
 42
1.0
 72
1
  3

 73
1
 74
1
 75
1
 44
0.5
 73
0
 45
1.0
 46
1.0
 77
1
  4

 78
1
 79
1
170
1
 48
1.0
171
1
  6

172
1
173
1
174
1
140
1.0
141
1.0
175
1
  7

176
1
177
1
178
1
143
1.0
179
1
  8

270
1
271
1
272
1
145
1.0
146
1.0
273
1
  9

274
1
275
1
276
1
 42
1.0
 72
1
  3

 73
1
 74
1
 75
1
 94
63
  0
MATERIAL
  5
20
102
{ACAD_REACTORS
330
E
102
}
330
E
100
AcDbMaterial
  1
ByLayer
  2

 70
0
 40
1.0
 71
1
 41
1.0
 91
-1023410177
 42
1.0
 72
1
  3

 73
1
 74
1
 75
1
 44
0.5
 73
0
 45
1.0
 46
1.0
 77
1
  4

 78
1
 79
1
170
1
 48
1.0
171
1
  6

172
1
173
1
174
1
140
1.0
141
1.0
175
1
  7

176
1
177
1
178
1
143
1.0
179
1
  8

270
1
271
1
272
1
145
1.0
146
1.0
273
1
  9

274
1
275
1
276
1
 42
1.0
 72
1
  3

 73
1
 74
1
 75
1
 94
63
  0
MATERIAL
  5
21
102
{ACAD_REACTORS
330
E
102
}
330
E
100
AcDbMaterial
  1
Global
  2

 70
0
 40
1.0
 71
1
 41
1.0
 91
-1023410177
 42
1.0
 72
1
  3

 73
1
 74
1
 75
1
 44
0.5
 73
0
 45
1.0
 46
1.0
 77
1
  4

 78
1
 79
1
170
1
 48
1.0
171
1
  6

172
1
173
1
174
1
140
1.0
141
1.0
175
1
  7

176
1
177
1
178
1
143
1.0
179
1
  8

270
1
271
1
272
1
145
1.0
146
1.0
273
1
  9

274
1
275
1
276
1
 42
1.0
 72
1
  3

 73
1
 74
1
 75
1
 94
63
  0
MLINESTYLE
  5
22
102
{ACAD_REACTORS
330
10
102
}
330
10
100
AcDbMlineStyle
  2
Standard
 70
0
  3

 62
256
 51
90.0
 52
90.0
 71
2
 49
0.5
 62
256
  6
BYLAYER
 49
-0.5
 62
256
  6
BYLAYER
  0
MLEADERSTYLE
  5
2C
102
{ACAD_REACTORS
330
F
102
}
330
F
100
AcDbMLeaderStyle
179
2
170
2
171
1
172
0
 90
2
 40
0.0
 41
0.0
173
1
 91
-1056964608
 92
-2
290
1
 42
2.0
291
1
 43
8.0
  3
Standard
 44
4.0
300

342
29
174
1
175
1
176
0
178
1
 93
-1056964608
 45
4.0
292
0
297
0
 46
4.0
 94
-1056964608
 47
1.0
 49
1.0
140
1.0
294
1
141
0.0
177
0
142
1.0
295
0
296
0
143
3.75
271
0
272
9
273
9
  0
DICTIONARY
  5
2D
330
A
100
AcDbDictionary
281
1
  3
CREATED_BY_EZDXF
350
2E
  3
WRITTEN_BY_EZDXF
350
3B
  0
DICTIONARYVAR
  5
2E
330
2D
100
DictionaryVariables
280
0
  1
1.3.0 @ 2024-05-20T12:00:41.913542+00:00
  0
GROUP
  5
2F
102
{ACAD_REACTORS
330
C
102
}
330
C
100
AcDbGroup
300

 70
1
 71
1
  0
GROUP
  5
31
102
{ACAD_REACTORS
330
C
102
}
330
C
100
AcDbGroup
300

 70
1
 71
1
  0
GROUP
  5
33
102
{ACAD_REACTORS
330
C
102
}
330
C
100
AcDbGroup
300

 70
1
 71
1
  0
GROUP
  5
35
102
{ACAD_REACTORS
330
C
102
}
330
C
100
AcDbGroup
300

 70
1
 71
1
  0
GROUP
  5
37
102
{ACAD_REACTORS
330
C
102
}
330
C
100
AcDbGroup
300

 70
1
 71
1
  0
DICTIONARYVAR
  5
3B
330
2D
100
DictionaryVariables
280
0
  1
1.3.0 @ 2024-05-20T12:00:48.259988+00:00
  0
ENDSEC
  0
EOF
