  0
SECTION
  2
HEADER
  9
$ACADVER
  1
AC1015
  9
$ACADMAINTVER
 70
6
  9
$DWGCODEPAGE
  3
ANSI_1252
  9
$INSBASE
 10
0.0
 20
0.0
 30
0.0
  9
$EXTMIN
 10
1e+20
 20
1e+20
 30
1e+20
  9
$EXTMAX
 10
-1e+20
 20
-1e+20
 30
-1e+20
  9
$LIMMIN
 10
0.0
 20
0.0
  9
$LIMMAX
 10
420.0
 20
297.0
  9
$ORTHOMODE
 70
0
  9
$REGENMODE
 70
1
  9
$FILLMODE
 70
1
  9
$QTEXTMODE
 70
0
  9
$MIRRTEXT
 70
1
  9
$LTSCALE
 40
1.0
  9
$ATTMODE
 70
1
  9
$TEXTSIZE
 40
2.5
  9
$TRACEWID
 40
1.0
  9
$TEXTSTYLE
  7
Standard
  9
$CLAYER
  8
0
  9
$CELTYPE
  6
ByLayer
  9
$CECOLOR
 62
256
  9
$CELTSCALE
 40
1.0
  9
$DISPSILH
 70
0
  9
$DIMSCALE
 40
1.0
  9
$DIMASZ
 40
2.5
  9
$DIMEXO
 40
0.625
  9
$DIMDLI
 40
3.75
  9
$DIMRND
 40
0.0
  9
$DIMDLE
 40
0.0
  9
$DIMEXE
 40
1.25
  9
$DIMTP
 40
0.0
  9
$DIMTM
 40
0.0
  9
$DIMTXT
 40
2.5
  9
$DIMCEN
 40
2.5
  9
$DIMTSZ
 40
0.0
  9
$DIMTOL
 70
0
  9
$DIMLIM
 70
0
  9
$DIMTIH
 70
0
  9
$DIMTOH
 70
0
  9
$DIMSE1
 70
0
  9
$DIMSE2
 70
0
  9
$DIMTAD
 70
1
  9
$DIMZIN
 70
8
  9
$DIMBLK
  1

  9
$DIMASO
 70
1
  9
$DIMSHO
 70
1
  9
$DIMPOST
  1

  9
$DIMAPOST
  1

  9
$DIMALT
 70
0
  9
$DIMALTD
 70
3
  9
$DIMALTF
 40
0.03937007874
  9
$DIMLFAC
 40
1.0
  9
$DIMTOFL
 70
1
  9
$DIMTVP
 40
0.0
  9
$DIMTIX
 70
0
  9
$DIMSOXD
 70
0
  9
$DIMSAH
 70
0
  9
$DIMBLK1
  1

  9
$DIMBLK2
  1

  9
$DIMSTYLE
  2
ISO-25
  9
$DIMCLRD
 70
0
  9
$DIMCLRE
 70
0
  9
$DIMCLRT
 70
0
  9
$DIMTFAC
 40
1.0
  9
$DIMGAP
 40
0.625
  9
$DIMJUST
 70
0
  9
$DIMSD1
 70
0
  9
$DIMSD2
 70
0
  9
$DIMTOLJ
 70
0
  9
$DIMTZIN
 70
8
  9
$DIMALTZ
 70
0
  9
$DIMALTTZ
 70
0
  9
$DIMUPT
 70
0
  9
$DIMDEC
 70
2
  9
$DIMTDEC
 70
2
  9
$DIMALTU
 70
2
  9
$DIMALTTD
 70
3
  9
$DIMTXSTY
  7
Standard
  9
$DIMAUNIT
 70
0
  9
$DIMADEC
 70
0
  9
$DIMALTRND
 40
0.0
  9
$DIMAZIN
 70
0
  9
$DIMDSEP
 70
44
  9
$DIMATFIT
 70
3
  9
$DIMFRAC
 70
0
  9
$DIMLDRBLK
  1

  9
$DIMLUNIT
 70
2
  9
$DIMLWD
 70
-2
  9
$DIMLWE
 70
-2
  9
$DIMTMOVE
 70
0
  9
$LUNITS
 70
2
  9
$LUPREC
 70
4
  9
$SKETCHINC
 40
1.0
  9
$FILLETRAD
 40
10.0
  9
$AUNITS
 70
0
  9
$AUPREC
 70
2
  9
$MENU
  1
.
  9
$ELEVATION
 40
0.0
  9
$PELEVATION
 40
0.0
  9
$THICKNESS
 40
0.0
  9
$LIMCHECK
 70
0
  9
$CHAMFERA
 40
0.0
  9
$CHAMFERB
 40
0.0
  9
$CHAMFERC
 40
0.0
  9
$CHAMFERD
 40
0.0
  9
$SKPOLY
 70
0
  9
$TDCREATE
 40
2460453.375787037
  9
$TDUCREATE
 40
2458532.153996898
  9
$TDUPDATE
 40
2460453.3758564815
  9
$TDUUPDATE
 40
2458532.1544311
  9
$TDINDWG
 40
0.0
  9
$TDUSRTIMER
 40
0.0
  9
$USRTIMER
 70
1
  9
$ANGBASE
 50
0.0
  9
$ANGDIR
 70
0
  9
$PDMODE
 70
0
  9
$PDSIZE
 40
0.0
  9
$PLINEWID
 40
0.0
  9
$SPLFRAME
 70
0
  9
$SPLINETYPE
 70
6
  9
$SPLINESEGS
 70
8
  9
$HANDSEED
  5
D5
  9
$SURFTAB1
 70
6
  9
$SURFTAB2
 70
6
  9
$SURFTYPE
 70
6
  9
$SURFU
 70
6
  9
$SURFV
 70
6
  9
$UCSBASE
  2

  9
$UCSNAME
  2

  9
$UCSORG
 10
0.0
 20
0.0
 30
0.0
  9
$UCSXDIR
 10
1.0
 20
0.0
 30
0.0
  9
$UCSYDIR
 10
0.0
 20
1.0
 30
0.0
  9
$UCSORTHOREF
  2

  9
$UCSORTHOVIEW
 70
0
  9
$UCSORGTOP
 10
0.0
 20
0.0
 30
0.0
  9
$UCSORGBOTTOM
 10
0.0
 20
0.0
 30
0.0
  9
$UCSORGLEFT
 10
0.0
 20
0.0
 30
0.0
  9
$UCSORGRIGHT
 10
0.0
 20
0.0
 30
0.0
  9
$UCSORGFRONT
 10
0.0
 20
0.0
 30
0.0
  9
$UCSORGBACK
 10
0.0
 20
0.0
 30
0.0
  9
$PUCSBASE
  2

  9
$PUCSNAME
  2

  9
$PUCSORG
 10
0.0
 20
0.0
 30
0.0
  9
$PUCSXDIR
 10
1.0
 20
0.0
 30
0.0
  9
$PUCSYDIR
 10
0.0
 20
1.0
 30
0.0
  9
$PUCSORTHOREF
  2

  9
$PUCSORTHOVIEW
 70
0
  9
$PUCSORGTOP
 10
0.0
 20
0.0
 30
0.0
  9
$PUCSORGBOTTOM
 10
0.0
 20
0.0
 30
0.0
  9
$PUCSORGLEFT
 10
0.0
 20
0.0
 30
0.0
  9
$PUCSORGRIGHT
 10
0.0
 20
0.0
 30
0.0
  9
$PUCSORGFRONT
 10
0.0
 20
0.0
 30
0.0
  9
$PUCSORGBACK
 10
0.0
 20
0.0
 30
0.0
  9
$USERI1
 70
0
  9
$USERI2
 70
0
  9
$USERI3
 70
0
  9
$USERI4
 70
0
  9
$USERI5
 70
0
  9
$USERR1
 40
0.0
  9
$USERR2
 40
0.0
  9
$USERR3
 40
0.0
  9
$USERR4
 40
0.0
  9
$USERR5
 40
0.0
  9
$WORLDVIEW
 70
1
  9
$SHADEDGE
 70
3
  9
$SHADEDIF
 70
70
  9
$TILEMODE
 70
1
  9
$MAXACTVP
 70
64
  9
$PINSBASE
 10
0.0
 20
0.0
 30
0.0
  9
$PLIMCHECK
 70
0
  9
$PEXTMIN
 10
1e+20
 20
1e+20
 30
1e+20
  9
$PEXTMAX
 10
-1e+20
 20
-1e+20
 30
-1e+20
  9
$PLIMMIN
 10
0.0
 20
0.0
  9
$PLIMMAX
 10
420.0
 20
297.0
  9
$UNITMODE
 70
0
  9
$VISRETAIN
 70
1
  9
$PLINEGEN
 70
0
  9
$PSLTSCALE
 70
1
  9
$TREEDEPTH
 70
3020
  9
$CMLSTYLE
  2
Standard
  9
$CMLJUST
 70
0
  9
$CMLSCALE
 40
20.0
  9
$PROXYGRAPHICS
 70
1
  9
$MEASUREMENT
 70
1
  9
$CELWEIGHT
370
-1
  9
$ENDCAPS
280
0
  9
$JOINSTYLE
280
0
  9
$LWDISPLAY
290
0
  9
$INSUNITS
 70
6
  9
$HYPERLINKBASE
  1

  9
$STYLESHEET
  1

  9
$XEDIT
290
1
  9
$CEPSNTYPE
380
0
  9
$PSTYLEMODE
290
1
  9
$FINGERPRINTGUID
  2
{8CA41F88-7C6F-4878-A3FC-464FA41ECA80}
  9
$VERSIONGUID
  2
{7039A52A-6B79-4C7D-B0E0-1B54F46713D9}
  9
$EXTNAMES
290
1
  9
$PSVPSCALE
 40
0.0
  9
$OLESTARTUP
290
0
  0
ENDSEC
  0
SECTION
  2
CLASSES
  0
CLASS
  1
ACDBDICTIONARYWDFLT
  2
AcDbDictionaryWithDefault
  3
ObjectDBX Classes
 90
0
280
0
281
0
  0
CLASS
  1
SUN
  2
AcDbSun
  3
SCENEOE
 90
1153
280
0
281
0
  0
CLASS
  1
VISUALSTYLE
  2
AcDbVisualStyle
  3
ObjectDBX Classes
 90
4095
280
0
281
0
  0
CLASS
  1
MATERIAL
  2
AcDbMaterial
  3
ObjectDBX Classes
 90
1153
280
0
281
0
  0
CLASS
  1
SCALE
  2
AcDbScale
  3
ObjectDBX Classes
 90
1153
280
0
281
0
  0
CLASS
  1
TABLESTYLE
  2
AcDbTableStyle
  3
ObjectDBX Classes
 90
4095
280
0
281
0
  0
CLASS
  1
MLEADERSTYLE
  2
AcDbMLeaderStyle
  3
ACDB_MLEADERSTYLE_CLASS
 90
4095
280
0
281
0
  0
CLASS
  1
DICTIONARYVAR
  2
AcDbDictionaryVar
  3
ObjectDBX Classes
 90
0
280
0
281
0
  0
CLASS
  1
CELLSTYLEMAP
  2
AcDbCellStyleMap
  3
ObjectDBX Classes
 90
1152
280
0
281
0
  0
CLASS
  1
MENTALRAYRENDERSETTINGS
  2
AcDbMentalRayRenderSettings
  3
SCENEOE
 90
1024
280
0
281
0
  0
CLASS
  1
ACDBDETAILVIEWSTYLE
  2
AcDbDetailViewStyle
  3
ObjectDBX Classes
 90
1025
280
0
281
0
  0
CLASS
  1
ACDBSECTIONVIEWSTYLE
  2
AcDbSectionViewStyle
  3
ObjectDBX Classes
 90
1025
280
0
281
0
  0
CLASS
  1
RASTERVARIABLES
  2
AcDbRasterVariables
  3
ISM
 90
0
280
0
281
0
  0
CLASS
  1
ACDBPLACEHOLDER
  2
AcDbPlaceHolder
  3
ObjectDBX Classes
 90
0
280
0
281
0
  0
CLASS
  1
LAYOUT
  2
AcDbLayout
  3
ObjectDBX Classes
 90
0
280
0
281
0
  0
ENDSEC
  0
SECTION
  2
TABLES
  0
TABLE
  2
VPORT
  5
8
330
0
100
AcDbSymbolTable
 70
1
  0
VPORT
  5
23
330
8
100
AcDbSymbolTableRecord
100
AcDbViewportTableRecord
  2
*Active
 70
0
 10
0.0
 20
0.0
 11
1.0
 21
1.0
 12
0.0
 22
0.0
 13
0.0
 23
0.0
 14
0.5
 24
0.5
 15
0.5
 25
0.5
 16
0.0
 26
0.0
 36
1.0
 17
0.0
 27
0.0
 37
0.0
 40
1000.0
 41
1.34
 42
50.0
 43
0.0
 44
0.0
 50
0.0
 51
0.0
 71
0
 72
1000
 73
1
 74
3
 75
0
 76
0
 77
0
 78
0
281
0
 65
0
146
0.0
  0
ENDTAB
  0
TABLE
  2
LTYPE
  5
2
330
0
100
AcDbSymbolTable
 70
3
  0
LTYPE
  5
24
330
2
100
AcDbSymbolTableRecord
100
AcDbLinetypeTableRecord
  2
ByBlock
 70
0
  3

 72
65
 73
0
 40
0.0
  0
LTYPE
  5
25
330
2
100
AcDbSymbolTableRecord
100
AcDbLinetypeTableRecord
  2
ByLayer
 70
0
  3

 72
65
 73
0
 40
0.0
  0
LTYPE
  5
26
330
2
100
AcDbSymbolTableRecord
100
AcDbLinetypeTableRecord
  2
Continuous
 70
0
  3

 72
65
 73
0
 40
0.0
  0
ENDTAB
  0
TABLE
  2
LAYER
  5
1
330
0
100
AcDbSymbolTable
 70
2
  0
LAYER
  5
27
330
1
100
AcDbSymbolTableRecord
100
AcDbLayerTableRecord
  2
0
 70
0
 62
7
  6
Continuous
370
-3
390
13
  0
LAYER
  5
28
330
1
100
AcDbSymbolTableRecord
100
AcDbLayerTableRecord
  2
Defpoints
 70
0
 62
7
  6
Continuous
290
0
370
-3
390
13
  0
ENDTAB
  0
TABLE
  2
STYLE
  5
5
330
0
100
AcDbSymbolTable
 70
1
  0
STYLE
  5
29
330
5
100
AcDbSymbolTableRecord
100
AcDbTextStyleTableRecord
  2
Standard
 70
0
 40
0.0
 41
1.0
 50
0.0
 71
0
 42
2.5
  3
txt
  4

  0
ENDTAB
  0
TABLE
  2
VIEW
  5
7
330
0
100
AcDbSymbolTable
 70
0
  0
ENDTAB
  0
TABLE
  2
UCS
  5
6
330
0
100
AcDbSymbolTable
 70
0
  0
ENDTAB
  0
TABLE
  2
APPID
  5
3
330
0
100
AcDbSymbolTable
 70
3
  0
APPID
  5
2A
330
3
100
AcDbSymbolTableRecord
100
AcDbRegAppTableRecord
  2
ACAD
 70
0
  0
APPID
  5
D2
330
3
100
AcDbSymbolTableRecord
100
AcDbRegAppTableRecord
  2
HATCHBACKGROUNDCOLOR
 70
0
  0
APPID
  5
D3
330
3
100
AcDbSymbolTableRecord
100
AcDbRegAppTableRecord
  2
EZDXF
 70
0
  0
ENDTAB
  0
TABLE
  2
DIMSTYLE
  5
4
330
0
100
AcDbSymbolTable
 70
1
100
AcDbDimStyleTable
  0
DIMSTYLE
105
2B
330
4
100
AcDbSymbolTableRecord
100
AcDbDimStyleTableRecord
  2
Standard
 70
0
  3

  4

 40
1.0
 41
2.5
 42
0.625
 43
3.75
 44
1.25
 45
0.0
 46
0.0
 47
0.0
 48
0.0
140
2.5
141
2.5
142
0.0
143
0.03937007874
144
1.0
145
0.0
146
1.0
147
0.625
148
0.0
 71
0
 72
0
 73
0
 74
0
 75
0
 76
0
 77
1
 78
8
 79
3
170
0
171
3
172
1
173
0
174
0
175
0
176
0
177
0
178
0
179
2
271
2
272
2
273
2
274
3
275
0
276
0
277
2
278
44
279
0
280
0
281
0
282
0
283
0
284
8
285
0
286
0
288
0
289
3
371
-2
372
-2
  0
ENDTAB
  0
TABLE
  2
BLOCK_RECORD
  5
9
330
0
100
AcDbSymbolTable
 70
2
  0
BLOCK_RECORD
  5
17
330
9
100
AcDbSymbolTableRecord
100
AcDbBlockTableRecord
  2
*Model_Space
340
1A
  0
BLOCK_RECORD
  5
1B
330
9
100
AcDbSymbolTableRecord
100
AcDbBlockTableRecord
  2
*Paper_Space
340
1E
  0
ENDTAB
  0
ENDSEC
  0
SECTION
  2
BLOCKS
  0
BLOCK
  5
18
330
17
100
AcDbEntity
  8
0
100
AcDbBlockBegin
  2
*Model_Space
 70
0
 10
0.0
 20
0.0
 30
0.0
  3
*Model_Space
  1

  0
ENDBLK
  5
19
330
17
100
AcDbEntity
  8
0
100
AcDbBlockEnd
  0
BLOCK
  5
1C
330
1B
100
AcDbEntity
  8
0
100
AcDbBlockBegin
  2
*Paper_Space
 70
0
 10
0.0
 20
0.0
 30
0.0
  3
*Paper_Space
  1

  0
ENDBLK
  5
1D
330
1B
100
AcDbEntity
  8
0
100
AcDbBlockEnd
  0
ENDSEC
  0
SECTION
  2
ENTITIES
  0
LWPOLYLINE
  5
30
330
17
100
AcDbEntity
  8
0
 62
6
100
AcDbPolyline
 90
2
 70
0
 10
13.630733229329174
 20
54.25443458980044
 10
13.154134165366614
 20
55.701219512195124
  0
LWPOLYLINE
  5
31
330
17
100
AcDbEntity
  8
0
 62
6
100
AcDbPolyline
 90
2
 70
0
 10
13.154134165366614
 20
55.701219512195124
 10
4.861310452418096
 20
55.84589800443459
  0
LWPOLYLINE
  5
32
330
17
100
AcDbEntity
  8
0
 62
6
100
AcDbPolyline
 90
2
 70
0
 10
4.861310452418096
 20
55.84589800443459
 10
13.20179407176287
 20
55.701219512195124
  0
LWPOLYLINE
  5
33
330
17
100
AcDbEntity
  8
0
 62
6
100
AcDbPolyline
 90
2
 70
0
 10
13.20179407176287
 20
55.701219512195124
 10
13.630733229329174
 20
54.25443458980044
  0
LWPOLYLINE
  5
34
330
17
100
AcDbEntity
  8
0
 62
6
100
AcDbPolyline
 90
2
 70
0
 10
13.630733229329174
 20
54.25443458980044
 10
14.488611544461778
 20
54.92960088691796
  0
LWPOLYLINE
  5
35
330
17
100
AcDbEntity
  8
0
 62
6
100
AcDbPolyline
 90
2
 70
0
 10
14.488611544461778
 20
54.92960088691796
 10
13.487753510140406
 20
54.83314855875832
  0
LWPOLYLINE
  5
36
330
17
100
AcDbEntity
  8
0
 62
6
100
AcDbPolyline
 90
2
 70
0
 10
13.487753510140406
 20
54.83314855875832
 10
13.487753510140406
 20
55.604767184035474
  0
LWPOLYLINE
  5
37
330
17
100
AcDbEntity
  8
0
 62
6
100
AcDbPolyline
 90
2
 70
0
 10
13.487753510140406
 20
55.604767184035474
 10
15.680109204368174
 20
55.94235033259424
  0
SPLINE
  5
38
330
17
100
AcDbEntity
  8
0
 62
4
100
AcDbSpline
 70
0
 71
3
 72
0
 73
0
 74
5
 11
15.680109204368174
 21
55.94235033259424
 31
0.0
 11
11.247737909516381
 21
55.94235033259424
 31
0.0
 11
8.9600624024961
 21
56.47283813747228
 31
0.0
 11
4.384711388455538
 21
56.13525498891352
 31
0.0
 11
1.286817472698908
 21
57.5820399113082
 31
0.0
  0
LWPOLYLINE
  5
39
330
17
100
AcDbEntity
  8
0
 62
6
100
AcDbPolyline
 90
2
 70
0
 10
1.286817472698908
 20
57.5820399113082
 10
1.5727769110764431
 20
58.88414634146341
  0
LWPOLYLINE
  5
3A
330
17
100
AcDbEntity
  8
0
 62
5
100
AcDbPolyline
 90
3
 70
0
 10
1.5727769110764431
 20
58.88414634146341
 10
21.5899375975039
 20
58.73946784922395
 10
22.114196567862713
 20
58.932372505543235
  0
LWPOLYLINE
  5
3B
330
17
100
AcDbEntity
  8
0
 62
6
100
AcDbPolyline
 90
2
 70
0
 10
22.114196567862713
 20
58.932372505543235
 10
21.542277691107643
 20
60.86141906873614
  0
LWPOLYLINE
  5
3C
330
17
100
AcDbEntity
  8
0
 62
6
100
AcDbPolyline
 90
2
 70
0
 10
21.542277691107643
 20
60.86141906873614
 10
22.114196567862713
 20
58.980598669623056
  0
SPLINE
  5
3D
330
17
100
AcDbEntity
  8
0
 62
4
100
AcDbSpline
 70
0
 71
3
 72
0
 73
0
 74
4
 11
22.114196567862713
 21
58.980598669623056
 31
0.0
 11
21.5899375975039
 21
58.73946784922395
 31
0.0
 11
3.193213728549142
 21
58.78769401330377
 31
0.0
 11
1.8110764430577222
 21
59.17350332594235
 31
0.0
  0
LWPOLYLINE
  5
3E
330
17
100
AcDbEntity
  8
0
 62
6
100
AcDbPolyline
 90
2
 70
0
 10
1.8110764430577222
 20
59.17350332594235
 10
1.2391575663026522
 20
57.67849223946785
  0
LWPOLYLINE
  5
3F
330
17
100
AcDbEntity
  8
0
 62
6
100
AcDbPolyline
 90
2
 70
0
 10
1.2391575663026522
 20
57.67849223946785
 10
4.384711388455538
 20
56.13525498891352
  0
SPLINE
  5
40
330
17
100
AcDbEntity
  8
0
 62
4
100
AcDbSpline
 70
0
 71
3
 72
0
 73
0
 74
4
 11
4.384711388455538
 21
56.13525498891352
 31
0.0
 11
9.007722308892356
 21
56.47283813747228
 31
0.0
 11
11.247737909516381
 21
55.94235033259424
 31
0.0
 11
15.72776911076443
 21
55.94235033259424
 31
0.0
  0
LWPOLYLINE
  5
41
330
17
100
AcDbEntity
  8
0
 62
6
100
AcDbPolyline
 90
2
 70
0
 10
15.72776911076443
 20
55.94235033259424
 10
13.535413416536661
 20
55.604767184035474
  0
LWPOLYLINE
  5
42
330
17
100
AcDbEntity
  8
0
 62
6
100
AcDbPolyline
 90
2
 70
0
 10
13.535413416536661
 20
55.604767184035474
 10
13.583073322932917
 20
54.78492239467849
  0
LWPOLYLINE
  5
43
330
17
100
AcDbEntity
  8
0
 62
6
100
AcDbPolyline
 90
2
 70
0
 10
13.583073322932917
 20
54.78492239467849
 10
14.488611544461778
 20
54.97782705099778
  0
LWPOLYLINE
  5
44
330
17
100
AcDbEntity
  8
0
 62
6
100
AcDbPolyline
 90
2
 70
0
 10
14.488611544461778
 20
54.97782705099778
 10
13.630733229329174
 20
54.25443458980044
  0
LWPOLYLINE
  5
46
330
17
100
AcDbEntity
  8
0
 62
6
100
AcDbPolyline
 90
2
 70
0
 10
65.86599063962558
 20
35.25332594235033
 10
55.42847113884555
 20
36.121396895787136
  0
LWPOLYLINE
  5
47
330
17
100
AcDbEntity
  8
0
 62
6
100
AcDbPolyline
 90
2
 70
0
 10
55.42847113884555
 20
36.121396895787136
 10
56.42932917316693
 20
45.57372505543237
  0
LWPOLYLINE
  5
48
330
17
100
AcDbEntity
  8
0
 62
6
100
AcDbPolyline
 90
2
 70
0
 10
56.42932917316693
 20
45.57372505543237
 10
57.57316692667707
 20
45.76662971175166
  0
SPLINE
  5
49
330
17
100
AcDbEntity
  8
0
 62
4
100
AcDbSpline
 70
0
 71
3
 72
0
 73
0
 74
5
 11
57.57316692667707
 21
45.76662971175166
 31
0.0
 11
59.19360374414976
 21
48.563747228381374
 31
0.0
 11
61.481279251170044
 21
50.87860310421286
 31
0.0
 11
65.38939157566303
 21
52.71119733924612
 31
0.0
 11
65.91365054602184
 21
52.71119733924612
 31
0.0
  0
LWPOLYLINE
  5
4A
330
17
100
AcDbEntity
  8
0
 62
5
100
AcDbPolyline
 90
3
 70
0
 10
65.91365054602184
 20
52.71119733924612
 10
65.72301092043682
 20
41.23337028824834
 10
66.96216848673947
 20
35.494456762749444
  0
LWPOLYLINE
  5
4B
330
17
100
AcDbEntity
  8
0
 62
6
100
AcDbPolyline
 90
2
 70
0
 10
66.96216848673947
 20
35.494456762749444
 10
65.86599063962558
 20
35.25332594235033
  0
LWPOLYLINE
  5
4D
330
17
100
AcDbEntity
  8
0
 62
6
100
AcDbPolyline
 90
2
 70
0
 10
45.94414976599064
 20
34.77106430155211
 10
45.32457098283931
 20
35.108647450110865
  0
LWPOLYLINE
  5
4E
330
17
100
AcDbEntity
  8
0
 62
6
100
AcDbPolyline
 90
2
 70
0
 10
45.32457098283931
 20
35.108647450110865
 10
44.18073322932917
 20
57.77494456762749
  0
LWPOLYLINE
  5
4F
330
17
100
AcDbEntity
  8
0
 62
6
100
AcDbPolyline
 90
2
 70
0
 10
44.18073322932917
 20
57.77494456762749
 10
45.51521060842433
 20
58.25720620842572
  0
SPLINE
  5
50
330
17
100
AcDbEntity
  8
0
 62
4
100
AcDbSpline
 70
0
 71
3
 72
0
 73
0
 74
4
 11
45.51521060842433
 21
58.25720620842572
 31
0.0
 11
47.2786271450858
 21
62.16352549889135
 31
0.0
 11
49.08970358814352
 21
64.23725055432372
 31
0.0
 11
52.71185647425897
 21
66.26274944567628
 31
0.0
  0
SPLINE
  5
51
330
17
100
AcDbEntity
  8
0
 62
4
100
AcDbSpline
 70
0
 71
3
 72
0
 73
0
 74
4
 11
52.71185647425897
 21
66.26274944567628
 31
0.0
 11
53.99867394695788
 21
51.98780487804878
 31
0.0
 11
52.997815912636504
 21
42.87305986696231
 31
0.0
 11
53.14079563182527
 21
35.060421286031044
 31
0.0
  0
LWPOLYLINE
  5
52
330
17
100
AcDbEntity
  8
0
 62
6
100
AcDbPolyline
 90
2
 70
0
 10
53.14079563182527
 20
35.060421286031044
 10
45.94414976599064
 20
34.77106430155211
  0
LWPOLYLINE
  5
54
330
17
100
AcDbEntity
  8
0
 62
6
100
AcDbPolyline
 90
2
 70
0
 10
9.960920436817473
 20
34.48170731707317
 10
4.384711388455538
 20
36.50720620842572
  0
SPLINE
  5
55
330
17
100
AcDbEntity
  8
0
 62
4
100
AcDbSpline
 70
0
 71
3
 72
0
 73
0
 74
4
 11
4.384711388455538
 21
36.50720620842572
 31
0.0
 11
5.671528861154446
 21
50.251662971175165
 31
0.0
 11
5.528549141965678
 21
54.061529933481154
 31
0.0
 11
4.765990639625585
 21
55.749445676274945
 31
0.0
  0
SPLINE
  5
56
330
17
100
AcDbEntity
  8
0
 62
4
100
AcDbSpline
 70
0
 71
3
 72
0
 73
0
 74
4
 11
4.765990639625585
 21
55.749445676274945
 31
0.0
 11
5.528549141965678
 21
54.061529933481154
 31
0.0
 11
5.671528861154446
 21
50.251662971175165
 31
0.0
 11
4.575351014040562
 21
36.31430155210643
 31
0.0
  0
LWPOLYLINE
  5
57
330
17
100
AcDbEntity
  8
0
 62
6
100
AcDbPolyline
 90
2
 70
0
 10
4.575351014040562
 20
36.31430155210643
 10
10.10390015600624
 20
34.48170731707317
  0
SPLINE
  5
58
330
17
100
AcDbEntity
  8
0
 62
4
100
AcDbSpline
 70
0
 71
3
 72
0
 73
0
 74
5
 11
10.10390015600624
 21
34.48170731707317
 31
0.0
 11
11.962636505460218
 21
36.748337028824835
 31
0.0
 11
14.393291731669267
 21
38.19512195121951
 31
0.0
 11
17.872464898595943
 21
39.20787139689579
 31
0.0
 11
22.686115444617784
 21
39.69013303769401
 31
0.0
  0
LWPOLYLINE
  5
59
330
17
100
AcDbEntity
  8
0
 62
5
100
AcDbPolyline
 90
3
 70
0
 10
22.686115444617784
 20
39.69013303769401
 10
23.067394695787833
 20
56.713968957871394
 10
22.543135725429018
 20
73.73780487804878
  0
LWPOLYLINE
  5
5A
330
17
100
AcDbEntity
  8
0
 62
6
100
AcDbPolyline
 90
2
 70
0
 10
22.543135725429018
 20
73.73780487804878
 10
5.623868954758191
 20
74.12361419068736
  0
LWPOLYLINE
  5
5B
330
17
100
AcDbEntity
  8
0
 62
6
100
AcDbPolyline
 90
2
 70
0
 10
5.623868954758191
 20
74.12361419068736
 10
1.8110764430577222
 20
59.607538802660756
  0
LWPOLYLINE
  5
5C
330
17
100
AcDbEntity
  8
0
 62
6
100
AcDbPolyline
 90
2
 70
0
 10
1.8110764430577222
 20
59.607538802660756
 10
2.3353354134165367
 20
59.26995565410199
  0
LWPOLYLINE
  5
5D
330
17
100
AcDbEntity
  8
0
 62
6
100
AcDbPolyline
 90
2
 70
0
 10
2.3353354134165367
 20
59.26995565410199
 10
3.2408736349453977
 20
59.511086474501106
  0
LWPOLYLINE
  5
5E
330
17
100
AcDbEntity
  8
0
 62
6
100
AcDbPolyline
 90
2
 70
0
 10
3.2408736349453977
 20
59.511086474501106
 10
3.6698127925117006
 20
60.95787139689578
  0
LWPOLYLINE
  5
5F
330
17
100
AcDbEntity
  8
0
 62
6
100
AcDbPolyline
 90
2
 70
0
 10
3.6698127925117006
 20
60.95787139689578
 10
3.765132605304212
 20
59.41463414634146
  0
LWPOLYLINE
  5
60
330
17
100
AcDbEntity
  8
0
 62
5
100
AcDbPolyline
 90
3
 70
0
 10
3.765132605304212
 20
59.41463414634146
 10
6.624726989079563
 20
60.33093126385809
 10
10.34219968798752
 20
60.041574279379155
  0
LWPOLYLINE
  5
61
330
17
100
AcDbEntity
  8
0
 62
6
100
AcDbPolyline
 90
2
 70
0
 10
10.34219968798752
 20
60.041574279379155
 10
11.057098283931357
 20
60.52383592017738
  0
LWPOLYLINE
  5
62
330
17
100
AcDbEntity
  8
0
 62
6
100
AcDbPolyline
 90
2
 70
0
 10
11.057098283931357
 20
60.52383592017738
 10
12.820514820592823
 20
59.65576496674058
  0
LWPOLYLINE
  5
63
330
17
100
AcDbEntity
  8
0
 62
6
100
AcDbPolyline
 90
2
 70
0
 10
12.820514820592823
 20
59.65576496674058
 10
14.631591263650545
 20
60.42738359201774
  0
LWPOLYLINE
  5
64
330
17
100
AcDbEntity
  8
0
 62
6
100
AcDbPolyline
 90
2
 70
0
 10
14.631591263650545
 20
60.42738359201774
 10
15.441809672386896
 20
59.607538802660756
  0
LWPOLYLINE
  5
65
330
17
100
AcDbEntity
  8
0
 62
6
100
AcDbPolyline
 90
2
 70
0
 10
15.441809672386896
 20
59.607538802660756
 10
19.9695007800312
 20
59.84866962305987
  0
LWPOLYLINE
  5
66
330
17
100
AcDbEntity
  8
0
 62
6
100
AcDbPolyline
 90
2
 70
0
 10
19.9695007800312
 20
59.84866962305987
 10
19.5405616224649
 20
59.26995565410199
  0
LWPOLYLINE
  5
67
330
17
100
AcDbEntity
  8
0
 62
6
100
AcDbPolyline
 90
2
 70
0
 10
19.5405616224649
 20
59.26995565410199
 10
20.493759750390016
 20
59.028824833702885
  0
LWPOLYLINE
  5
68
330
17
100
AcDbEntity
  8
0
 62
6
100
AcDbPolyline
 90
2
 70
0
 10
20.493759750390016
 20
59.028824833702885
 10
21.303978159126366
 20
59.31818181818182
  0
LWPOLYLINE
  5
69
330
17
100
AcDbEntity
  8
0
 62
6
100
AcDbPolyline
 90
2
 70
0
 10
21.303978159126366
 20
59.31818181818182
 10
21.446957878315132
 20
60.90964523281596
  0
LWPOLYLINE
  5
6A
330
17
100
AcDbEntity
  8
0
 62
6
100
AcDbPolyline
 90
2
 70
0
 10
21.446957878315132
 20
60.90964523281596
 10
21.303978159126366
 20
59.26995565410199
  0
LWPOLYLINE
  5
6B
330
17
100
AcDbEntity
  8
0
 62
6
100
AcDbPolyline
 90
2
 70
0
 10
21.303978159126366
 20
59.26995565410199
 10
19.826521060842435
 20
59.077050997782706
  0
LWPOLYLINE
  5
6C
330
17
100
AcDbEntity
  8
0
 62
6
100
AcDbPolyline
 90
2
 70
0
 10
19.826521060842435
 20
59.077050997782706
 10
19.921840873634945
 20
59.84866962305987
  0
LWPOLYLINE
  5
6D
330
17
100
AcDbEntity
  8
0
 62
6
100
AcDbPolyline
 90
2
 70
0
 10
19.921840873634945
 20
59.84866962305987
 10
15.441809672386896
 20
59.607538802660756
  0
LWPOLYLINE
  5
6E
330
17
100
AcDbEntity
  8
0
 62
6
100
AcDbPolyline
 90
2
 70
0
 10
15.441809672386896
 20
59.607538802660756
 10
14.869890795631825
 20
60.42738359201774
  0
LWPOLYLINE
  5
6F
330
17
100
AcDbEntity
  8
0
 62
6
100
AcDbPolyline
 90
2
 70
0
 10
14.869890795631825
 20
60.42738359201774
 10
12.820514820592823
 20
59.65576496674058
  0
LWPOLYLINE
  5
70
330
17
100
AcDbEntity
  8
0
 62
6
100
AcDbPolyline
 90
2
 70
0
 10
12.820514820592823
 20
59.65576496674058
 10
11.057098283931357
 20
60.52383592017738
  0
LWPOLYLINE
  5
71
330
17
100
AcDbEntity
  8
0
 62
6
100
AcDbPolyline
 90
2
 70
0
 10
11.057098283931357
 20
60.52383592017738
 10
10.34219968798752
 20
60.041574279379155
  0
LWPOLYLINE
  5
72
330
17
100
AcDbEntity
  8
0
 62
5
100
AcDbPolyline
 90
3
 70
0
 10
10.34219968798752
 20
60.041574279379155
 10
6.624726989079563
 20
60.33093126385809
 10
3.765132605304212
 20
59.41463414634146
  0
LWPOLYLINE
  5
73
330
17
100
AcDbEntity
  8
0
 62
6
100
AcDbPolyline
 90
2
 70
0
 10
3.765132605304212
 20
59.41463414634146
 10
3.7174726989079563
 20
60.95787139689578
  0
LWPOLYLINE
  5
74
330
17
100
AcDbEntity
  8
0
 62
6
100
AcDbPolyline
 90
2
 70
0
 10
3.7174726989079563
 20
60.95787139689578
 10
3.193213728549142
 20
59.41463414634146
  0
LWPOLYLINE
  5
75
330
17
100
AcDbEntity
  8
0
 62
6
100
AcDbPolyline
 90
2
 70
0
 10
3.193213728549142
 20
59.41463414634146
 10
1.8110764430577222
 20
59.607538802660756
  0
LWPOLYLINE
  5
76
330
17
100
AcDbEntity
  8
0
 62
6
100
AcDbPolyline
 90
2
 70
0
 10
1.8110764430577222
 20
59.607538802660756
 10
5.719188767550702
 20
74.36474501108647
  0
LWPOLYLINE
  5
77
330
17
100
AcDbEntity
  8
0
 62
6
100
AcDbPolyline
 90
2
 70
0
 10
5.719188767550702
 20
74.36474501108647
 10
22.495475819032762
 20
73.83425720620842
  0
LWPOLYLINE
  5
78
330
17
100
AcDbEntity
  8
0
 62
5
100
AcDbPolyline
 90
3
 70
0
 10
22.495475819032762
 20
73.83425720620842
 10
23.067394695787833
 20
56.713968957871394
 10
22.781435257410298
 20
39.73835920177383
  0
SPLINE
  5
79
330
17
100
AcDbEntity
  8
0
 62
4
100
AcDbSpline
 70
0
 71
3
 72
0
 73
0
 74
5
 11
22.781435257410298
 21
39.73835920177383
 31
0.0
 11
17.872464898595943
 21
39.20787139689579
 31
0.0
 11
14.393291731669267
 21
38.19512195121951
 31
0.0
 11
12.05795631825273
 21
36.79656319290466
 31
0.0
 11
9.960920436817473
 21
34.48170731707317
 31
0.0
  0
LWPOLYLINE
  5
7B
330
17
100
AcDbEntity
  8
0
 62
6
100
AcDbPolyline
 90
2
 70
0
 10
30.740639625585022
 20
34.14412416851441
 10
27.881045241809673
 20
43.11419068736142
  0
LWPOLYLINE
  5
7C
330
17
100
AcDbEntity
  8
0
 62
6
100
AcDbPolyline
 90
2
 70
0
 10
27.881045241809673
 20
43.11419068736142
 10
28.214664586583464
 20
43.69290465631929
  0
LWPOLYLINE
  5
7D
330
17
100
AcDbEntity
  8
0
 62
6
100
AcDbPolyline
 90
2
 70
0
 10
28.214664586583464
 20
43.69290465631929
 10
27.595085803432138
 20
44.175166297117514
  0
LWPOLYLINE
  5
7E
330
17
100
AcDbEntity
  8
0
 62
5
100
AcDbPolyline
 90
3
 70
0
 10
27.595085803432138
 20
44.175166297117514
 10
24.973790951638065
 20
52.71119733924612
 10
24.35421216848674
 20
55.31541019955654
  0
LWPOLYLINE
  5
7F
330
17
100
AcDbEntity
  8
0
 62
6
100
AcDbPolyline
 90
2
 70
0
 10
24.35421216848674
 20
55.31541019955654
 10
25.307410296411856
 20
55.652993348115295
  0
LWPOLYLINE
  5
80
330
17
100
AcDbEntity
  8
0
 62
6
100
AcDbPolyline
 90
2
 70
0
 10
25.307410296411856
 20
55.652993348115295
 10
24.11591263650546
 20
56.23170731707317
  0
LWPOLYLINE
  5
81
330
17
100
AcDbEntity
  8
0
 62
6
100
AcDbPolyline
 90
2
 70
0
 10
24.11591263650546
 20
56.23170731707317
 10
24.54485179407176
 20
56.858647450110865
  0
SPLINE
  5
82
330
17
100
AcDbEntity
  8
0
 62
4
100
AcDbSpline
 70
0
 71
3
 72
0
 73
0
 74
4
 11
24.54485179407176
 21
56.858647450110865
 31
0.0
 11
24.306552262090484
 21
58.2089800443459
 31
0.0
 11
27.595085803432138
 21
68.19179600886918
 31
0.0
 11
28.35764430577223
 21
73.83425720620842
 31
0.0
  0
LWPOLYLINE
  5
83
330
17
100
AcDbEntity
  8
0
 62
6
100
AcDbPolyline
 90
2
 70
0
 10
28.35764430577223
 20
73.83425720620842
 10
39.224102964118565
 20
72.00166297117516
  0
LWPOLYLINE
  5
84
330
17
100
AcDbEntity
  8
0
 62
6
100
AcDbPolyline
 90
2
 70
0
 10
39.224102964118565
 20
72.00166297117516
 10
39.55772230889235
 20
54.543791574279375
  0
LWPOLYLINE
  5
85
330
17
100
AcDbEntity
  8
0
 62
5
100
AcDbPolyline
 90
3
 70
0
 10
39.55772230889235
 20
54.543791574279375
 10
35.41131045241809
 20
53.43458980044346
 10
34.26747269890796
 20
52.470066518847005
  0
SPLINE
  5
86
330
17
100
AcDbEntity
  8
0
 62
4
100
AcDbSpline
 70
0
 71
3
 72
0
 73
0
 74
4
 11
34.26747269890796
 21
52.470066518847005
 31
0.0
 11
33.69555382215289
 21
50.830376940133036
 31
0.0
 11
34.124492979719186
 21
43.83758314855876
 31
0.0
 11
35.79258970358814
 21
36.84478935698448
 31
0.0
  0
LWPOLYLINE
  5
87
330
17
100
AcDbEntity
  8
0
 62
6
100
AcDbPolyline
 90
2
 70
0
 10
35.79258970358814
 20
36.84478935698448
 10
30.740639625585022
 20
34.14412416851441
  0
LWPOLYLINE
  5
89
330
17
100
AcDbEntity
  8
0
 62
6
100
AcDbPolyline
 90
2
 70
0
 10
110.61864274570982
 20
28.308758314855876
 10
108.61692667706708
 20
28.887472283813747
  0
LWPOLYLINE
  5
8A
330
17
100
AcDbEntity
  8
0
 62
6
100
AcDbPolyline
 90
2
 70
0
 10
108.61692667706708
 20
28.887472283813747
 10
108.56926677067082
 20
29.514412416851442
  0
LWPOLYLINE
  5
8B
330
17
100
AcDbEntity
  8
0
 62
6
100
AcDbPolyline
 90
2
 70
0
 10
108.56926677067082
 20
29.514412416851442
 10
107.09180967238689
 20
30.334257206208424
  0
LWPOLYLINE
  5
8C
330
17
100
AcDbEntity
  8
0
 62
5
100
AcDbPolyline
 90
3
 70
0
 10
107.09180967238689
 20
30.334257206208424
 10
102.61177847113885
 20
29.176829268292682
 10
97.89344773790951
 20
29.176829268292682
  0
LWPOLYLINE
  5
8D
330
17
100
AcDbEntity
  8
0
 62
6
100
AcDbPolyline
 90
2
 70
0
 10
97.89344773790951
 20
29.176829268292682
 10
98.03642745709828
 20
30.04490022172949
  0
LWPOLYLINE
  5
8E
330
17
100
AcDbEntity
  8
0
 62
6
100
AcDbPolyline
 90
2
 70
0
 10
98.03642745709828
 20
30.04490022172949
 10
98.94196567862714
 20
29.562638580931264
  0
LWPOLYLINE
  5
8F
330
17
100
AcDbEntity
  8
0
 62
6
100
AcDbPolyline
 90
2
 70
0
 10
98.94196567862714
 20
29.562638580931264
 10
98.65600624024961
 20
30.527161862527716
  0
LWPOLYLINE
  5
90
330
17
100
AcDbEntity
  8
0
 62
6
100
AcDbPolyline
 90
2
 70
0
 10
98.65600624024961
 20
30.527161862527716
 10
99.27558502340094
 20
29.996674057649667
  0
LWPOLYLINE
  5
91
330
17
100
AcDbEntity
  8
0
 62
5
100
AcDbPolyline
 90
3
 70
0
 10
99.27558502340094
 20
29.996674057649667
 10
102.03985959438377
 20
29.996674057649667
 10
105.37605304212168
 20
31.395232815964523
  0
LWPOLYLINE
  5
92
330
17
100
AcDbEntity
  8
0
 62
6
100
AcDbPolyline
 90
2
 70
0
 10
105.37605304212168
 20
31.395232815964523
 10
106.42457098283931
 20
30.47893569844789
  0
LWPOLYLINE
  5
93
330
17
100
AcDbEntity
  8
0
 62
6
100
AcDbPolyline
 90
2
 70
0
 10
106.42457098283931
 20
30.47893569844789
 10
105.66201248049921
 20
31.58813747228381
  0
LWPOLYLINE
  5
94
330
17
100
AcDbEntity
  8
0
 62
6
100
AcDbPolyline
 90
2
 70
0
 10
105.66201248049921
 20
31.58813747228381
 10
106.94882995319813
 20
32.50443458980045
  0
LWPOLYLINE
  5
95
330
17
100
AcDbEntity
  8
0
 62
6
100
AcDbPolyline
 90
2
 70
0
 10
106.94882995319813
 20
32.50443458980045
 10
109.52246489859594
 20
30.527161862527716
  0
LWPOLYLINE
  5
96
330
17
100
AcDbEntity
  8
0
 62
6
100
AcDbPolyline
 90
2
 70
0
 10
109.52246489859594
 20
30.527161862527716
 10
111.76248049921996
 20
31.00942350332594
  0
LWPOLYLINE
  5
97
330
17
100
AcDbEntity
  8
0
 62
6
100
AcDbPolyline
 90
2
 70
0
 10
111.76248049921996
 20
31.00942350332594
 10
112.81099843993759
 20
30.334257206208424
  0
LWPOLYLINE
  5
98
330
17
100
AcDbEntity
  8
0
 62
6
100
AcDbPolyline
 90
2
 70
0
 10
112.81099843993759
 20
30.334257206208424
 10
110.61864274570982
 20
30.23780487804878
  0
LWPOLYLINE
  5
99
330
17
100
AcDbEntity
  8
0
 62
6
100
AcDbPolyline
 90
2
 70
0
 10
110.61864274570982
 20
30.23780487804878
 10
110.61864274570982
 20
28.308758314855876
  0
LWPOLYLINE
  5
9B
330
17
100
AcDbEntity
  8
0
 62
5
100
AcDbPolyline
 90
3
 70
0
 10
93.17511700468019
 20
23.148558758314856
 10
92.1742589703588
 20
32.98669623059867
 10
92.60319812792511
 20
33.999445676274945
  0
LWPOLYLINE
  5
9C
330
17
100
AcDbEntity
  8
0
 62
6
100
AcDbPolyline
 90
2
 70
0
 10
92.60319812792511
 20
33.999445676274945
 10
92.1742589703588
 20
34.3370288248337
  0
LWPOLYLINE
  5
9D
330
17
100
AcDbEntity
  8
0
 62
5
100
AcDbPolyline
 90
3
 70
0
 10
92.1742589703588
 20
34.3370288248337
 10
91.50702028081123
 20
41.52272727272727
 10
91.36404056162246
 20
44.51274944567628
  0
LWPOLYLINE
  5
9E
330
17
100
AcDbEntity
  8
0
 62
6
100
AcDbPolyline
 90
2
 70
0
 10
91.36404056162246
 20
44.51274944567628
 10
91.84063962558503
 20
44.898558758314856
  0
LWPOLYLINE
  5
9F
330
17
100
AcDbEntity
  8
0
 62
6
100
AcDbPolyline
 90
2
 70
0
 10
91.84063962558503
 20
44.898558758314856
 10
91.31638065522621
 20
45.380820399113084
  0
LWPOLYLINE
  5
A0
330
17
100
AcDbEntity
  8
0
 62
6
100
AcDbPolyline
 90
2
 70
0
 10
91.31638065522621
 20
45.380820399113084
 10
94.70023400936037
 20
61.77771618625277
  0
LWPOLYLINE
  5
A1
330
17
100
AcDbEntity
  8
0
 62
5
100
AcDbPolyline
 90
3
 70
0
 10
94.70023400936037
 20
61.77771618625277
 10
97.98876755070202
 20
63.46563192904656
 10
103.70795631825273
 20
65.34645232815964
  0
SPLINE
  5
A2
330
17
100
AcDbEntity
  8
0
 62
4
100
AcDbSpline
 70
0
 71
3
 72
0
 73
0
 74
4
 11
103.70795631825273
 21
65.34645232815964
 31
0.0
 11
106.3292511700468
 21
59.993348115299334
 31
0.0
 11
113.47823712948518
 21
53.7239467849224
 31
0.0
 11
115.86123244929797
 21
50.20343680709534
 31
0.0
  0
LWPOLYLINE
  5
A3
330
17
100
AcDbEntity
  8
0
 62
6
100
AcDbPolyline
 90
2
 70
0
 10
115.86123244929797
 20
50.20343680709534
 10
115.81357254290171
 20
49.0460088691796
  0
LWPOLYLINE
  5
A4
330
17
100
AcDbEntity
  8
0
 62
5
100
AcDbPolyline
 90
3
 70
0
 10
115.81357254290171
 20
49.0460088691796
 10
116.52847113884555
 20
47.74390243902439
 10
117.29102964118565
 20
35.97671840354767
  0
SPLINE
  5
A5
330
17
100
AcDbEntity
  8
0
 62
4
100
AcDbSpline
 70
0
 71
3
 72
0
 73
0
 74
4
 11
117.29102964118565
 21
35.97671840354767
 31
0.0
 11
115.3846333853354
 21
35.20509977827051
 31
0.0
 11
104.85179407176287
 21
34.72283813747228
 31
0.0
 11
103.66029641185648
 21
34.24057649667406
 31
0.0
  0
LWPOLYLINE
  5
A6
330
17
100
AcDbEntity
  8
0
 62
6
100
AcDbPolyline
 90
2
 70
0
 10
103.66029641185648
 20
34.24057649667406
 10
104.32753510140405
 20
33.80654101995565
  0
LWPOLYLINE
  5
A7
330
17
100
AcDbEntity
  8
0
 62
6
100
AcDbPolyline
 90
2
 70
0
 10
104.32753510140405
 20
33.80654101995565
 10
109.42714508580343
 20
33.80654101995565
  0
LWPOLYLINE
  5
A8
330
17
100
AcDbEntity
  8
0
 62
6
100
AcDbPolyline
 90
2
 70
0
 10
109.42714508580343
 20
33.80654101995565
 10
103.70795631825273
 20
34.14412416851441
  0
SPLINE
  5
A9
330
17
100
AcDbEntity
  8
0
 62
4
100
AcDbSpline
 70
0
 71
3
 72
0
 73
0
 74
4
 11
103.70795631825273
 21
34.14412416851441
 31
0.0
 11
105.85265210608424
 21
34.86751662971175
 31
0.0
 11
115.3846333853354
 21
35.20509977827051
 31
0.0
 11
117.29102964118565
 21
36.02494456762749
 31
0.0
  0
LWPOLYLINE
  5
AA
330
17
100
AcDbEntity
  8
0
 62
5
100
AcDbPolyline
 90
3
 70
0
 10
117.29102964118565
 20
36.02494456762749
 10
116.52847113884555
 20
47.74390243902439
 10
115.81357254290171
 20
49.0460088691796
  0
LWPOLYLINE
  5
AB
330
17
100
AcDbEntity
  8
0
 62
6
100
AcDbPolyline
 90
2
 70
0
 10
115.81357254290171
 20
49.0460088691796
 10
116.1471918876755
 20
49.52827050997783
  0
SPLINE
  5
AC
330
17
100
AcDbEntity
  8
0
 62
4
100
AcDbSpline
 70
0
 71
3
 72
0
 73
0
 74
4
 11
116.1471918876755
 21
49.52827050997783
 31
0.0
 11
113.52589703588143
 21
53.62749445676275
 31
0.0
 11
105.99563182527301
 21
60.37915742793791
 31
0.0
 11
103.66029641185648
 21
65.34645232815964
 31
0.0
  0
LWPOLYLINE
  5
AD
330
17
100
AcDbEntity
  8
0
 62
6
100
AcDbPolyline
 90
2
 70
0
 10
103.66029641185648
 20
65.34645232815964
 10
94.9861934477379
 20
62.16352549889135
  0
LWPOLYLINE
  5
AE
330
17
100
AcDbEntity
  8
0
 62
6
100
AcDbPolyline
 90
2
 70
0
 10
94.9861934477379
 20
62.16352549889135
 10
91.31638065522621
 20
45.380820399113084
  0
LWPOLYLINE
  5
AF
330
17
100
AcDbEntity
  8
0
 62
6
100
AcDbPolyline
 90
2
 70
0
 10
91.31638065522621
 20
45.380820399113084
 10
91.84063962558503
 20
44.94678492239468
  0
LWPOLYLINE
  5
B0
330
17
100
AcDbEntity
  8
0
 62
6
100
AcDbPolyline
 90
2
 70
0
 10
91.84063962558503
 20
44.94678492239468
 10
91.36404056162246
 20
44.07871396895787
  0
LWPOLYLINE
  5
B1
330
17
100
AcDbEntity
  8
0
 62
6
100
AcDbPolyline
 90
2
 70
0
 10
91.36404056162246
 20
44.07871396895787
 10
92.12659906396256
 20
34.67461197339246
  0
LWPOLYLINE
  5
B2
330
17
100
AcDbEntity
  8
0
 62
6
100
AcDbPolyline
 90
2
 70
0
 10
92.12659906396256
 20
34.67461197339246
 10
92.60319812792511
 20
34.04767184035477
  0
LWPOLYLINE
  5
B3
330
17
100
AcDbEntity
  8
0
 62
5
100
AcDbPolyline
 90
3
 70
0
 10
92.60319812792511
 20
34.04767184035477
 10
92.1742589703588
 20
32.98669623059867
 10
92.9368174726989
 20
23.38968957871397
  0
LWPOLYLINE
  5
B4
330
17
100
AcDbEntity
  8
0
 62
5
100
AcDbPolyline
 90
3
 70
0
 10
92.9368174726989
 20
23.38968957871397
 10
98.94196567862714
 20
23.341463414634145
 10
108.47394695787831
 20
24.788248337028826
  0
LWPOLYLINE
  5
B5
330
17
100
AcDbEntity
  8
0
 62
6
100
AcDbPolyline
 90
2
 70
0
 10
108.47394695787831
 20
24.788248337028826
 10
108.85522620904835
 20
24.54711751662971
  0
LWPOLYLINE
  5
B6
330
17
100
AcDbEntity
  8
0
 62
6
100
AcDbPolyline
 90
2
 70
0
 10
108.85522620904835
 20
24.54711751662971
 10
108.3786271450858
 20
24.16130820399113
  0
LWPOLYLINE
  5
B7
330
17
100
AcDbEntity
  8
0
 62
5
100
AcDbPolyline
 90
3
 70
0
 10
108.3786271450858
 20
24.16130820399113
 10
109.28416536661466
 20
24.11308203991131
 10
118.1965678627145
 20
24.88470066518847
  0
LWPOLYLINE
  5
B8
330
17
100
AcDbEntity
  8
0
 62
6
100
AcDbPolyline
 90
2
 70
0
 10
118.1965678627145
 20
24.88470066518847
 10
117.48166926677067
 20
34.28880266075388
  0
LWPOLYLINE
  5
B9
330
17
100
AcDbEntity
  8
0
 62
6
100
AcDbPolyline
 90
2
 70
0
 10
117.48166926677067
 20
34.28880266075388
 10
113.47823712948518
 20
34.67461197339246
  0
LWPOLYLINE
  5
BA
330
17
100
AcDbEntity
  8
0
 62
6
100
AcDbPolyline
 90
2
 70
0
 10
113.47823712948518
 20
34.67461197339246
 10
114.33611544461779
 20
33.56541019955654
  0
LWPOLYLINE
  5
BB
330
17
100
AcDbEntity
  8
0
 62
6
100
AcDbPolyline
 90
2
 70
0
 10
114.33611544461779
 20
33.56541019955654
 10
114.0978159126365
 20
33.17960088691796
  0
LWPOLYLINE
  5
BC
330
17
100
AcDbEntity
  8
0
 62
6
100
AcDbPolyline
 90
2
 70
0
 10
114.0978159126365
 20
33.17960088691796
 10
113.14461778471139
 20
33.951219512195124
  0
LWPOLYLINE
  5
BD
330
17
100
AcDbEntity
  8
0
 62
5
100
AcDbPolyline
 90
3
 70
0
 10
113.14461778471139
 20
33.951219512195124
 10
111.52418096723869
 20
33.468957871396896
 10
109.5701248049922
 20
33.9029933481153
  0
LWPOLYLINE
  5
BE
330
17
100
AcDbEntity
  8
0
 62
5
100
AcDbPolyline
 90
3
 70
0
 10
109.5701248049922
 20
33.9029933481153
 10
111.52418096723869
 20
33.468957871396896
 10
113.19227769110765
 20
33.951219512195124
  0
LWPOLYLINE
  5
BF
330
17
100
AcDbEntity
  8
0
 62
6
100
AcDbPolyline
 90
2
 70
0
 10
113.19227769110765
 20
33.951219512195124
 10
114.0978159126365
 20
33.17960088691796
  0
LWPOLYLINE
  5
C0
330
17
100
AcDbEntity
  8
0
 62
6
100
AcDbPolyline
 90
2
 70
0
 10
114.0978159126365
 20
33.17960088691796
 10
114.33611544461779
 20
33.56541019955654
  0
LWPOLYLINE
  5
C1
330
17
100
AcDbEntity
  8
0
 62
6
100
AcDbPolyline
 90
2
 70
0
 10
114.33611544461779
 20
33.56541019955654
 10
113.3352574102964
 20
34.62638580931264
  0
LWPOLYLINE
  5
C2
330
17
100
AcDbEntity
  8
0
 62
5
100
AcDbPolyline
 90
3
 70
0
 10
113.3352574102964
 20
34.62638580931264
 10
115.05101404056163
 20
34.19235033259424
 10
117.38634945397816
 20
34.48170731707317
  0
LWPOLYLINE
  5
C3
330
17
100
AcDbEntity
  8
0
 62
6
100
AcDbPolyline
 90
2
 70
0
 10
117.38634945397816
 20
34.48170731707317
 10
118.14890795631825
 20
24.788248337028826
  0
LWPOLYLINE
  5
C4
330
17
100
AcDbEntity
  8
0
 62
5
100
AcDbPolyline
 90
3
 70
0
 10
118.14890795631825
 20
24.788248337028826
 10
109.28416536661466
 20
24.11308203991131
 10
108.28330733229329
 20
24.209534368070955
  0
LWPOLYLINE
  5
C5
330
17
100
AcDbEntity
  8
0
 62
6
100
AcDbPolyline
 90
2
 70
0
 10
108.28330733229329
 20
24.209534368070955
 10
108.85522620904835
 20
24.595343680709533
  0
LWPOLYLINE
  5
C6
330
17
100
AcDbEntity
  8
0
 62
6
100
AcDbPolyline
 90
2
 70
0
 10
108.85522620904835
 20
24.595343680709533
 10
108.47394695787831
 20
24.788248337028826
  0
LWPOLYLINE
  5
C7
330
17
100
AcDbEntity
  8
0
 62
5
100
AcDbPolyline
 90
3
 70
0
 10
108.47394695787831
 20
24.788248337028826
 10
98.94196567862714
 20
23.341463414634145
 10
93.17511700468019
 20
23.148558758314856
  0
LWPOLYLINE
  5
C9
330
17
100
AcDbEntity
  8
0
 62
6
100
AcDbPolyline
 90
2
 70
0
 10
107.9496879875195
 20
4.099223946784923
 10
98.84664586583463
 20
6.26940133037694
  0
LWPOLYLINE
  5
CA
330
17
100
AcDbEntity
  8
0
 62
5
100
AcDbPolyline
 90
3
 70
0
 10
98.84664586583463
 20
6.26940133037694
 10
95.65343213728549
 20
14.226718403547672
 10
94.03299531981278
 20
19.435144124168513
  0
LWPOLYLINE
  5
CB
330
17
100
AcDbEntity
  8
0
 62
6
100
AcDbPolyline
 90
2
 70
0
 10
94.03299531981278
 20
19.435144124168513
 10
94.36661466458658
 20
19.772727272727273
  0
LWPOLYLINE
  5
CC
330
17
100
AcDbEntity
  8
0
 62
6
100
AcDbPolyline
 90
2
 70
0
 10
94.36661466458658
 20
19.772727272727273
 10
93.84235569422776
 20
20.06208425720621
  0
LWPOLYLINE
  5
CD
330
17
100
AcDbEntity
  8
0
 62
6
100
AcDbPolyline
 90
2
 70
0
 10
93.84235569422776
 20
20.06208425720621
 10
93.12745709828393
 20
22.666297117516628
  0
LWPOLYLINE
  5
CE
330
17
100
AcDbEntity
  8
0
 62
5
100
AcDbPolyline
 90
3
 70
0
 10
93.12745709828393
 20
22.666297117516628
 10
106.56755070202809
 20
23.58259423503326
 10
107.47308892355694
 20
23.534368070953438
  0
LWPOLYLINE
  5
CF
330
17
100
AcDbEntity
  8
0
 62
6
100
AcDbPolyline
 90
2
 70
0
 10
107.47308892355694
 20
23.534368070953438
 10
106.47223088923556
 20
22.955654101995567
  0
LWPOLYLINE
  5
D0
330
17
100
AcDbEntity
  8
0
 62
6
100
AcDbPolyline
 90
2
 70
0
 10
106.47223088923556
 20
22.955654101995567
 10
118.24422776911076
 20
24.16130820399113
  0
SPLINE
  5
D1
330
17
100
AcDbEntity
  8
0
 62
4
100
AcDbSpline
 70
0
 71
3
 72
0
 73
0
 74
5
 11
118.24422776911076
 21
24.16130820399113
 31
0.0
 11
118.24422776911076
 21
22.087583148558757
 31
0.0
 11
117.00507020280811
 21
18.711751662971174
 31
0.0
 11
109.95140405616225
 21
10.127494456762749
 31
0.0
 11
107.9496879875195
 21
4.099223946784923
 31
0.0
  0
ENDSEC
  0
SECTION
  2
OBJECTS
  0
DICTIONARY
  5
A
330
0
100
AcDbDictionary
280
0
281
1
  3
ACAD_COLOR
350
B
  3
ACAD_GROUP
350
C
  3
ACAD_LAYOUT
350
D
  3
ACAD_MATERIAL
350
E
  3
ACAD_MLEADERSTYLE
350
F
  3
ACAD_MLINESTYLE
350
10
  3
ACAD_PLOTSETTINGS
350
11
  3
ACAD_PLOTSTYLENAME
350
12
  3
ACAD_SCALELIST
350
14
  3
ACAD_TABLESTYLE
350
15
  3
ACAD_VISUALSTYLE
350
16
  3
EZDXF_META
350
2D
  0
DICTIONARY
  5
B
330
A
100
AcDbDictionary
280
0
281
1
  0
DICTIONARY
  5
C
330
A
100
AcDbDictionary
280
0
281
1
  3
*A1
350
2F
  3
*A2
350
45
  3
*A3
350
4C
  3
*A4
350
53
  3
*A5
350
7A
  3
*A6
350
88
  3
*A7
350
9A
  3
*A8
350
C8
  0
DICTIONARY
  5
D
330
A
100
AcDbDictionary
280
0
281
1
  3
Model
350
1A
  3
Layout1
350
1E
  0
DICTIONARY
  5
E
330
A
100
AcDbDictionary
280
0
281
1
  3
ByBlock
350
1F
  3
ByLayer
350
20
  3
Global
350
21
  0
DICTIONARY
  5
F
330
A
100
AcDbDictionary
280
0
281
1
  3
Standard
350
2C
  0
DICTIONARY
  5
10
330
A
100
AcDbDictionary
280
0
281
1
  3
Standard
350
22
  0
DICTIONARY
  5
11
330
A
100
AcDbDictionary
280
0
281
1
  0
ACDBDICTIONARYWDFLT
  5
12
330
A
100
AcDbDictionary
280
0
281
1
  3
Normal
350
13
100
AcDbDictionaryWithDefault
340
13
  0
ACDBPLACEHOLDER
  5
13
330
12
  0
DICTIONARY
  5
14
330
A
100
AcDbDictionary
280
0
281
1
  0
DICTIONARY
  5
15
330
A
100
AcDbDictionary
280
0
281
1
  0
DICTIONARY
  5
16
330
A
100
AcDbDictionary
280
0
281
1
  0
LAYOUT
  5
1A
330
D
100
AcDbPlotSettings
  1

  2
Adobe PDF
  4
A3
  6

 40
7.5
 41
20.0
 42
7.5
 43
20.0
 44
420.0
 45
297.0
 46
0.0
 47
0.0
 48
0.0
 49
0.0
140
0.0
141
0.0
142
1.0
143
1.0
 70
1024
 72
1
 73
0
 74
5
  7

 75
16
 76
0
 77
2
 78
300
147
1.0
148
0.0
149
0.0
100
AcDbLayout
  1
Model
 70
1
 71
0
 10
0.0
 20
0.0
 11
420.0
 21
297.0
 12
0.0
 22
0.0
 32
0.0
 14
1e+20
 24
1e+20
 34
1e+20
 15
-1e+20
 25
-1e+20
 35
-1e+20
146
0.0
 13
0.0
 23
0.0
 33
0.0
 16
1.0
 26
0.0
 36
0.0
 17
0.0
 27
1.0
 37
0.0
 76
1
330
17
  0
LAYOUT
  5
1E
330
D
100
AcDbPlotSettings
  1

  2
Adobe PDF
  4
A3
  6

 40
7.5
 41
20.0
 42
7.5
 43
20.0
 44
420.0
 45
297.0
 46
0.0
 47
0.0
 48
0.0
 49
0.0
140
0.0
141
0.0
142
1.0
143
1.0
 70
0
 72
1
 73
0
 74
5
  7

 75
16
 76
0
 77
2
 78
300
147
1.0
148
0.0
149
0.0
100
AcDbLayout
  1
Layout1
 70
1
 71
1
 10
0.0
 20
0.0
 11
420.0
 21
297.0
 12
0.0
 22
0.0
 32
0.0
 14
1e+20
 24
1e+20
 34
1e+20
 15
-1e+20
 25
-1e+20
 35
-1e+20
146
0.0
 13
0.0
 23
0.0
 33
0.0
 16
1.0
 26
0.0
 36
0.0
 17
0.0
 27
1.0
 37
0.0
 76
1
330
1B
  0
MATERIAL
  5
1F
102
{ACAD_REACTORS
330
E
102
}
330
E
100
AcDbMaterial
  1
ByBlock
  2

 70
0
 40
1.0
 71
1
 41
1.0
 91
-1023410177
 42
1.0
 72
1
  3

 73
1
 74
1
 75
1
 44
0.5
 73
0
 45
1.0
 46
1.0
 77
1
  4

 78
1
 79
1
170
1
 48
1.0
171
1
  6

172
1
173
1
174
1
140
1.0
141
1.0
175
1
  7

176
1
177
1
178
1
143
1.0
179
1
  8

270
1
271
1
272
1
145
1.0
146
1.0
273
1
  9

274
1
275
1
276
1
 42
1.0
 72
1
  3

 73
1
 74
1
 75
1
 94
63
  0
MATERIAL
  5
20
102
{ACAD_REACTORS
330
E
102
}
330
E
100
AcDbMaterial
  1
ByLayer
  2

 70
0
 40
1.0
 71
1
 41
1.0
 91
-1023410177
 42
1.0
 72
1
  3

 73
1
 74
1
 75
1
 44
0.5
 73
0
 45
1.0
 46
1.0
 77
1
  4

 78
1
 79
1
170
1
 48
1.0
171
1
  6

172
1
173
1
174
1
140
1.0
141
1.0
175
1
  7

176
1
177
1
178
1
143
1.0
179
1
  8

270
1
271
1
272
1
145
1.0
146
1.0
273
1
  9

274
1
275
1
276
1
 42
1.0
 72
1
  3

 73
1
 74
1
 75
1
 94
63
  0
MATERIAL
  5
21
102
{ACAD_REACTORS
330
E
102
}
330
E
100
AcDbMaterial
  1
Global
  2

 70
0
 40
1.0
 71
1
 41
1.0
 91
-1023410177
 42
1.0
 72
1
  3

 73
1
 74
1
 75
1
 44
0.5
 73
0
 45
1.0
 46
1.0
 77
1
  4

 78
1
 79
1
170
1
 48
1.0
171
1
  6

172
1
173
1
174
1
140
1.0
141
1.0
175
1
  7

176
1
177
1
178
1
143
1.0
179
1
  8

270
1
271
1
272
1
145
1.0
146
1.0
273
1
  9

274
1
275
1
276
1
 42
1.0
 72
1
  3

 73
1
 74
1
 75
1
 94
63
  0
MLINESTYLE
  5
22
102
{ACAD_REACTORS
330
10
102
}
330
10
100
AcDbMlineStyle
  2
Standard
 70
0
  3

 62
256
 51
90.0
 52
90.0
 71
2
 49
0.5
 62
256
  6
BYLAYER
 49
-0.5
 62
256
  6
BYLAYER
  0
MLEADERSTYLE
  5
2C
102
{ACAD_REACTORS
330
F
102
}
330
F
100
AcDbMLeaderStyle
179
2
170
2
171
1
172
0
 90
2
 40
0.0
 41
0.0
173
1
 91
-1056964608
 92
-2
290
1
 42
2.0
291
1
 43
8.0
  3
Standard
 44
4.0
300

342
29
174
1
175
1
176
0
178
1
 93
-1056964608
 45
4.0
292
0
297
0
 46
4.0
 94
-1056964608
 47
1.0
 49
1.0
140
1.0
294
1
141
0.0
177
0
142
1.0
295
0
296
0
143
3.75
271
0
272
9
273
9
  0
DICTIONARY
  5
2D
330
A
100
AcDbDictionary
281
1
  3
CREATED_BY_EZDXF
350
2E
  3
WRITTEN_BY_EZDXF
350
D4
  0
DICTIONARYVAR
  5
2E
330
2D
100
DictionaryVariables
280
0
  1
1.3.0 @ 2024-05-22T05:31:08.231993+00:00
  0
GROUP
  5
2F
102
{ACAD_REACTORS
330
C
102
}
330
C
100
AcDbGroup
300

 70
1
 71
1
340
30
340
31
340
32
340
33
340
34
340
35
340
36
340
37
340
38
340
39
340
3A
340
3B
340
3C
340
3D
340
3E
340
3F
340
40
340
41
340
42
340
43
340
44
  0
GROUP
  5
45
102
{ACAD_REACTORS
330
C
102
}
330
C
100
AcDbGroup
300

 70
1
 71
1
340
46
340
47
340
48
340
49
340
4A
340
4B
  0
GROUP
  5
4C
102
{ACAD_REACTORS
330
C
102
}
330
C
100
AcDbGroup
300

 70
1
 71
1
340
4D
340
4E
340
4F
340
50
340
51
340
52
  0
GROUP
  5
53
102
{ACAD_REACTORS
330
C
102
}
330
C
100
AcDbGroup
300

 70
1
 71
1
340
54
340
55
340
56
340
57
340
58
340
59
340
5A
340
5B
340
5C
340
5D
340
5E
340
5F
340
60
340
61
340
62
340
63
340
64
340
65
340
66
340
67
340
68
340
69
340
6A
340
6B
340
6C
340
6D
340
6E
340
6F
340
70
340
71
340
72
340
73
340
74
340
75
340
76
340
77
340
78
340
79
  0
GROUP
  5
7A
102
{ACAD_REACTORS
330
C
102
}
330
C
100
AcDbGroup
300

 70
1
 71
1
340
7B
340
7C
340
7D
340
7E
340
7F
340
80
340
81
340
82
340
83
340
84
340
85
340
86
340
87
  0
GROUP
  5
88
102
{ACAD_REACTORS
330
C
102
}
330
C
100
AcDbGroup
300

 70
1
 71
1
340
89
340
8A
340
8B
340
8C
340
8D
340
8E
340
8F
340
90
340
91
340
92
340
93
340
94
340
95
340
96
340
97
340
98
340
99
  0
GROUP
  5
9A
102
{ACAD_REACTORS
330
C
102
}
330
C
100
AcDbGroup
300

 70
1
 71
1
340
9B
340
9C
340
9D
340
9E
340
9F
340
A0
340
A1
340
A2
340
A3
340
A4
340
A5
340
A6
340
A7
340
A8
340
A9
340
AA
340
AB
340
AC
340
AD
340
AE
340
AF
340
B0
340
B1
340
B2
340
B3
340
B4
340
B5
340
B6
340
B7
340
B8
340
B9
340
BA
340
BB
340
BC
340
BD
340
BE
340
BF
340
C0
340
C1
340
C2
340
C3
340
C4
340
C5
340
C6
340
C7
  0
GROUP
  5
C8
102
{ACAD_REACTORS
330
C
102
}
330
C
100
AcDbGroup
300

 70
1
 71
1
340
C9
340
CA
340
CB
340
CC
340
CD
340
CE
340
CF
340
D0
340
D1
  0
DICTIONARYVAR
  5
D4
330
2D
100
DictionaryVariables
280
0
  1
1.3.0 @ 2024-05-22T05:31:14.952830+00:00
  0
ENDSEC
  0
EOF
