  0
SECTION
  2
HEADER
  9
$ACADVER
  1
AC1015
  9
$ACADMAINTVER
 70
6
  9
$DWGCODEPAGE
  3
ANSI_1252
  9
$INSBASE
 10
0.0
 20
0.0
 30
0.0
  9
$EXTMIN
 10
1e+20
 20
1e+20
 30
1e+20
  9
$EXTMAX
 10
-1e+20
 20
-1e+20
 30
-1e+20
  9
$LIMMIN
 10
0.0
 20
0.0
  9
$LIMMAX
 10
420.0
 20
297.0
  9
$ORTHOMODE
 70
0
  9
$REGENMODE
 70
1
  9
$FILLMODE
 70
1
  9
$QTEXTMODE
 70
0
  9
$MIRRTEXT
 70
1
  9
$LTSCALE
 40
1.0
  9
$ATTMODE
 70
1
  9
$TEXTSIZE
 40
2.5
  9
$TRACEWID
 40
1.0
  9
$TEXTSTYLE
  7
Standard
  9
$CLAYER
  8
0
  9
$CELTYPE
  6
ByLayer
  9
$CECOLOR
 62
256
  9
$CELTSCALE
 40
1.0
  9
$DISPSILH
 70
0
  9
$DIMSCALE
 40
1.0
  9
$DIMASZ
 40
2.5
  9
$DIMEXO
 40
0.625
  9
$DIMDLI
 40
3.75
  9
$DIMRND
 40
0.0
  9
$DIMDLE
 40
0.0
  9
$DIMEXE
 40
1.25
  9
$DIMTP
 40
0.0
  9
$DIMTM
 40
0.0
  9
$DIMTXT
 40
2.5
  9
$DIMCEN
 40
2.5
  9
$DIMTSZ
 40
0.0
  9
$DIMTOL
 70
0
  9
$DIMLIM
 70
0
  9
$DIMTIH
 70
0
  9
$DIMTOH
 70
0
  9
$DIMSE1
 70
0
  9
$DIMSE2
 70
0
  9
$DIMTAD
 70
1
  9
$DIMZIN
 70
8
  9
$DIMBLK
  1

  9
$DIMASO
 70
1
  9
$DIMSHO
 70
1
  9
$DIMPOST
  1

  9
$DIMAPOST
  1

  9
$DIMALT
 70
0
  9
$DIMALTD
 70
3
  9
$DIMALTF
 40
0.03937007874
  9
$DIMLFAC
 40
1.0
  9
$DIMTOFL
 70
1
  9
$DIMTVP
 40
0.0
  9
$DIMTIX
 70
0
  9
$DIMSOXD
 70
0
  9
$DIMSAH
 70
0
  9
$DIMBLK1
  1

  9
$DIMBLK2
  1

  9
$DIMSTYLE
  2
ISO-25
  9
$DIMCLRD
 70
0
  9
$DIMCLRE
 70
0
  9
$DIMCLRT
 70
0
  9
$DIMTFAC
 40
1.0
  9
$DIMGAP
 40
0.625
  9
$DIMJUST
 70
0
  9
$DIMSD1
 70
0
  9
$DIMSD2
 70
0
  9
$DIMTOLJ
 70
0
  9
$DIMTZIN
 70
8
  9
$DIMALTZ
 70
0
  9
$DIMALTTZ
 70
0
  9
$DIMUPT
 70
0
  9
$DIMDEC
 70
2
  9
$DIMTDEC
 70
2
  9
$DIMALTU
 70
2
  9
$DIMALTTD
 70
3
  9
$DIMTXSTY
  7
Standard
  9
$DIMAUNIT
 70
0
  9
$DIMADEC
 70
0
  9
$DIMALTRND
 40
0.0
  9
$DIMAZIN
 70
0
  9
$DIMDSEP
 70
44
  9
$DIMATFIT
 70
3
  9
$DIMFRAC
 70
0
  9
$DIMLDRBLK
  1

  9
$DIMLUNIT
 70
2
  9
$DIMLWD
 70
-2
  9
$DIMLWE
 70
-2
  9
$DIMTMOVE
 70
0
  9
$LUNITS
 70
2
  9
$LUPREC
 70
4
  9
$SKETCHINC
 40
1.0
  9
$FILLETRAD
 40
10.0
  9
$AUNITS
 70
0
  9
$AUPREC
 70
2
  9
$MENU
  1
.
  9
$ELEVATION
 40
0.0
  9
$PELEVATION
 40
0.0
  9
$THICKNESS
 40
0.0
  9
$LIMCHECK
 70
0
  9
$CHAMFERA
 40
0.0
  9
$CHAMFERB
 40
0.0
  9
$CHAMFERC
 40
0.0
  9
$CHAMFERD
 40
0.0
  9
$SKPOLY
 70
0
  9
$TDCREATE
 40
2460458.361851852
  9
$TDUCREATE
 40
2458532.153996898
  9
$TDUPDATE
 40
2460458.3619560185
  9
$TDUUPDATE
 40
2458532.1544311
  9
$TDINDWG
 40
0.0
  9
$TDUSRTIMER
 40
0.0
  9
$USRTIMER
 70
1
  9
$ANGBASE
 50
0.0
  9
$ANGDIR
 70
0
  9
$PDMODE
 70
0
  9
$PDSIZE
 40
0.0
  9
$PLINEWID
 40
0.0
  9
$SPLFRAME
 70
0
  9
$SPLINETYPE
 70
6
  9
$SPLINESEGS
 70
8
  9
$HANDSEED
  5
11F
  9
$SURFTAB1
 70
6
  9
$SURFTAB2
 70
6
  9
$SURFTYPE
 70
6
  9
$SURFU
 70
6
  9
$SURFV
 70
6
  9
$UCSBASE
  2

  9
$UCSNAME
  2

  9
$UCSORG
 10
0.0
 20
0.0
 30
0.0
  9
$UCSXDIR
 10
1.0
 20
0.0
 30
0.0
  9
$UCSYDIR
 10
0.0
 20
1.0
 30
0.0
  9
$UCSORTHOREF
  2

  9
$UCSORTHOVIEW
 70
0
  9
$UCSORGTOP
 10
0.0
 20
0.0
 30
0.0
  9
$UCSORGBOTTOM
 10
0.0
 20
0.0
 30
0.0
  9
$UCSORGLEFT
 10
0.0
 20
0.0
 30
0.0
  9
$UCSORGRIGHT
 10
0.0
 20
0.0
 30
0.0
  9
$UCSORGFRONT
 10
0.0
 20
0.0
 30
0.0
  9
$UCSORGBACK
 10
0.0
 20
0.0
 30
0.0
  9
$PUCSBASE
  2

  9
$PUCSNAME
  2

  9
$PUCSORG
 10
0.0
 20
0.0
 30
0.0
  9
$PUCSXDIR
 10
1.0
 20
0.0
 30
0.0
  9
$PUCSYDIR
 10
0.0
 20
1.0
 30
0.0
  9
$PUCSORTHOREF
  2

  9
$PUCSORTHOVIEW
 70
0
  9
$PUCSORGTOP
 10
0.0
 20
0.0
 30
0.0
  9
$PUCSORGBOTTOM
 10
0.0
 20
0.0
 30
0.0
  9
$PUCSORGLEFT
 10
0.0
 20
0.0
 30
0.0
  9
$PUCSORGRIGHT
 10
0.0
 20
0.0
 30
0.0
  9
$PUCSORGFRONT
 10
0.0
 20
0.0
 30
0.0
  9
$PUCSORGBACK
 10
0.0
 20
0.0
 30
0.0
  9
$USERI1
 70
0
  9
$USERI2
 70
0
  9
$USERI3
 70
0
  9
$USERI4
 70
0
  9
$USERI5
 70
0
  9
$USERR1
 40
0.0
  9
$USERR2
 40
0.0
  9
$USERR3
 40
0.0
  9
$USERR4
 40
0.0
  9
$USERR5
 40
0.0
  9
$WORLDVIEW
 70
1
  9
$SHADEDGE
 70
3
  9
$SHADEDIF
 70
70
  9
$TILEMODE
 70
1
  9
$MAXACTVP
 70
64
  9
$PINSBASE
 10
0.0
 20
0.0
 30
0.0
  9
$PLIMCHECK
 70
0
  9
$PEXTMIN
 10
1e+20
 20
1e+20
 30
1e+20
  9
$PEXTMAX
 10
-1e+20
 20
-1e+20
 30
-1e+20
  9
$PLIMMIN
 10
0.0
 20
0.0
  9
$PLIMMAX
 10
420.0
 20
297.0
  9
$UNITMODE
 70
0
  9
$VISRETAIN
 70
1
  9
$PLINEGEN
 70
0
  9
$PSLTSCALE
 70
1
  9
$TREEDEPTH
 70
3020
  9
$CMLSTYLE
  2
Standard
  9
$CMLJUST
 70
0
  9
$CMLSCALE
 40
20.0
  9
$PROXYGRAPHICS
 70
1
  9
$MEASUREMENT
 70
1
  9
$CELWEIGHT
370
-1
  9
$ENDCAPS
280
0
  9
$JOINSTYLE
280
0
  9
$LWDISPLAY
290
0
  9
$INSUNITS
 70
6
  9
$HYPERLINKBASE
  1

  9
$STYLESHEET
  1

  9
$XEDIT
290
1
  9
$CEPSNTYPE
380
0
  9
$PSTYLEMODE
290
1
  9
$FINGERPRINTGUID
  2
{1242721B-00D6-4941-9647-9EB7027ACCA7}
  9
$VERSIONGUID
  2
{405D3DA8-6348-43FF-B142-BBFA4FBC7611}
  9
$EXTNAMES
290
1
  9
$PSVPSCALE
 40
0.0
  9
$OLESTARTUP
290
0
  0
ENDSEC
  0
SECTION
  2
CLASSES
  0
CLASS
  1
ACDBDICTIONARYWDFLT
  2
AcDbDictionaryWithDefault
  3
ObjectDBX Classes
 90
0
280
0
281
0
  0
CLASS
  1
SUN
  2
AcDbSun
  3
SCENEOE
 90
1153
280
0
281
0
  0
CLASS
  1
VISUALSTYLE
  2
AcDbVisualStyle
  3
ObjectDBX Classes
 90
4095
280
0
281
0
  0
CLASS
  1
MATERIAL
  2
AcDbMaterial
  3
ObjectDBX Classes
 90
1153
280
0
281
0
  0
CLASS
  1
SCALE
  2
AcDbScale
  3
ObjectDBX Classes
 90
1153
280
0
281
0
  0
CLASS
  1
TABLESTYLE
  2
AcDbTableStyle
  3
ObjectDBX Classes
 90
4095
280
0
281
0
  0
CLASS
  1
MLEADERSTYLE
  2
AcDbMLeaderStyle
  3
ACDB_MLEADERSTYLE_CLASS
 90
4095
280
0
281
0
  0
CLASS
  1
DICTIONARYVAR
  2
AcDbDictionaryVar
  3
ObjectDBX Classes
 90
0
280
0
281
0
  0
CLASS
  1
CELLSTYLEMAP
  2
AcDbCellStyleMap
  3
ObjectDBX Classes
 90
1152
280
0
281
0
  0
CLASS
  1
MENTALRAYRENDERSETTINGS
  2
AcDbMentalRayRenderSettings
  3
SCENEOE
 90
1024
280
0
281
0
  0
CLASS
  1
ACDBDETAILVIEWSTYLE
  2
AcDbDetailViewStyle
  3
ObjectDBX Classes
 90
1025
280
0
281
0
  0
CLASS
  1
ACDBSECTIONVIEWSTYLE
  2
AcDbSectionViewStyle
  3
ObjectDBX Classes
 90
1025
280
0
281
0
  0
CLASS
  1
RASTERVARIABLES
  2
AcDbRasterVariables
  3
ISM
 90
0
280
0
281
0
  0
CLASS
  1
ACDBPLACEHOLDER
  2
AcDbPlaceHolder
  3
ObjectDBX Classes
 90
0
280
0
281
0
  0
CLASS
  1
LAYOUT
  2
AcDbLayout
  3
ObjectDBX Classes
 90
0
280
0
281
0
  0
ENDSEC
  0
SECTION
  2
TABLES
  0
TABLE
  2
VPORT
  5
8
330
0
100
AcDbSymbolTable
 70
1
  0
VPORT
  5
23
330
8
100
AcDbSymbolTableRecord
100
AcDbViewportTableRecord
  2
*Active
 70
0
 10
0.0
 20
0.0
 11
1.0
 21
1.0
 12
0.0
 22
0.0
 13
0.0
 23
0.0
 14
0.5
 24
0.5
 15
0.5
 25
0.5
 16
0.0
 26
0.0
 36
1.0
 17
0.0
 27
0.0
 37
0.0
 40
1000.0
 41
1.34
 42
50.0
 43
0.0
 44
0.0
 50
0.0
 51
0.0
 71
0
 72
1000
 73
1
 74
3
 75
0
 76
0
 77
0
 78
0
281
0
 65
0
146
0.0
  0
ENDTAB
  0
TABLE
  2
LTYPE
  5
2
330
0
100
AcDbSymbolTable
 70
3
  0
LTYPE
  5
24
330
2
100
AcDbSymbolTableRecord
100
AcDbLinetypeTableRecord
  2
ByBlock
 70
0
  3

 72
65
 73
0
 40
0.0
  0
LTYPE
  5
25
330
2
100
AcDbSymbolTableRecord
100
AcDbLinetypeTableRecord
  2
ByLayer
 70
0
  3

 72
65
 73
0
 40
0.0
  0
LTYPE
  5
26
330
2
100
AcDbSymbolTableRecord
100
AcDbLinetypeTableRecord
  2
Continuous
 70
0
  3

 72
65
 73
0
 40
0.0
  0
ENDTAB
  0
TABLE
  2
LAYER
  5
1
330
0
100
AcDbSymbolTable
 70
2
  0
LAYER
  5
27
330
1
100
AcDbSymbolTableRecord
100
AcDbLayerTableRecord
  2
0
 70
0
 62
7
  6
Continuous
370
-3
390
13
  0
LAYER
  5
28
330
1
100
AcDbSymbolTableRecord
100
AcDbLayerTableRecord
  2
Defpoints
 70
0
 62
7
  6
Continuous
290
0
370
-3
390
13
  0
ENDTAB
  0
TABLE
  2
STYLE
  5
5
330
0
100
AcDbSymbolTable
 70
1
  0
STYLE
  5
29
330
5
100
AcDbSymbolTableRecord
100
AcDbTextStyleTableRecord
  2
Standard
 70
0
 40
0.0
 41
1.0
 50
0.0
 71
0
 42
2.5
  3
txt
  4

  0
ENDTAB
  0
TABLE
  2
VIEW
  5
7
330
0
100
AcDbSymbolTable
 70
0
  0
ENDTAB
  0
TABLE
  2
UCS
  5
6
330
0
100
AcDbSymbolTable
 70
0
  0
ENDTAB
  0
TABLE
  2
APPID
  5
3
330
0
100
AcDbSymbolTable
 70
3
  0
APPID
  5
2A
330
3
100
AcDbSymbolTableRecord
100
AcDbRegAppTableRecord
  2
ACAD
 70
0
  0
APPID
  5
11C
330
3
100
AcDbSymbolTableRecord
100
AcDbRegAppTableRecord
  2
HATCHBACKGROUNDCOLOR
 70
0
  0
APPID
  5
11D
330
3
100
AcDbSymbolTableRecord
100
AcDbRegAppTableRecord
  2
EZDXF
 70
0
  0
ENDTAB
  0
TABLE
  2
DIMSTYLE
  5
4
330
0
100
AcDbSymbolTable
 70
1
100
AcDbDimStyleTable
  0
DIMSTYLE
105
2B
330
4
100
AcDbSymbolTableRecord
100
AcDbDimStyleTableRecord
  2
Standard
 70
0
  3

  4

 40
1.0
 41
2.5
 42
0.625
 43
3.75
 44
1.25
 45
0.0
 46
0.0
 47
0.0
 48
0.0
140
2.5
141
2.5
142
0.0
143
0.03937007874
144
1.0
145
0.0
146
1.0
147
0.625
148
0.0
 71
0
 72
0
 73
0
 74
0
 75
0
 76
0
 77
1
 78
8
 79
3
170
0
171
3
172
1
173
0
174
0
175
0
176
0
177
0
178
0
179
2
271
2
272
2
273
2
274
3
275
0
276
0
277
2
278
44
279
0
280
0
281
0
282
0
283
0
284
8
285
0
286
0
288
0
289
3
371
-2
372
-2
  0
ENDTAB
  0
TABLE
  2
BLOCK_RECORD
  5
9
330
0
100
AcDbSymbolTable
 70
2
  0
BLOCK_RECORD
  5
17
330
9
100
AcDbSymbolTableRecord
100
AcDbBlockTableRecord
  2
*Model_Space
340
1A
  0
BLOCK_RECORD
  5
1B
330
9
100
AcDbSymbolTableRecord
100
AcDbBlockTableRecord
  2
*Paper_Space
340
1E
  0
ENDTAB
  0
ENDSEC
  0
SECTION
  2
BLOCKS
  0
BLOCK
  5
18
330
17
100
AcDbEntity
  8
0
100
AcDbBlockBegin
  2
*Model_Space
 70
0
 10
0.0
 20
0.0
 30
0.0
  3
*Model_Space
  1

  0
ENDBLK
  5
19
330
17
100
AcDbEntity
  8
0
100
AcDbBlockEnd
  0
BLOCK
  5
1C
330
1B
100
AcDbEntity
  8
0
100
AcDbBlockBegin
  2
*Paper_Space
 70
0
 10
0.0
 20
0.0
 30
0.0
  3
*Paper_Space
  1

  0
ENDBLK
  5
1D
330
1B
100
AcDbEntity
  8
0
100
AcDbBlockEnd
  0
ENDSEC
  0
SECTION
  2
ENTITIES
  0
LWPOLYLINE
  5
30
330
17
100
AcDbEntity
  8
0
 62
5
100
AcDbPolyline
 90
3
 70
0
 10
106.18627145085803
 20
47.45454545454545
 10
110.90460218408737
 20
48.51552106430155
 10
114.19313572542902
 20
48.756651884700666
  0
LWPOLYLINE
  5
31
330
17
100
AcDbEntity
  8
0
 62
5
100
AcDbPolyline
 90
3
 70
0
 10
114.19313572542902
 20
48.756651884700666
 10
110.95226209048361
 20
48.51552106430155
 10
106.18627145085803
 20
47.45454545454545
  0
LWPOLYLINE
  5
33
330
17
100
AcDbEntity
  8
0
 62
6
100
AcDbPolyline
 90
2
 70
0
 10
103.04071762870515
 20
46.68292682926829
 10
103.0883775351014
 20
46.972283813747225
  0
LWPOLYLINE
  5
34
330
17
100
AcDbEntity
  8
0
 62
6
100
AcDbPolyline
 90
2
 70
0
 10
103.0883775351014
 20
46.972283813747225
 10
105.9003120124805
 20
47.40631929046563
  0
LWPOLYLINE
  5
35
330
17
100
AcDbEntity
  8
0
 62
6
100
AcDbPolyline
 90
2
 70
0
 10
105.9003120124805
 20
47.40631929046563
 10
103.0883775351014
 20
46.972283813747225
  0
LWPOLYLINE
  5
36
330
17
100
AcDbEntity
  8
0
 62
6
100
AcDbPolyline
 90
2
 70
0
 10
103.0883775351014
 20
46.972283813747225
 10
103.04071762870515
 20
46.68292682926829
  0
SPLINE
  5
37
330
17
100
AcDbEntity
  8
0
 62
4
100
AcDbSpline
 70
0
 71
3
 72
0
 73
0
 74
4
 11
103.04071762870515
 21
46.68292682926829
 31
0.0
 11
105.99563182527301
 21
47.30986696230599
 31
0.0
 11
107.42542901716068
 21
47.16518847006652
 31
0.0
 11
114.33611544461779
 21
48.708425720620845
 31
0.0
  0
SPLINE
  5
38
330
17
100
AcDbEntity
  8
0
 62
4
100
AcDbSpline
 70
0
 71
3
 72
0
 73
0
 74
4
 11
114.33611544461779
 21
48.708425720620845
 31
0.0
 11
107.42542901716068
 21
47.16518847006652
 31
0.0
 11
106.04329173166927
 21
47.30986696230599
 31
0.0
 11
103.04071762870515
 21
46.68292682926829
 31
0.0
  0
LWPOLYLINE
  5
3A
330
17
100
AcDbEntity
  8
0
 62
5
100
AcDbPolyline
 90
3
 70
0
 10
98.27472698907957
 20
46.10421286031042
 10
99.22792511700467
 20
46.490022172949004
 10
102.03985959438377
 20
46.73115299334811
  0
LWPOLYLINE
  5
3B
330
17
100
AcDbEntity
  8
0
 62
5
100
AcDbPolyline
 90
3
 70
0
 10
102.03985959438377
 20
46.73115299334811
 10
99.22792511700467
 20
46.490022172949004
 10
98.27472698907957
 20
46.10421286031042
  0
LWPOLYLINE
  5
3D
330
17
100
AcDbEntity
  8
0
 62
6
100
AcDbPolyline
 90
2
 70
0
 10
98.1317472698908
 20
45.959534368070955
 10
102.18283931357254
 20
46.68292682926829
  0
LWPOLYLINE
  5
3E
330
17
100
AcDbEntity
  8
0
 62
6
100
AcDbPolyline
 90
2
 70
0
 10
102.18283931357254
 20
46.68292682926829
 10
98.1317472698908
 20
45.959534368070955
  0
LWPOLYLINE
  5
40
330
17
100
AcDbEntity
  8
0
 62
5
100
AcDbPolyline
 90
3
 70
0
 10
107.13946957878315
 20
43.06596452328159
 10
103.75561622464899
 20
44.80210643015521
 10
102.46879875195008
 20
44.80210643015521
  0
LWPOLYLINE
  5
41
330
17
100
AcDbEntity
  8
0
 62
6
100
AcDbPolyline
 90
2
 70
0
 10
102.46879875195008
 20
44.80210643015521
 10
102.03985959438377
 20
45.13968957871397
  0
LWPOLYLINE
  5
42
330
17
100
AcDbEntity
  8
0
 62
6
100
AcDbPolyline
 90
2
 70
0
 10
102.03985959438377
 20
45.13968957871397
 10
105.9003120124805
 20
45.23614190687361
  0
LWPOLYLINE
  5
43
330
17
100
AcDbEntity
  8
0
 62
6
100
AcDbPolyline
 90
2
 70
0
 10
105.9003120124805
 20
45.23614190687361
 10
108.045007800312
 20
43.9340354767184
  0
LWPOLYLINE
  5
44
330
17
100
AcDbEntity
  8
0
 62
6
100
AcDbPolyline
 90
2
 70
0
 10
108.045007800312
 20
43.9340354767184
 10
107.13946957878315
 20
43.06596452328159
  0
LWPOLYLINE
  5
46
330
17
100
AcDbEntity
  8
0
 62
6
100
AcDbPolyline
 90
2
 70
0
 10
102.03985959438377
 20
37.809312638580934
 10
100.32410296411857
 20
38.19512195121951
  0
LWPOLYLINE
  5
47
330
17
100
AcDbEntity
  8
0
 62
6
100
AcDbPolyline
 90
2
 70
0
 10
100.32410296411857
 20
38.19512195121951
 10
100.32410296411857
 20
38.72560975609756
  0
SPLINE
  5
48
330
17
100
AcDbEntity
  8
0
 62
4
100
AcDbSpline
 70
0
 71
3
 72
0
 73
0
 74
4
 11
100.32410296411857
 21
38.72560975609756
 31
0.0
 11
106.6628705148206
 21
39.30432372505543
 31
0.0
 11
108.8075663026521
 21
39.83481152993348
 31
0.0
 11
110.04672386895476
 21
39.64190687361419
 31
0.0
  0
LWPOLYLINE
  5
49
330
17
100
AcDbEntity
  8
0
 62
6
100
AcDbPolyline
 90
2
 70
0
 10
110.04672386895476
 20
39.64190687361419
 10
109.9990639625585
 20
39.15964523281596
  0
LWPOLYLINE
  5
4A
330
17
100
AcDbEntity
  8
0
 62
5
100
AcDbPolyline
 90
3
 70
0
 10
109.9990639625585
 20
39.15964523281596
 10
108.61692667706708
 20
39.11141906873614
 10
106.56755070202809
 20
38.14689578713969
  0
LWPOLYLINE
  5
4B
330
17
100
AcDbEntity
  8
0
 62
6
100
AcDbPolyline
 90
2
 70
0
 10
106.56755070202809
 20
38.14689578713969
 10
103.80327613104524
 20
38.436252771618626
  0
LWPOLYLINE
  5
4C
330
17
100
AcDbEntity
  8
0
 62
5
100
AcDbPolyline
 90
3
 70
0
 10
103.80327613104524
 20
38.436252771618626
 10
103.04071762870515
 20
37.9539911308204
 10
102.03985959438377
 20
37.809312638580934
  0
LWPOLYLINE
  5
4E
330
17
100
AcDbEntity
  8
0
 62
6
100
AcDbPolyline
 90
2
 70
0
 10
107.85436817472699
 20
37.08592017738359
 10
107.04414976599064
 20
37.56818181818182
  0
LWPOLYLINE
  5
4F
330
17
100
AcDbEntity
  8
0
 62
6
100
AcDbPolyline
 90
2
 70
0
 10
107.04414976599064
 20
37.56818181818182
 10
107.37776911076443
 20
38.14689578713969
  0
LWPOLYLINE
  5
50
330
17
100
AcDbEntity
  8
0
 62
5
100
AcDbPolyline
 90
3
 70
0
 10
107.37776911076443
 20
38.14689578713969
 10
109.09352574102964
 20
38.48447893569845
 10
110.33268330733229
 20
39.11141906873614
  0
LWPOLYLINE
  5
51
330
17
100
AcDbEntity
  8
0
 62
6
100
AcDbPolyline
 90
2
 70
0
 10
110.33268330733229
 20
39.11141906873614
 10
113.28759750390016
 20
38.09866962305987
  0
LWPOLYLINE
  5
52
330
17
100
AcDbEntity
  8
0
 62
6
100
AcDbPolyline
 90
2
 70
0
 10
113.28759750390016
 20
38.09866962305987
 10
112.95397815912636
 20
37.809312638580934
  0
LWPOLYLINE
  5
53
330
17
100
AcDbEntity
  8
0
 62
6
100
AcDbPolyline
 90
2
 70
0
 10
112.95397815912636
 20
37.809312638580934
 10
112.33439937597504
 20
38.19512195121951
  0
LWPOLYLINE
  5
54
330
17
100
AcDbEntity
  8
0
 62
5
100
AcDbPolyline
 90
3
 70
0
 10
112.33439937597504
 20
38.19512195121951
 10
109.61778471138845
 20
37.182372505543235
 10
107.85436817472699
 20
37.08592017738359
  0
LWPOLYLINE
  5
56
330
17
100
AcDbEntity
  8
0
 62
6
100
AcDbPolyline
 90
2
 70
0
 10
66.00897035881435
 20
35.25332594235033
 10
55.42847113884555
 20
36.169623059866964
  0
LWPOLYLINE
  5
57
330
17
100
AcDbEntity
  8
0
 62
6
100
AcDbPolyline
 90
2
 70
0
 10
55.42847113884555
 20
36.169623059866964
 10
56.42932917316693
 20
45.52549889135255
  0
LWPOLYLINE
  5
58
330
17
100
AcDbEntity
  8
0
 62
6
100
AcDbPolyline
 90
2
 70
0
 10
56.42932917316693
 20
45.52549889135255
 10
57.09656786271451
 20
45.47727272727273
  0
SPLINE
  5
59
330
17
100
AcDbEntity
  8
0
 62
4
100
AcDbSpline
 70
0
 71
3
 72
0
 73
0
 74
7
 11
57.09656786271451
 21
45.47727272727273
 31
0.0
 11
57.62082683307332
 21
45.81485587583148
 31
0.0
 11
59.241263650546024
 21
48.611973392461195
 31
0.0
 11
61.43361934477379
 21
50.830376940133036
 31
0.0
 11
63.91193447737909
 21
52.27716186252771
 31
0.0
 11
65.43705148205927
 21
52.71119733924612
 31
0.0
 11
65.91365054602184
 21
52.71119733924612
 31
0.0
  0
SPLINE
  5
5A
330
17
100
AcDbEntity
  8
0
 62
4
100
AcDbSpline
 70
0
 71
3
 72
0
 73
0
 74
5
 11
65.91365054602184
 21
52.71119733924612
 31
0.0
 11
65.5323712948518
 21
45.09146341463415
 31
0.0
 11
65.67535101404056
 21
41.570953436807095
 31
0.0
 11
66.91450858034321
 21
35.639135254988915
 31
0.0
 11
66.8191887675507
 21
35.25332594235033
 31
0.0
  0
LWPOLYLINE
  5
5B
330
17
100
AcDbEntity
  8
0
 62
6
100
AcDbPolyline
 90
2
 70
0
 10
66.8191887675507
 20
35.25332594235033
 10
66.00897035881435
 20
35.25332594235033
  0
LWPOLYLINE
  5
5D
330
17
100
AcDbEntity
  8
0
 62
6
100
AcDbPolyline
 90
2
 70
0
 10
45.61053042121685
 20
34.81929046563193
 10
45.32457098283931
 20
35.20509977827051
  0
LWPOLYLINE
  5
5E
330
17
100
AcDbEntity
  8
0
 62
6
100
AcDbPolyline
 90
2
 70
0
 10
45.32457098283931
 20
35.20509977827051
 10
44.228393135725426
 20
57.77494456762749
  0
LWPOLYLINE
  5
5F
330
17
100
AcDbEntity
  8
0
 62
6
100
AcDbPolyline
 90
2
 70
0
 10
44.228393135725426
 20
57.77494456762749
 10
45.46755070202808
 20
58.16075388026607
  0
SPLINE
  5
60
330
17
100
AcDbEntity
  8
0
 62
4
100
AcDbSpline
 70
0
 71
3
 72
0
 73
0
 74
5
 11
45.46755070202808
 21
58.16075388026607
 31
0.0
 11
47.32628705148206
 21
62.211751662971174
 31
0.0
 11
49.042043681747266
 21
64.1890243902439
 31
0.0
 11
50.80546021840873
 21
65.4911308203991
 31
0.0
 11
52.75951638065523
 21
66.21452328159646
 31
0.0
  0
SPLINE
  5
61
330
17
100
AcDbEntity
  8
0
 62
4
100
AcDbSpline
 70
0
 71
3
 72
0
 73
0
 74
4
 11
52.75951638065523
 21
66.21452328159646
 31
0.0
 11
53.99867394695788
 21
51.74667405764966
 31
0.0
 11
52.997815912636504
 21
42.96951219512195
 31
0.0
 11
53.14079563182527
 21
35.108647450110865
 31
0.0
  0
LWPOLYLINE
  5
62
330
17
100
AcDbEntity
  8
0
 62
6
100
AcDbPolyline
 90
2
 70
0
 10
53.14079563182527
 20
35.108647450110865
 10
45.61053042121685
 20
34.81929046563193
  0
LWPOLYLINE
  5
64
330
17
100
AcDbEntity
  8
0
 62
6
100
AcDbPolyline
 90
2
 70
0
 10
10.008580343213728
 20
34.48170731707317
 10
4.432371294851794
 20
36.50720620842572
  0
SPLINE
  5
65
330
17
100
AcDbEntity
  8
0
 62
4
100
AcDbSpline
 70
0
 71
3
 72
0
 73
0
 74
5
 11
4.432371294851794
 21
36.50720620842572
 31
0.0
 11
5.05195007800312
 21
40.70288248337029
 31
0.0
 11
5.623868954758191
 21
48.22616407982262
 31
0.0
 11
5.671528861154446
 21
52.27716186252771
 31
0.0
 11
5.385569422776911
 21
54.83314855875832
 31
0.0
  0
LWPOLYLINE
  5
66
330
17
100
AcDbEntity
  8
0
 62
6
100
AcDbPolyline
 90
2
 70
0
 10
5.385569422776911
 20
54.83314855875832
 10
6.243447737909516
 20
54.30266075388027
  0
LWPOLYLINE
  5
67
330
17
100
AcDbEntity
  8
0
 62
6
100
AcDbPolyline
 90
2
 70
0
 10
6.243447737909516
 20
54.30266075388027
 10
6.481747269890795
 20
53.531042128603104
  0
LWPOLYLINE
  5
68
330
17
100
AcDbEntity
  8
0
 62
6
100
AcDbPolyline
 90
2
 70
0
 10
6.481747269890795
 20
53.531042128603104
 10
7.053666146645866
 20
53.48281596452328
  0
LWPOLYLINE
  5
69
330
17
100
AcDbEntity
  8
0
 62
6
100
AcDbPolyline
 90
2
 70
0
 10
7.053666146645866
 20
53.48281596452328
 10
7.530265210608424
 20
53.86862527716186
  0
LWPOLYLINE
  5
6A
330
17
100
AcDbEntity
  8
0
 62
6
100
AcDbPolyline
 90
2
 70
0
 10
7.530265210608424
 20
53.86862527716186
 10
6.910686427457098
 20
54.5920177383592
  0
LWPOLYLINE
  5
6B
330
17
100
AcDbEntity
  8
0
 62
6
100
AcDbPolyline
 90
2
 70
0
 10
6.910686427457098
 20
54.5920177383592
 10
5.337909516380655
 20
54.92960088691796
  0
LWPOLYLINE
  5
6C
330
17
100
AcDbEntity
  8
0
 62
6
100
AcDbPolyline
 90
2
 70
0
 10
5.337909516380655
 20
54.92960088691796
 10
4.813650546021841
 20
55.749445676274945
  0
LWPOLYLINE
  5
6D
330
17
100
AcDbEntity
  8
0
 62
6
100
AcDbPolyline
 90
2
 70
0
 10
4.813650546021841
 20
55.749445676274945
 10
13.154134165366614
 20
55.701219512195124
  0
LWPOLYLINE
  5
6E
330
17
100
AcDbEntity
  8
0
 62
6
100
AcDbPolyline
 90
2
 70
0
 10
13.154134165366614
 20
55.701219512195124
 10
13.20179407176287
 20
54.688470066518846
  0
LWPOLYLINE
  5
6F
330
17
100
AcDbEntity
  8
0
 62
6
100
AcDbPolyline
 90
2
 70
0
 10
13.20179407176287
 20
54.688470066518846
 10
13.773712948517941
 20
54.30266075388027
  0
LWPOLYLINE
  5
70
330
17
100
AcDbEntity
  8
0
 62
6
100
AcDbPolyline
 90
2
 70
0
 10
13.773712948517941
 20
54.30266075388027
 10
14.440951638065522
 20
54.92960088691796
  0
LWPOLYLINE
  5
71
330
17
100
AcDbEntity
  8
0
 62
6
100
AcDbPolyline
 90
2
 70
0
 10
14.440951638065522
 20
54.92960088691796
 10
13.487753510140406
 20
54.83314855875832
  0
LWPOLYLINE
  5
72
330
17
100
AcDbEntity
  8
0
 62
6
100
AcDbPolyline
 90
2
 70
0
 10
13.487753510140406
 20
54.83314855875832
 10
13.535413416536661
 20
55.604767184035474
  0
LWPOLYLINE
  5
73
330
17
100
AcDbEntity
  8
0
 62
5
100
AcDbPolyline
 90
3
 70
0
 10
13.535413416536661
 20
55.604767184035474
 10
14.393291731669267
 20
55.50831485587583
 10
15.394149765990639
 20
55.89412416851441
  0
SPLINE
  5
74
330
17
100
AcDbEntity
  8
0
 62
4
100
AcDbSpline
 70
0
 71
3
 72
0
 73
0
 74
7
 11
15.394149765990639
 21
55.89412416851441
 31
0.0
 11
14.059672386895475
 21
56.183481152993345
 31
0.0
 11
11.057098283931357
 21
55.94235033259424
 31
0.0
 11
8.9600624024961
 21
56.42461197339246
 31
0.0
 11
6.767706708268331
 21
56.0870288248337
 31
0.0
 11
4.432371294851794
 21
56.13525498891352
 31
0.0
 11
1.3344773790951638
 21
57.5820399113082
 31
0.0
  0
LWPOLYLINE
  5
75
330
17
100
AcDbEntity
  8
0
 62
5
100
AcDbPolyline
 90
3
 70
0
 10
1.3344773790951638
 20
57.5820399113082
 10
1.5727769110764431
 20
58.83592017738359
 10
1.8110764430577222
 20
59.17350332594235
  0
LWPOLYLINE
  5
76
330
17
100
AcDbEntity
  8
0
 62
6
100
AcDbPolyline
 90
2
 70
0
 10
1.8110764430577222
 20
59.17350332594235
 10
2.9549141965678625
 20
59.12527716186253
  0
LWPOLYLINE
  5
77
330
17
100
AcDbEntity
  8
0
 62
6
100
AcDbPolyline
 90
2
 70
0
 10
2.9549141965678625
 20
59.12527716186253
 10
3.2408736349453977
 20
58.78769401330377
  0
LWPOLYLINE
  5
78
330
17
100
AcDbEntity
  8
0
 62
6
100
AcDbPolyline
 90
2
 70
0
 10
3.2408736349453977
 20
58.78769401330377
 10
3.526833073322933
 20
59.077050997782706
  0
SPLINE
  5
79
330
17
100
AcDbEntity
  8
0
 62
4
100
AcDbSpline
 70
0
 71
3
 72
0
 73
0
 74
4
 11
3.526833073322933
 21
59.077050997782706
 31
0.0
 11
14.202652106084242
 21
59.077050997782706
 31
0.0
 11
21.494617784711387
 21
58.73946784922395
 31
0.0
 11
22.018876755070202
 21
58.980598669623056
 31
0.0
  0
LWPOLYLINE
  5
7A
330
17
100
AcDbEntity
  8
0
 62
6
100
AcDbPolyline
 90
2
 70
0
 10
22.018876755070202
 20
58.980598669623056
 10
21.685257410296412
 20
59.36640798226164
  0
LWPOLYLINE
  5
7B
330
17
100
AcDbEntity
  8
0
 62
6
100
AcDbPolyline
 90
2
 70
0
 10
21.685257410296412
 20
59.36640798226164
 10
21.494617784711387
 20
60.716740576496676
  0
LWPOLYLINE
  5
7C
330
17
100
AcDbEntity
  8
0
 62
6
100
AcDbPolyline
 90
2
 70
0
 10
21.494617784711387
 20
60.716740576496676
 10
21.303978159126366
 20
59.31818181818182
  0
LWPOLYLINE
  5
7D
330
17
100
AcDbEntity
  8
0
 62
5
100
AcDbPolyline
 90
3
 70
0
 10
21.303978159126366
 20
59.31818181818182
 10
20.54141965678627
 20
59.077050997782706
 10
19.63588143525741
 20
59.17350332594235
  0
LWPOLYLINE
  5
7E
330
17
100
AcDbEntity
  8
0
 62
6
100
AcDbPolyline
 90
2
 70
0
 10
19.63588143525741
 20
59.17350332594235
 10
19.87418096723869
 20
59.84866962305987
  0
LWPOLYLINE
  5
7F
330
17
100
AcDbEntity
  8
0
 62
6
100
AcDbPolyline
 90
2
 70
0
 10
19.87418096723869
 20
59.84866962305987
 10
18.444383775351014
 20
59.462860310421284
  0
LWPOLYLINE
  5
80
330
17
100
AcDbEntity
  8
0
 62
6
100
AcDbPolyline
 90
2
 70
0
 10
18.444383775351014
 20
59.462860310421284
 10
17.777145085803433
 20
59.80044345898004
  0
LWPOLYLINE
  5
81
330
17
100
AcDbEntity
  8
0
 62
6
100
AcDbPolyline
 90
2
 70
0
 10
17.777145085803433
 20
59.80044345898004
 10
15.489469578783151
 20
59.607538802660756
  0
LWPOLYLINE
  5
82
330
17
100
AcDbEntity
  8
0
 62
6
100
AcDbPolyline
 90
2
 70
0
 10
15.489469578783151
 20
59.607538802660756
 10
14.869890795631825
 20
60.42738359201774
  0
SPLINE
  5
83
330
17
100
AcDbEntity
  8
0
 62
4
100
AcDbSpline
 70
0
 71
3
 72
0
 73
0
 74
4
 11
14.869890795631825
 21
60.42738359201774
 31
0.0
 11
12.96349453978159
 21
59.7039911308204
 31
0.0
 11
11.962636505460218
 21
59.84866962305987
 31
0.0
 11
11.152418096723869
 21
60.47560975609756
 31
0.0
  0
LWPOLYLINE
  5
84
330
17
100
AcDbEntity
  8
0
 62
6
100
AcDbPolyline
 90
2
 70
0
 10
11.152418096723869
 20
60.47560975609756
 10
10.34219968798752
 20
60.041574279379155
  0
LWPOLYLINE
  5
85
330
17
100
AcDbEntity
  8
0
 62
6
100
AcDbPolyline
 90
2
 70
0
 10
10.34219968798752
 20
60.041574279379155
 10
9.913260530421217
 20
60.28270509977827
  0
SPLINE
  5
86
330
17
100
AcDbEntity
  8
0
 62
4
100
AcDbSpline
 70
0
 71
3
 72
0
 73
0
 74
4
 11
9.913260530421217
 21
60.28270509977827
 31
0.0
 11
9.341341653666147
 21
60.041574279379155
 31
0.0
 11
6.672386895475819
 21
60.33093126385809
 31
0.0
 11
3.765132605304212
 21
59.462860310421284
 31
0.0
  0
LWPOLYLINE
  5
87
330
17
100
AcDbEntity
  8
0
 62
6
100
AcDbPolyline
 90
2
 70
0
 10
3.765132605304212
 20
59.462860310421284
 10
3.7174726989079563
 20
60.86141906873614
  0
LWPOLYLINE
  5
88
330
17
100
AcDbEntity
  8
0
 62
6
100
AcDbPolyline
 90
2
 70
0
 10
3.7174726989079563
 20
60.86141906873614
 10
3.09789391575663
 20
59.36640798226164
  0
LWPOLYLINE
  5
89
330
17
100
AcDbEntity
  8
0
 62
6
100
AcDbPolyline
 90
2
 70
0
 10
3.09789391575663
 20
59.36640798226164
 10
1.8587363494539781
 20
59.36640798226164
  0
LWPOLYLINE
  5
8A
330
17
100
AcDbEntity
  8
0
 62
5
100
AcDbPolyline
 90
3
 70
0
 10
1.8587363494539781
 20
59.36640798226164
 10
5.623868954758191
 20
74.02716186252772
 10
5.766848673946958
 20
74.31651884700665
  0
LWPOLYLINE
  5
8B
330
17
100
AcDbEntity
  8
0
 62
5
100
AcDbPolyline
 90
3
 70
0
 10
5.766848673946958
 20
74.31651884700665
 10
7.148985959438377
 20
74.36474501108647
 10
22.40015600624025
 20
73.83425720620842
  0
LWPOLYLINE
  5
8C
330
17
100
AcDbEntity
  8
0
 62
5
100
AcDbPolyline
 90
3
 70
0
 10
22.40015600624025
 20
73.83425720620842
 10
23.067394695787833
 20
56.37638580931264
 10
22.781435257410298
 20
39.78658536585366
  0
SPLINE
  5
8D
330
17
100
AcDbEntity
  8
0
 62
4
100
AcDbSpline
 70
0
 71
3
 72
0
 73
0
 74
5
 11
22.781435257410298
 21
39.78658536585366
 31
0.0
 11
17.538845553822153
 21
39.15964523281596
 31
0.0
 11
14.34563182527301
 21
38.19512195121951
 31
0.0
 11
12.153276131045242
 21
36.8930155210643
 31
0.0
 11
10.008580343213728
 21
34.48170731707317
 31
0.0
  0
LWPOLYLINE
  5
8F
330
17
100
AcDbEntity
  8
0
 62
5
100
AcDbPolyline
 90
3
 70
0
 10
30.740639625585022
 20
34.14412416851441
 10
30.025741029641186
 20
35.73558758314856
 10
27.92870514820593
 20
43.01773835920177
  0
LWPOLYLINE
  5
90
330
17
100
AcDbEntity
  8
0
 62
6
100
AcDbPolyline
 90
2
 70
0
 10
27.92870514820593
 20
43.01773835920177
 10
28.214664586583464
 20
43.69290465631929
  0
LWPOLYLINE
  5
91
330
17
100
AcDbEntity
  8
0
 62
6
100
AcDbPolyline
 90
2
 70
0
 10
28.214664586583464
 20
43.69290465631929
 10
27.738065522620904
 20
43.9340354767184
  0
LWPOLYLINE
  5
92
330
17
100
AcDbEntity
  8
0
 62
5
100
AcDbPolyline
 90
3
 70
0
 10
27.738065522620904
 20
43.9340354767184
 10
27.404446177847113
 20
44.80210643015521
 10
24.401872074882995
 20
55.36363636363636
  0
LWPOLYLINE
  5
93
330
17
100
AcDbEntity
  8
0
 62
6
100
AcDbPolyline
 90
2
 70
0
 10
24.401872074882995
 20
55.36363636363636
 10
25.11677067082683
 20
55.604767184035474
  0
LWPOLYLINE
  5
94
330
17
100
AcDbEntity
  8
0
 62
6
100
AcDbPolyline
 90
2
 70
0
 10
25.11677067082683
 20
55.604767184035474
 10
24.401872074882995
 20
55.36363636363636
  0
LWPOLYLINE
  5
95
330
17
100
AcDbEntity
  8
0
 62
5
100
AcDbPolyline
 90
3
 70
0
 10
24.401872074882995
 20
55.36363636363636
 10
25.02145085803432
 20
52.61474501108648
 10
27.595085803432138
 20
44.22339246119734
  0
LWPOLYLINE
  5
96
330
17
100
AcDbEntity
  8
0
 62
6
100
AcDbPolyline
 90
2
 70
0
 10
27.595085803432138
 20
44.22339246119734
 10
28.214664586583464
 20
43.69290465631929
  0
LWPOLYLINE
  5
97
330
17
100
AcDbEntity
  8
0
 62
6
100
AcDbPolyline
 90
2
 70
0
 10
28.214664586583464
 20
43.69290465631929
 10
27.92870514820593
 20
43.01773835920177
  0
LWPOLYLINE
  5
98
330
17
100
AcDbEntity
  8
0
 62
6
100
AcDbPolyline
 90
2
 70
0
 10
27.92870514820593
 20
43.01773835920177
 10
30.597659906396256
 20
34.28880266075388
  0
LWPOLYLINE
  5
99
330
17
100
AcDbEntity
  8
0
 62
5
100
AcDbPolyline
 90
3
 70
0
 10
30.597659906396256
 20
34.28880266075388
 10
31.074258970358812
 20
34.28880266075388
 10
35.79258970358814
 20
36.94124168514412
  0
SPLINE
  5
9A
330
17
100
AcDbEntity
  8
0
 62
4
100
AcDbSpline
 70
0
 71
3
 72
0
 73
0
 74
7
 11
35.79258970358814
 21
36.94124168514412
 31
0.0
 11
34.07683307332293
 21
44.03048780487805
 31
0.0
 11
33.64789391575663
 21
50.58924611973392
 31
0.0
 11
34.17215288611544
 21
52.37361419068736
 31
0.0
 11
34.93471138845554
 21
53.14523281596452
 31
0.0
 11
36.69812792511701
 21
54.109756097560975
 31
0.0
 11
39.55772230889235
 21
54.640243902439025
 31
0.0
  0
LWPOLYLINE
  5
9B
330
17
100
AcDbEntity
  8
0
 62
5
100
AcDbPolyline
 90
3
 70
0
 10
39.55772230889235
 20
54.640243902439025
 10
39.224102964118565
 20
71.76053215077606
 10
38.98580343213729
 20
72.19456762749445
  0
LWPOLYLINE
  5
9C
330
17
100
AcDbEntity
  8
0
 62
6
100
AcDbPolyline
 90
2
 70
0
 10
38.98580343213729
 20
72.19456762749445
 10
28.309984399375974
 20
73.73780487804878
  0
SPLINE
  5
9D
330
17
100
AcDbEntity
  8
0
 62
4
100
AcDbSpline
 70
0
 71
3
 72
0
 73
0
 74
4
 11
28.309984399375974
 21
73.73780487804878
 31
0.0
 11
27.92870514820593
 21
69.97616407982261
 31
0.0
 11
27.166146645865833
 21
66.35920177383592
 31
0.0
 11
24.163572542901715
 21
57.5820399113082
 31
0.0
  0
LWPOLYLINE
  5
9E
330
17
100
AcDbEntity
  8
0
 62
6
100
AcDbPolyline
 90
2
 70
0
 10
24.163572542901715
 20
57.5820399113082
 10
24.54485179407176
 20
57.09977827050998
  0
LWPOLYLINE
  5
9F
330
17
100
AcDbEntity
  8
0
 62
6
100
AcDbPolyline
 90
2
 70
0
 10
24.54485179407176
 20
57.09977827050998
 10
24.163572542901715
 20
56.0870288248337
  0
LWPOLYLINE
  5
A0
330
17
100
AcDbEntity
  8
0
 62
6
100
AcDbPolyline
 90
2
 70
0
 10
24.163572542901715
 20
56.0870288248337
 10
24.878471138845555
 20
55.701219512195124
  0
LWPOLYLINE
  5
A1
330
17
100
AcDbEntity
  8
0
 62
6
100
AcDbPolyline
 90
2
 70
0
 10
24.878471138845555
 20
55.701219512195124
 10
24.163572542901715
 20
56.0870288248337
  0
LWPOLYLINE
  5
A2
330
17
100
AcDbEntity
  8
0
 62
6
100
AcDbPolyline
 90
2
 70
0
 10
24.163572542901715
 20
56.0870288248337
 10
24.163572542901715
 20
56.52106430155211
  0
LWPOLYLINE
  5
A3
330
17
100
AcDbEntity
  8
0
 62
6
100
AcDbPolyline
 90
2
 70
0
 10
24.163572542901715
 20
56.52106430155211
 10
24.54485179407176
 20
56.858647450110865
  0
LWPOLYLINE
  5
A4
330
17
100
AcDbEntity
  8
0
 62
6
100
AcDbPolyline
 90
2
 70
0
 10
24.54485179407176
 20
56.858647450110865
 10
24.163572542901715
 20
57.5820399113082
  0
LWPOLYLINE
  5
A5
330
17
100
AcDbEntity
  8
0
 62
5
100
AcDbPolyline
 90
3
 70
0
 10
24.163572542901715
 20
57.5820399113082
 10
27.166146645865833
 20
66.35920177383592
 10
28.35764430577223
 20
73.83425720620842
  0
LWPOLYLINE
  5
A6
330
17
100
AcDbEntity
  8
0
 62
6
100
AcDbPolyline
 90
2
 70
0
 10
28.35764430577223
 20
73.83425720620842
 10
38.98580343213729
 20
72.19456762749445
  0
LWPOLYLINE
  5
A7
330
17
100
AcDbEntity
  8
0
 62
5
100
AcDbPolyline
 90
3
 70
0
 10
38.98580343213729
 20
72.19456762749445
 10
39.224102964118565
 20
71.76053215077606
 10
39.55772230889235
 20
54.640243902439025
  0
SPLINE
  5
A8
330
17
100
AcDbEntity
  8
0
 62
4
100
AcDbSpline
 70
0
 71
3
 72
0
 73
0
 74
7
 11
39.55772230889235
 21
54.640243902439025
 31
0.0
 11
36.69812792511701
 21
54.109756097560975
 31
0.0
 11
35.03003120124805
 21
53.19345898004435
 31
0.0
 11
34.124492979719186
 21
52.27716186252771
 31
0.0
 11
33.64789391575663
 21
50.58924611973392
 31
0.0
 11
34.07683307332293
 21
44.03048780487805
 31
0.0
 11
35.79258970358814
 21
36.8930155210643
 31
0.0
  0
LWPOLYLINE
  5
A9
330
17
100
AcDbEntity
  8
0
 62
6
100
AcDbPolyline
 90
2
 70
0
 10
35.79258970358814
 20
36.8930155210643
 10
30.740639625585022
 20
34.14412416851441
  0
LWPOLYLINE
  5
AB
330
17
100
AcDbEntity
  8
0
 62
6
100
AcDbPolyline
 90
2
 70
0
 10
101.56326053042122
 20
32.890243902439025
 10
100.51474258970359
 20
33.17960088691796
  0
LWPOLYLINE
  5
AC
330
17
100
AcDbEntity
  8
0
 62
6
100
AcDbPolyline
 90
2
 70
0
 10
100.51474258970359
 20
33.17960088691796
 10
100.22878315132606
 20
33.66186252771619
  0
LWPOLYLINE
  5
AD
330
17
100
AcDbEntity
  8
0
 62
5
100
AcDbPolyline
 90
3
 70
0
 10
100.22878315132606
 20
33.66186252771619
 10
98.5606864274571
 20
33.51718403547672
 10
96.98790951638065
 20
33.66186252771619
  0
LWPOLYLINE
  5
AE
330
17
100
AcDbEntity
  8
0
 62
6
100
AcDbPolyline
 90
2
 70
0
 10
96.98790951638065
 20
33.66186252771619
 10
96.74960998439937
 20
33.951219512195124
  0
SPLINE
  5
AF
330
17
100
AcDbEntity
  8
0
 62
4
100
AcDbSpline
 70
0
 71
3
 72
0
 73
0
 74
4
 11
96.74960998439937
 21
33.951219512195124
 31
0.0
 11
97.94110764430577
 21
34.28880266075388
 31
0.0
 11
99.51388455538222
 21
34.28880266075388
 31
0.0
 11
100.6100624024961
 21
33.75831485587583
 31
0.0
  0
LWPOLYLINE
  5
B0
330
17
100
AcDbEntity
  8
0
 62
6
100
AcDbPolyline
 90
2
 70
0
 10
100.6100624024961
 20
33.75831485587583
 10
101.27730109204369
 20
34.04767184035477
  0
LWPOLYLINE
  5
B1
330
17
100
AcDbEntity
  8
0
 62
6
100
AcDbPolyline
 90
2
 70
0
 10
101.27730109204369
 20
34.04767184035477
 10
101.27730109204369
 20
33.468957871396896
  0
LWPOLYLINE
  5
B2
330
17
100
AcDbEntity
  8
0
 62
6
100
AcDbPolyline
 90
2
 70
0
 10
101.27730109204369
 20
33.468957871396896
 10
103.18369734789391
 20
33.51718403547672
  0
LWPOLYLINE
  5
B3
330
17
100
AcDbEntity
  8
0
 62
6
100
AcDbPolyline
 90
2
 70
0
 10
103.18369734789391
 20
33.51718403547672
 10
103.5173166926677
 20
33.13137472283814
  0
LWPOLYLINE
  5
B4
330
17
100
AcDbEntity
  8
0
 62
6
100
AcDbPolyline
 90
2
 70
0
 10
103.5173166926677
 20
33.13137472283814
 10
101.56326053042122
 20
32.890243902439025
  0
LWPOLYLINE
  5
B6
330
17
100
AcDbEntity
  8
0
 62
6
100
AcDbPolyline
 90
2
 70
0
 10
110.57098283931357
 20
28.356984478935697
 10
109.71310452418096
 20
28.887472283813747
  0
LWPOLYLINE
  5
B7
330
17
100
AcDbEntity
  8
0
 62
6
100
AcDbPolyline
 90
2
 70
0
 10
109.71310452418096
 20
28.887472283813747
 10
108.66458658346333
 20
28.887472283813747
  0
LWPOLYLINE
  5
B8
330
17
100
AcDbEntity
  8
0
 62
6
100
AcDbPolyline
 90
2
 70
0
 10
108.66458658346333
 20
28.887472283813747
 10
108.66458658346333
 20
29.417960088691796
  0
LWPOLYLINE
  5
B9
330
17
100
AcDbEntity
  8
0
 62
6
100
AcDbPolyline
 90
2
 70
0
 10
108.66458658346333
 20
29.417960088691796
 10
107.90202808112325
 20
30.141352549889135
  0
SPLINE
  5
BA
330
17
100
AcDbEntity
  8
0
 62
4
100
AcDbSpline
 70
0
 71
3
 72
0
 73
0
 74
5
 11
107.90202808112325
 21
30.141352549889135
 31
0.0
 11
107.09180967238689
 21
30.334257206208424
 31
0.0
 11
102.56411856474259
 21
29.176829268292682
 31
0.0
 11
99.03728549141965
 21
28.887472283813747
 31
0.0
 11
97.94110764430577
 21
29.12860310421286
 31
0.0
  0
LWPOLYLINE
  5
BB
330
17
100
AcDbEntity
  8
0
 62
6
100
AcDbPolyline
 90
2
 70
0
 10
97.94110764430577
 20
29.12860310421286
 10
97.98876755070202
 20
29.948447893569845
  0
LWPOLYLINE
  5
BC
330
17
100
AcDbEntity
  8
0
 62
6
100
AcDbPolyline
 90
2
 70
0
 10
97.98876755070202
 20
29.948447893569845
 10
98.84664586583463
 20
29.514412416851442
  0
LWPOLYLINE
  5
BD
330
17
100
AcDbEntity
  8
0
 62
6
100
AcDbPolyline
 90
2
 70
0
 10
98.84664586583463
 20
29.514412416851442
 10
98.70366614664586
 20
30.527161862527716
  0
LWPOLYLINE
  5
BE
330
17
100
AcDbEntity
  8
0
 62
6
100
AcDbPolyline
 90
2
 70
0
 10
98.70366614664586
 20
30.527161862527716
 10
99.60920436817473
 20
29.996674057649667
  0
LWPOLYLINE
  5
BF
330
17
100
AcDbEntity
  8
0
 62
6
100
AcDbPolyline
 90
2
 70
0
 10
99.60920436817473
 20
29.996674057649667
 10
102.03985959438377
 20
29.996674057649667
  0
SPLINE
  5
C0
330
17
100
AcDbEntity
  8
0
 62
4
100
AcDbSpline
 70
0
 71
3
 72
0
 73
0
 74
4
 11
102.03985959438377
 21
29.996674057649667
 31
0.0
 11
103.4219968798752
 21
30.912971175166298
 31
0.0
 11
104.99477379095164
 21
31.3470066518847
 31
0.0
 11
105.37605304212168
 21
31.3470066518847
 31
0.0
  0
LWPOLYLINE
  5
C1
330
17
100
AcDbEntity
  8
0
 62
6
100
AcDbPolyline
 90
2
 70
0
 10
105.37605304212168
 20
31.3470066518847
 10
105.9003120124805
 20
30.623614190687363
  0
LWPOLYLINE
  5
C2
330
17
100
AcDbEntity
  8
0
 62
6
100
AcDbPolyline
 90
2
 70
0
 10
105.9003120124805
 20
30.623614190687363
 10
106.42457098283931
 20
30.47893569844789
  0
LWPOLYLINE
  5
C3
330
17
100
AcDbEntity
  8
0
 62
6
100
AcDbPolyline
 90
2
 70
0
 10
106.42457098283931
 20
30.47893569844789
 10
106.37691107644305
 20
31.00942350332594
  0
LWPOLYLINE
  5
C4
330
17
100
AcDbEntity
  8
0
 62
6
100
AcDbPolyline
 90
2
 70
0
 10
106.37691107644305
 20
31.00942350332594
 10
105.66201248049921
 20
31.53991130820399
  0
LWPOLYLINE
  5
C5
330
17
100
AcDbEntity
  8
0
 62
6
100
AcDbPolyline
 90
2
 70
0
 10
105.66201248049921
 20
31.53991130820399
 10
106.85351014040562
 20
32.50443458980045
  0
SPLINE
  5
C6
330
17
100
AcDbEntity
  8
0
 62
4
100
AcDbSpline
 70
0
 71
3
 72
0
 73
0
 74
5
 11
106.85351014040562
 21
32.50443458980045
 31
0.0
 11
108.09266770670827
 21
31.298780487804876
 31
0.0
 11
109.52246489859594
 21
30.527161862527716
 31
0.0
 11
110.52332293291731
 21
30.47893569844789
 31
0.0
 11
111.71482059282371
 21
31.00942350332594
 31
0.0
  0
LWPOLYLINE
  5
C7
330
17
100
AcDbEntity
  8
0
 62
6
100
AcDbPolyline
 90
2
 70
0
 10
111.71482059282371
 20
31.00942350332594
 10
112.76333853354134
 20
30.38248337028825
  0
LWPOLYLINE
  5
C8
330
17
100
AcDbEntity
  8
0
 62
6
100
AcDbPolyline
 90
2
 70
0
 10
112.76333853354134
 20
30.38248337028825
 10
112.66801872074883
 20
29.996674057649667
  0
LWPOLYLINE
  5
C9
330
17
100
AcDbEntity
  8
0
 62
6
100
AcDbPolyline
 90
2
 70
0
 10
112.66801872074883
 20
29.996674057649667
 10
110.66630265210608
 20
30.23780487804878
  0
LWPOLYLINE
  5
CA
330
17
100
AcDbEntity
  8
0
 62
6
100
AcDbPolyline
 90
2
 70
0
 10
110.66630265210608
 20
30.23780487804878
 10
110.57098283931357
 20
28.356984478935697
  0
LWPOLYLINE
  5
CC
330
17
100
AcDbEntity
  8
0
 62
5
100
AcDbPolyline
 90
3
 70
0
 10
93.17511700468019
 20
23.196784922394677
 10
92.69851794071762
 20
25.8009977827051
 10
92.1742589703588
 20
33.13137472283814
  0
LWPOLYLINE
  5
CD
330
17
100
AcDbEntity
  8
0
 62
6
100
AcDbPolyline
 90
2
 70
0
 10
92.1742589703588
 20
33.13137472283814
 10
92.60319812792511
 20
33.999445676274945
  0
LWPOLYLINE
  5
CE
330
17
100
AcDbEntity
  8
0
 62
5
100
AcDbPolyline
 90
3
 70
0
 10
92.60319812792511
 20
33.999445676274945
 10
92.12659906396256
 20
34.81929046563193
 10
91.36404056162246
 20
44.27161862527716
  0
LWPOLYLINE
  5
CF
330
17
100
AcDbEntity
  8
0
 62
6
100
AcDbPolyline
 90
2
 70
0
 10
91.36404056162246
 20
44.27161862527716
 10
91.79297971918876
 20
44.94678492239468
  0
LWPOLYLINE
  5
D0
330
17
100
AcDbEntity
  8
0
 62
6
100
AcDbPolyline
 90
2
 70
0
 10
91.79297971918876
 20
44.94678492239468
 10
91.41170046801872
 20
45.13968957871397
  0
SPLINE
  5
D1
330
17
100
AcDbEntity
  8
0
 62
4
100
AcDbSpline
 70
0
 71
3
 72
0
 73
0
 74
4
 11
91.41170046801872
 21
45.13968957871397
 31
0.0
 11
91.36404056162246
 21
45.57372505543237
 31
0.0
 11
94.70023400936037
 21
61.729490022172946
 31
0.0
 11
94.9861934477379
 21
62.16352549889135
 31
0.0
  0
LWPOLYLINE
  5
D2
330
17
100
AcDbEntity
  8
0
 62
5
100
AcDbPolyline
 90
3
 70
0
 10
94.9861934477379
 20
62.16352549889135
 10
97.08322932917316
 20
63.07982261640798
 10
103.61263650546022
 20
65.34645232815964
  0
SPLINE
  5
D3
330
17
100
AcDbEntity
  8
0
 62
4
100
AcDbSpline
 70
0
 71
3
 72
0
 73
0
 74
8
 11
103.61263650546022
 21
65.34645232815964
 31
0.0
 11
105.09009360374415
 21
61.825942350332596
 31
0.0
 11
106.23393135725429
 21
60.08980044345898
 31
0.0
 11
109.52246489859594
 21
56.810421286031044
 31
0.0
 11
113.57355694227769
 21
53.579268292682926
 31
0.0
 11
114.95569422776911
 21
51.891352549889135
 31
0.0
 11
115.90889235569422
 21
50.05875831485587
 31
0.0
 11
116.1471918876755
 21
49.287139689578716
 31
0.0
  0
LWPOLYLINE
  5
D4
330
17
100
AcDbEntity
  8
0
 62
6
100
AcDbPolyline
 90
2
 70
0
 10
116.1471918876755
 20
49.287139689578716
 10
115.86123244929797
 20
49.0460088691796
  0
LWPOLYLINE
  5
D5
330
17
100
AcDbEntity
  8
0
 62
6
100
AcDbPolyline
 90
2
 70
0
 10
115.86123244929797
 20
49.0460088691796
 10
116.29017160686428
 20
48.80487804878049
  0
LWPOLYLINE
  5
D6
330
17
100
AcDbEntity
  8
0
 62
5
100
AcDbPolyline
 90
3
 70
0
 10
116.29017160686428
 20
48.80487804878049
 10
116.4808112324493
 20
48.033259423503324
 10
117.29102964118565
 20
36.02494456762749
  0
LWPOLYLINE
  5
D7
330
17
100
AcDbEntity
  8
0
 62
6
100
AcDbPolyline
 90
2
 70
0
 10
117.29102964118565
 20
36.02494456762749
 10
116.62379095163806
 20
35.8320399113082
  0
LWPOLYLINE
  5
D8
330
17
100
AcDbEntity
  8
0
 62
6
100
AcDbPolyline
 90
2
 70
0
 10
116.62379095163806
 20
35.8320399113082
 10
116.29017160686428
 20
35.34977827050998
  0
SPLINE
  5
D9
330
17
100
AcDbEntity
  8
0
 62
4
100
AcDbSpline
 70
0
 71
3
 72
0
 73
0
 74
5
 11
116.29017160686428
 21
35.34977827050998
 31
0.0
 11
115.33697347893916
 21
35.20509977827051
 31
0.0
 11
111.33354134165367
 21
35.20509977827051
 31
0.0
 11
104.32753510140405
 21
34.578159645232816
 31
0.0
 11
103.70795631825273
 21
34.19235033259424
 31
0.0
  0
LWPOLYLINE
  5
DA
330
17
100
AcDbEntity
  8
0
 62
6
100
AcDbPolyline
 90
2
 70
0
 10
103.70795631825273
 20
34.19235033259424
 10
104.47051482059283
 20
33.75831485587583
  0
LWPOLYLINE
  5
DB
330
17
100
AcDbEntity
  8
0
 62
6
100
AcDbPolyline
 90
2
 70
0
 10
104.47051482059283
 20
33.75831485587583
 10
109.28416536661466
 20
33.9029933481153
  0
LWPOLYLINE
  5
DC
330
17
100
AcDbEntity
  8
0
 62
5
100
AcDbPolyline
 90
3
 70
0
 10
109.28416536661466
 20
33.9029933481153
 10
105.09009360374415
 20
33.71008869179601
 10
103.70795631825273
 20
34.14412416851441
  0
SPLINE
  5
DD
330
17
100
AcDbEntity
  8
0
 62
4
100
AcDbSpline
 70
0
 71
3
 72
0
 73
0
 74
5
 11
103.70795631825273
 21
34.14412416851441
 31
0.0
 11
104.32753510140405
 21
34.578159645232816
 31
0.0
 11
105.99563182527301
 21
34.86751662971175
 31
0.0
 11
115.33697347893916
 21
35.20509977827051
 31
0.0
 11
116.29017160686428
 21
35.34977827050998
 31
0.0
  0
LWPOLYLINE
  5
DE
330
17
100
AcDbEntity
  8
0
 62
6
100
AcDbPolyline
 90
2
 70
0
 10
116.29017160686428
 20
35.34977827050998
 10
116.52847113884555
 20
35.78381374722838
  0
LWPOLYLINE
  5
DF
330
17
100
AcDbEntity
  8
0
 62
6
100
AcDbPolyline
 90
2
 70
0
 10
116.52847113884555
 20
35.78381374722838
 10
117.29102964118565
 20
36.073170731707314
  0
LWPOLYLINE
  5
E0
330
17
100
AcDbEntity
  8
0
 62
5
100
AcDbPolyline
 90
3
 70
0
 10
117.29102964118565
 20
36.073170731707314
 10
116.4808112324493
 20
48.033259423503324
 10
116.33783151326053
 20
48.708425720620845
  0
LWPOLYLINE
  5
E1
330
17
100
AcDbEntity
  8
0
 62
6
100
AcDbPolyline
 90
2
 70
0
 10
116.33783151326053
 20
48.708425720620845
 10
115.86123244929797
 20
48.99778270509978
  0
LWPOLYLINE
  5
E2
330
17
100
AcDbEntity
  8
0
 62
6
100
AcDbPolyline
 90
2
 70
0
 10
115.86123244929797
 20
48.99778270509978
 10
116.1471918876755
 20
49.480044345898
  0
SPLINE
  5
E3
330
17
100
AcDbEntity
  8
0
 62
4
100
AcDbSpline
 70
0
 71
3
 72
0
 73
0
 74
7
 11
116.1471918876755
 21
49.480044345898
 31
0.0
 11
115.00335413416536
 21
51.79490022172949
 31
0.0
 11
113.62121684867394
 21
53.48281596452328
 31
0.0
 11
109.42714508580343
 21
56.858647450110865
 31
0.0
 11
106.09095163806552
 21
60.23447893569845
 31
0.0
 11
104.80413416536662
 21
62.40465631929047
 31
0.0
 11
103.61263650546022
 21
65.34645232815964
 31
0.0
  0
LWPOLYLINE
  5
E4
330
17
100
AcDbEntity
  8
0
 62
6
100
AcDbPolyline
 90
2
 70
0
 10
103.61263650546022
 20
65.34645232815964
 10
94.93853354134166
 20
62.11529933481153
  0
SPLINE
  5
E5
330
17
100
AcDbEntity
  8
0
 62
4
100
AcDbSpline
 70
0
 71
3
 72
0
 73
0
 74
4
 11
94.93853354134166
 21
62.11529933481153
 31
0.0
 11
93.36575663026521
 21
55.84589800443459
 31
0.0
 11
91.36404056162246
 21
45.57372505543237
 31
0.0
 11
91.36404056162246
 21
45.23614190687361
 31
0.0
  0
LWPOLYLINE
  5
E6
330
17
100
AcDbEntity
  8
0
 62
6
100
AcDbPolyline
 90
2
 70
0
 10
91.36404056162246
 20
45.23614190687361
 10
91.79297971918876
 20
44.9950110864745
  0
LWPOLYLINE
  5
E7
330
17
100
AcDbEntity
  8
0
 62
6
100
AcDbPolyline
 90
2
 70
0
 10
91.79297971918876
 20
44.9950110864745
 10
91.36404056162246
 20
44.27161862527716
  0
LWPOLYLINE
  5
E8
330
17
100
AcDbEntity
  8
0
 62
5
100
AcDbPolyline
 90
3
 70
0
 10
91.36404056162246
 20
44.27161862527716
 10
92.12659906396256
 20
34.81929046563193
 10
92.60319812792511
 20
34.04767184035477
  0
LWPOLYLINE
  5
E9
330
17
100
AcDbEntity
  8
0
 62
5
100
AcDbPolyline
 90
3
 70
0
 10
92.60319812792511
 20
34.04767184035477
 10
92.1742589703588
 20
33.13137472283814
 10
92.98447737909517
 20
23.38968957871397
  0
SPLINE
  5
EA
330
17
100
AcDbEntity
  8
0
 62
4
100
AcDbSpline
 70
0
 71
3
 72
0
 73
0
 74
5
 11
92.98447737909517
 21
23.38968957871397
 31
0.0
 11
98.9896255850234
 21
23.341463414634145
 31
0.0
 11
103.23135725429017
 21
24.064855875831487
 31
0.0
 11
105.85265210608424
 21
24.16130820399113
 31
0.0
 11
108.56926677067082
 21
24.788248337028826
 31
0.0
  0
LWPOLYLINE
  5
EB
330
17
100
AcDbEntity
  8
0
 62
6
100
AcDbPolyline
 90
2
 70
0
 10
108.56926677067082
 20
24.788248337028826
 10
108.85522620904835
 20
24.54711751662971
  0
LWPOLYLINE
  5
EC
330
17
100
AcDbEntity
  8
0
 62
6
100
AcDbPolyline
 90
2
 70
0
 10
108.85522620904835
 20
24.54711751662971
 10
108.33096723868955
 20
24.305986696230597
  0
LWPOLYLINE
  5
ED
330
17
100
AcDbEntity
  8
0
 62
6
100
AcDbPolyline
 90
2
 70
0
 10
108.33096723868955
 20
24.305986696230597
 10
108.52160686427457
 20
24.16130820399113
  0
LWPOLYLINE
  5
EE
330
17
100
AcDbEntity
  8
0
 62
6
100
AcDbPolyline
 90
2
 70
0
 10
108.52160686427457
 20
24.16130820399113
 10
118.00592823712948
 20
24.740022172949
  0
LWPOLYLINE
  5
EF
330
17
100
AcDbEntity
  8
0
 62
5
100
AcDbPolyline
 90
3
 70
0
 10
118.00592823712948
 20
24.740022172949
 10
118.24422776911076
 20
26.33148558758315
 10
117.43400936037442
 20
34.3370288248337
  0
LWPOLYLINE
  5
F0
330
17
100
AcDbEntity
  8
0
 62
5
100
AcDbPolyline
 90
3
 70
0
 10
117.43400936037442
 20
34.3370288248337
 10
116.19485179407177
 20
34.578159645232816
 10
115.00335413416536
 20
34.19235033259424
  0
LWPOLYLINE
  5
F1
330
17
100
AcDbEntity
  8
0
 62
6
100
AcDbPolyline
 90
2
 70
0
 10
115.00335413416536
 20
34.19235033259424
 10
114.28845553822153
 20
34.67461197339246
  0
LWPOLYLINE
  5
F2
330
17
100
AcDbEntity
  8
0
 62
6
100
AcDbPolyline
 90
2
 70
0
 10
114.28845553822153
 20
34.67461197339246
 10
113.62121684867394
 20
34.67461197339246
  0
LWPOLYLINE
  5
F3
330
17
100
AcDbEntity
  8
0
 62
6
100
AcDbPolyline
 90
2
 70
0
 10
113.62121684867394
 20
34.67461197339246
 10
113.38291731669267
 20
34.529933481152995
  0
LWPOLYLINE
  5
F4
330
17
100
AcDbEntity
  8
0
 62
6
100
AcDbPolyline
 90
2
 70
0
 10
113.38291731669267
 20
34.529933481152995
 10
113.76419656786271
 20
34.28880266075388
  0
LWPOLYLINE
  5
F5
330
17
100
AcDbEntity
  8
0
 62
6
100
AcDbPolyline
 90
2
 70
0
 10
113.76419656786271
 20
34.28880266075388
 10
113.71653666146646
 20
33.951219512195124
  0
LWPOLYLINE
  5
F6
330
17
100
AcDbEntity
  8
0
 62
6
100
AcDbPolyline
 90
2
 70
0
 10
113.71653666146646
 20
33.951219512195124
 10
114.33611544461779
 20
33.51718403547672
  0
LWPOLYLINE
  5
F7
330
17
100
AcDbEntity
  8
0
 62
6
100
AcDbPolyline
 90
2
 70
0
 10
114.33611544461779
 20
33.51718403547672
 10
114.0978159126365
 20
33.17960088691796
  0
LWPOLYLINE
  5
F8
330
17
100
AcDbEntity
  8
0
 62
6
100
AcDbPolyline
 90
2
 70
0
 10
114.0978159126365
 20
33.17960088691796
 10
113.09695787831514
 20
33.951219512195124
  0
LWPOLYLINE
  5
F9
330
17
100
AcDbEntity
  8
0
 62
5
100
AcDbPolyline
 90
3
 70
0
 10
113.09695787831514
 20
33.951219512195124
 10
111.52418096723869
 20
33.468957871396896
 10
109.37948517940717
 20
33.80654101995565
  0
LWPOLYLINE
  5
FA
330
17
100
AcDbEntity
  8
0
 62
5
100
AcDbPolyline
 90
3
 70
0
 10
109.37948517940717
 20
33.80654101995565
 10
111.52418096723869
 20
33.468957871396896
 10
113.09695787831514
 20
33.951219512195124
  0
LWPOLYLINE
  5
FB
330
17
100
AcDbEntity
  8
0
 62
6
100
AcDbPolyline
 90
2
 70
0
 10
113.09695787831514
 20
33.951219512195124
 10
114.0978159126365
 20
33.17960088691796
  0
LWPOLYLINE
  5
FC
330
17
100
AcDbEntity
  8
0
 62
6
100
AcDbPolyline
 90
2
 70
0
 10
114.0978159126365
 20
33.17960088691796
 10
114.33611544461779
 20
33.51718403547672
  0
LWPOLYLINE
  5
FD
330
17
100
AcDbEntity
  8
0
 62
6
100
AcDbPolyline
 90
2
 70
0
 10
114.33611544461779
 20
33.51718403547672
 10
113.76419656786271
 20
33.854767184035474
  0
LWPOLYLINE
  5
FE
330
17
100
AcDbEntity
  8
0
 62
6
100
AcDbPolyline
 90
2
 70
0
 10
113.76419656786271
 20
33.854767184035474
 10
113.38291731669267
 20
34.62638580931264
  0
LWPOLYLINE
  5
FF
330
17
100
AcDbEntity
  8
0
 62
6
100
AcDbPolyline
 90
2
 70
0
 10
113.38291731669267
 20
34.62638580931264
 10
114.33611544461779
 20
34.67461197339246
  0
LWPOLYLINE
  5
100
330
17
100
AcDbEntity
  8
0
 62
6
100
AcDbPolyline
 90
2
 70
0
 10
114.33611544461779
 20
34.67461197339246
 10
115.00335413416536
 20
34.19235033259424
  0
LWPOLYLINE
  5
101
330
17
100
AcDbEntity
  8
0
 62
5
100
AcDbPolyline
 90
3
 70
0
 10
115.00335413416536
 20
34.19235033259424
 10
116.19485179407177
 20
34.578159645232816
 10
117.38634945397816
 20
34.433481152993345
  0
LWPOLYLINE
  5
102
330
17
100
AcDbEntity
  8
0
 62
5
100
AcDbPolyline
 90
3
 70
0
 10
117.38634945397816
 20
34.433481152993345
 10
117.95826833073323
 20
30.141352549889135
 10
118.14890795631825
 20
24.836474501108647
  0
SPLINE
  5
103
330
17
100
AcDbEntity
  8
0
 62
4
100
AcDbSpline
 70
0
 71
3
 72
0
 73
0
 74
4
 11
118.14890795631825
 21
24.836474501108647
 31
0.0
 11
116.43315132605304
 21
24.49889135254989
 31
0.0
 11
109.37948517940717
 21
24.16130820399113
 31
0.0
 11
108.3786271450858
 21
24.209534368070955
 31
0.0
  0
LWPOLYLINE
  5
104
330
17
100
AcDbEntity
  8
0
 62
6
100
AcDbPolyline
 90
2
 70
0
 10
108.3786271450858
 20
24.209534368070955
 10
108.85522620904835
 20
24.595343680709533
  0
LWPOLYLINE
  5
105
330
17
100
AcDbEntity
  8
0
 62
6
100
AcDbPolyline
 90
2
 70
0
 10
108.85522620904835
 20
24.595343680709533
 10
108.56926677067082
 20
24.788248337028826
  0
SPLINE
  5
106
330
17
100
AcDbEntity
  8
0
 62
4
100
AcDbSpline
 70
0
 71
3
 72
0
 73
0
 74
5
 11
108.56926677067082
 21
24.788248337028826
 31
0.0
 11
105.85265210608424
 21
24.16130820399113
 31
0.0
 11
103.23135725429017
 21
24.064855875831487
 31
0.0
 11
98.9896255850234
 21
23.341463414634145
 31
0.0
 11
93.17511700468019
 21
23.196784922394677
 31
0.0
  0
LWPOLYLINE
  5
108
330
17
100
AcDbEntity
  8
0
 62
6
100
AcDbPolyline
 90
2
 70
0
 10
107.80670826833074
 20
4.147450110864745
 10
98.8943057722309
 20
6.221175166297117
  0
LWPOLYLINE
  5
109
330
17
100
AcDbEntity
  8
0
 62
5
100
AcDbPolyline
 90
3
 70
0
 10
98.8943057722309
 20
6.221175166297117
 10
95.89173166926678
 20
13.599778270509978
 10
94.12831513260531
 20
19.628048780487806
  0
LWPOLYLINE
  5
10A
330
17
100
AcDbEntity
  8
0
 62
6
100
AcDbPolyline
 90
2
 70
0
 10
94.12831513260531
 20
19.628048780487806
 10
94.31895475819033
 20
19.772727272727273
  0
LWPOLYLINE
  5
10B
330
17
100
AcDbEntity
  8
0
 62
6
100
AcDbPolyline
 90
2
 70
0
 10
94.31895475819033
 20
19.772727272727273
 10
94.12831513260531
 20
19.145787139689578
  0
LWPOLYLINE
  5
10C
330
17
100
AcDbEntity
  8
0
 62
5
100
AcDbPolyline
 90
3
 70
0
 10
94.12831513260531
 20
19.145787139689578
 10
95.89173166926678
 20
13.599778270509978
 10
98.84664586583463
 20
6.3176274944567625
  0
LWPOLYLINE
  5
10D
330
17
100
AcDbEntity
  8
0
 62
5
100
AcDbPolyline
 90
3
 70
0
 10
98.84664586583463
 20
6.3176274944567625
 10
101.3726209048362
 20
5.4977827050997785
 10
107.99734789391576
 20
4.147450110864745
  0
SPLINE
  5
10E
330
17
100
AcDbEntity
  8
0
 62
4
100
AcDbSpline
 70
0
 71
3
 72
0
 73
0
 74
7
 11
107.99734789391576
 21
4.147450110864745
 31
0.0
 11
108.90288611544462
 21
7.860864745011086
 31
0.0
 11
110.04672386895476
 21
10.32039911308204
 31
0.0
 11
115.95655226209048
 21
17.072062084257205
 31
0.0
 11
117.00507020280811
 21
18.759977827050996
 31
0.0
 11
118.24422776911076
 21
22.184035476718403
 31
0.0
 11
118.1965678627145
 21
24.16130820399113
 31
0.0
  0
SPLINE
  5
10F
330
17
100
AcDbEntity
  8
0
 62
4
100
AcDbSpline
 70
0
 71
3
 72
0
 73
0
 74
4
 11
118.1965678627145
 21
24.16130820399113
 31
0.0
 11
117.29102964118565
 21
24.305986696230597
 31
0.0
 11
112.19141965678627
 21
23.823725055432373
 31
0.0
 11
111.42886115444618
 21
23.43791574279379
 31
0.0
  0
SPLINE
  5
110
330
17
100
AcDbEntity
  8
0
 62
4
100
AcDbSpline
 70
0
 71
3
 72
0
 73
0
 74
4
 11
111.42886115444618
 21
23.43791574279379
 31
0.0
 11
109.90374414976598
 21
23.534368070953438
 31
0.0
 11
106.6628705148206
 21
23.003880266075388
 31
0.0
 11
106.37691107644305
 21
23.100332594235034
 31
0.0
  0
LWPOLYLINE
  5
111
330
17
100
AcDbEntity
  8
0
 62
6
100
AcDbPolyline
 90
2
 70
0
 10
106.37691107644305
 20
23.100332594235034
 10
107.33010920436817
 20
23.58259423503326
  0
SPLINE
  5
112
330
17
100
AcDbEntity
  8
0
 62
4
100
AcDbSpline
 70
0
 71
3
 72
0
 73
0
 74
4
 11
107.33010920436817
 21
23.58259423503326
 31
0.0
 11
105.28073322932917
 21
23.534368070953438
 31
0.0
 11
93.98533541341654
 21
22.90742793791574
 31
0.0
 11
93.12745709828393
 21
22.618070953436806
 31
0.0
  0
LWPOLYLINE
  5
113
330
17
100
AcDbEntity
  8
0
 62
5
100
AcDbPolyline
 90
3
 70
0
 10
93.12745709828393
 20
22.618070953436806
 10
93.84235569422776
 20
20.11031042128603
 10
94.17597503900156
 20
19.772727272727273
  0
LWPOLYLINE
  5
114
330
17
100
AcDbEntity
  8
0
 62
6
100
AcDbPolyline
 90
2
 70
0
 10
94.17597503900156
 20
19.772727272727273
 10
93.03213728549142
 20
22.47339246119734
  0
SPLINE
  5
115
330
17
100
AcDbEntity
  8
0
 62
4
100
AcDbSpline
 70
0
 71
3
 72
0
 73
0
 74
4
 11
93.03213728549142
 21
22.47339246119734
 31
0.0
 11
93.699375975039
 21
22.85920177383592
 31
0.0
 11
106.99648985959438
 21
23.58259423503326
 31
0.0
 11
107.37776911076443
 21
23.486141906873613
 31
0.0
  0
LWPOLYLINE
  5
116
330
17
100
AcDbEntity
  8
0
 62
6
100
AcDbPolyline
 90
2
 70
0
 10
107.37776911076443
 20
23.486141906873613
 10
106.47223088923556
 20
23.148558758314856
  0
LWPOLYLINE
  5
117
330
17
100
AcDbEntity
  8
0
 62
6
100
AcDbPolyline
 90
2
 70
0
 10
106.47223088923556
 20
23.148558758314856
 10
106.6628705148206
 20
23.003880266075388
  0
LWPOLYLINE
  5
118
330
17
100
AcDbEntity
  8
0
 62
5
100
AcDbPolyline
 90
3
 70
0
 10
106.6628705148206
 20
23.003880266075388
 10
109.90374414976598
 20
23.534368070953438
 10
111.42886115444618
 20
23.43791574279379
  0
LWPOLYLINE
  5
119
330
17
100
AcDbEntity
  8
0
 62
5
100
AcDbPolyline
 90
3
 70
0
 10
111.42886115444618
 20
23.43791574279379
 10
112.19141965678627
 20
23.823725055432373
 10
118.1965678627145
 20
24.209534368070955
  0
SPLINE
  5
11A
330
17
100
AcDbEntity
  8
0
 62
4
100
AcDbSpline
 70
0
 71
3
 72
0
 73
0
 74
7
 11
118.1965678627145
 21
24.209534368070955
 31
0.0
 11
118.24422776911076
 21
22.184035476718403
 31
0.0
 11
116.95741029641185
 21
18.663525498891353
 31
0.0
 11
115.90889235569422
 21
16.975609756097562
 31
0.0
 11
109.9990639625585
 21
10.223946784922395
 31
0.0
 11
108.85522620904835
 21
7.716186252771618
 31
0.0
 11
108.09266770670827
 21
4.195676274944567
 31
0.0
  0
LWPOLYLINE
  5
11B
330
17
100
AcDbEntity
  8
0
 62
6
100
AcDbPolyline
 90
2
 70
0
 10
108.09266770670827
 20
4.195676274944567
 10
107.80670826833074
 20
4.147450110864745
  0
ENDSEC
  0
SECTION
  2
OBJECTS
  0
DICTIONARY
  5
A
330
0
100
AcDbDictionary
280
0
281
1
  3
ACAD_COLOR
350
B
  3
ACAD_GROUP
350
C
  3
ACAD_LAYOUT
350
D
  3
ACAD_MATERIAL
350
E
  3
ACAD_MLEADERSTYLE
350
F
  3
ACAD_MLINESTYLE
350
10
  3
ACAD_PLOTSETTINGS
350
11
  3
ACAD_PLOTSTYLENAME
350
12
  3
ACAD_SCALELIST
350
14
  3
ACAD_TABLESTYLE
350
15
  3
ACAD_VISUALSTYLE
350
16
  3
EZDXF_META
350
2D
  0
DICTIONARY
  5
B
330
A
100
AcDbDictionary
280
0
281
1
  0
DICTIONARY
  5
C
330
A
100
AcDbDictionary
280
0
281
1
  3
*A1
350
2F
  3
*A2
350
32
  3
*A3
350
39
  3
*A4
350
3C
  3
*A5
350
3F
  3
*A6
350
45
  3
*A7
350
4D
  3
*A8
350
55
  3
*A9
350
5C
  3
*A10
350
63
  3
*A11
350
8E
  3
*A12
350
AA
  3
*A13
350
B5
  3
*A14
350
CB
  3
*A15
350
107
  0
DICTIONARY
  5
D
330
A
100
AcDbDictionary
280
0
281
1
  3
Model
350
1A
  3
Layout1
350
1E
  0
DICTIONARY
  5
E
330
A
100
AcDbDictionary
280
0
281
1
  3
ByBlock
350
1F
  3
ByLayer
350
20
  3
Global
350
21
  0
DICTIONARY
  5
F
330
A
100
AcDbDictionary
280
0
281
1
  3
Standard
350
2C
  0
DICTIONARY
  5
10
330
A
100
AcDbDictionary
280
0
281
1
  3
Standard
350
22
  0
DICTIONARY
  5
11
330
A
100
AcDbDictionary
280
0
281
1
  0
ACDBDICTIONARYWDFLT
  5
12
330
A
100
AcDbDictionary
280
0
281
1
  3
Normal
350
13
100
AcDbDictionaryWithDefault
340
13
  0
ACDBPLACEHOLDER
  5
13
330
12
  0
DICTIONARY
  5
14
330
A
100
AcDbDictionary
280
0
281
1
  0
DICTIONARY
  5
15
330
A
100
AcDbDictionary
280
0
281
1
  0
DICTIONARY
  5
16
330
A
100
AcDbDictionary
280
0
281
1
  0
LAYOUT
  5
1A
330
D
100
AcDbPlotSettings
  1

  2
Adobe PDF
  4
A3
  6

 40
7.5
 41
20.0
 42
7.5
 43
20.0
 44
420.0
 45
297.0
 46
0.0
 47
0.0
 48
0.0
 49
0.0
140
0.0
141
0.0
142
1.0
143
1.0
 70
1024
 72
1
 73
0
 74
5
  7

 75
16
 76
0
 77
2
 78
300
147
1.0
148
0.0
149
0.0
100
AcDbLayout
  1
Model
 70
1
 71
0
 10
0.0
 20
0.0
 11
420.0
 21
297.0
 12
0.0
 22
0.0
 32
0.0
 14
1e+20
 24
1e+20
 34
1e+20
 15
-1e+20
 25
-1e+20
 35
-1e+20
146
0.0
 13
0.0
 23
0.0
 33
0.0
 16
1.0
 26
0.0
 36
0.0
 17
0.0
 27
1.0
 37
0.0
 76
1
330
17
  0
LAYOUT
  5
1E
330
D
100
AcDbPlotSettings
  1

  2
Adobe PDF
  4
A3
  6

 40
7.5
 41
20.0
 42
7.5
 43
20.0
 44
420.0
 45
297.0
 46
0.0
 47
0.0
 48
0.0
 49
0.0
140
0.0
141
0.0
142
1.0
143
1.0
 70
0
 72
1
 73
0
 74
5
  7

 75
16
 76
0
 77
2
 78
300
147
1.0
148
0.0
149
0.0
100
AcDbLayout
  1
Layout1
 70
1
 71
1
 10
0.0
 20
0.0
 11
420.0
 21
297.0
 12
0.0
 22
0.0
 32
0.0
 14
1e+20
 24
1e+20
 34
1e+20
 15
-1e+20
 25
-1e+20
 35
-1e+20
146
0.0
 13
0.0
 23
0.0
 33
0.0
 16
1.0
 26
0.0
 36
0.0
 17
0.0
 27
1.0
 37
0.0
 76
1
330
1B
  0
MATERIAL
  5
1F
102
{ACAD_REACTORS
330
E
102
}
330
E
100
AcDbMaterial
  1
ByBlock
  2

 70
0
 40
1.0
 71
1
 41
1.0
 91
-1023410177
 42
1.0
 72
1
  3

 73
1
 74
1
 75
1
 44
0.5
 73
0
 45
1.0
 46
1.0
 77
1
  4

 78
1
 79
1
170
1
 48
1.0
171
1
  6

172
1
173
1
174
1
140
1.0
141
1.0
175
1
  7

176
1
177
1
178
1
143
1.0
179
1
  8

270
1
271
1
272
1
145
1.0
146
1.0
273
1
  9

274
1
275
1
276
1
 42
1.0
 72
1
  3

 73
1
 74
1
 75
1
 94
63
  0
MATERIAL
  5
20
102
{ACAD_REACTORS
330
E
102
}
330
E
100
AcDbMaterial
  1
ByLayer
  2

 70
0
 40
1.0
 71
1
 41
1.0
 91
-1023410177
 42
1.0
 72
1
  3

 73
1
 74
1
 75
1
 44
0.5
 73
0
 45
1.0
 46
1.0
 77
1
  4

 78
1
 79
1
170
1
 48
1.0
171
1
  6

172
1
173
1
174
1
140
1.0
141
1.0
175
1
  7

176
1
177
1
178
1
143
1.0
179
1
  8

270
1
271
1
272
1
145
1.0
146
1.0
273
1
  9

274
1
275
1
276
1
 42
1.0
 72
1
  3

 73
1
 74
1
 75
1
 94
63
  0
MATERIAL
  5
21
102
{ACAD_REACTORS
330
E
102
}
330
E
100
AcDbMaterial
  1
Global
  2

 70
0
 40
1.0
 71
1
 41
1.0
 91
-1023410177
 42
1.0
 72
1
  3

 73
1
 74
1
 75
1
 44
0.5
 73
0
 45
1.0
 46
1.0
 77
1
  4

 78
1
 79
1
170
1
 48
1.0
171
1
  6

172
1
173
1
174
1
140
1.0
141
1.0
175
1
  7

176
1
177
1
178
1
143
1.0
179
1
  8

270
1
271
1
272
1
145
1.0
146
1.0
273
1
  9

274
1
275
1
276
1
 42
1.0
 72
1
  3

 73
1
 74
1
 75
1
 94
63
  0
MLINESTYLE
  5
22
102
{ACAD_REACTORS
330
10
102
}
330
10
100
AcDbMlineStyle
  2
Standard
 70
0
  3

 62
256
 51
90.0
 52
90.0
 71
2
 49
0.5
 62
256
  6
BYLAYER
 49
-0.5
 62
256
  6
BYLAYER
  0
MLEADERSTYLE
  5
2C
102
{ACAD_REACTORS
330
F
102
}
330
F
100
AcDbMLeaderStyle
179
2
170
2
171
1
172
0
 90
2
 40
0.0
 41
0.0
173
1
 91
-1056964608
 92
-2
290
1
 42
2.0
291
1
 43
8.0
  3
Standard
 44
4.0
300

342
29
174
1
175
1
176
0
178
1
 93
-1056964608
 45
4.0
292
0
297
0
 46
4.0
 94
-1056964608
 47
1.0
 49
1.0
140
1.0
294
1
141
0.0
177
0
142
1.0
295
0
296
0
143
3.75
271
0
272
9
273
9
  0
DICTIONARY
  5
2D
330
A
100
AcDbDictionary
281
1
  3
CREATED_BY_EZDXF
350
2E
  3
WRITTEN_BY_EZDXF
350
11E
  0
DICTIONARYVAR
  5
2E
330
2D
100
DictionaryVariables
280
0
  1
1.3.0 @ 2024-05-27T08:41:04.659377+00:00
  0
GROUP
  5
2F
102
{ACAD_REACTORS
330
C
102
}
330
C
100
AcDbGroup
300

 70
1
 71
1
340
30
340
31
  0
GROUP
  5
32
102
{ACAD_REACTORS
330
C
102
}
330
C
100
AcDbGroup
300

 70
1
 71
1
340
33
340
34
340
35
340
36
340
37
340
38
  0
GROUP
  5
39
102
{ACAD_REACTORS
330
C
102
}
330
C
100
AcDbGroup
300

 70
1
 71
1
340
3A
340
3B
  0
GROUP
  5
3C
102
{ACAD_REACTORS
330
C
102
}
330
C
100
AcDbGroup
300

 70
1
 71
1
340
3D
340
3E
  0
GROUP
  5
3F
102
{ACAD_REACTORS
330
C
102
}
330
C
100
AcDbGroup
300

 70
1
 71
1
340
40
340
41
340
42
340
43
340
44
  0
GROUP
  5
45
102
{ACAD_REACTORS
330
C
102
}
330
C
100
AcDbGroup
300

 70
1
 71
1
340
46
340
47
340
48
340
49
340
4A
340
4B
340
4C
  0
GROUP
  5
4D
102
{ACAD_REACTORS
330
C
102
}
330
C
100
AcDbGroup
300

 70
1
 71
1
340
4E
340
4F
340
50
340
51
340
52
340
53
340
54
  0
GROUP
  5
55
102
{ACAD_REACTORS
330
C
102
}
330
C
100
AcDbGroup
300

 70
1
 71
1
340
56
340
57
340
58
340
59
340
5A
340
5B
  0
GROUP
  5
5C
102
{ACAD_REACTORS
330
C
102
}
330
C
100
AcDbGroup
300

 70
1
 71
1
340
5D
340
5E
340
5F
340
60
340
61
340
62
  0
GROUP
  5
63
102
{ACAD_REACTORS
330
C
102
}
330
C
100
AcDbGroup
300

 70
1
 71
1
340
64
340
65
340
66
340
67
340
68
340
69
340
6A
340
6B
340
6C
340
6D
340
6E
340
6F
340
70
340
71
340
72
340
73
340
74
340
75
340
76
340
77
340
78
340
79
340
7A
340
7B
340
7C
340
7D
340
7E
340
7F
340
80
340
81
340
82
340
83
340
84
340
85
340
86
340
87
340
88
340
89
340
8A
340
8B
340
8C
340
8D
  0
GROUP
  5
8E
102
{ACAD_REACTORS
330
C
102
}
330
C
100
AcDbGroup
300

 70
1
 71
1
340
8F
340
90
340
91
340
92
340
93
340
94
340
95
340
96
340
97
340
98
340
99
340
9A
340
9B
340
9C
340
9D
340
9E
340
9F
340
A0
340
A1
340
A2
340
A3
340
A4
340
A5
340
A6
340
A7
340
A8
340
A9
  0
GROUP
  5
AA
102
{ACAD_REACTORS
330
C
102
}
330
C
100
AcDbGroup
300

 70
1
 71
1
340
AB
340
AC
340
AD
340
AE
340
AF
340
B0
340
B1
340
B2
340
B3
340
B4
  0
GROUP
  5
B5
102
{ACAD_REACTORS
330
C
102
}
330
C
100
AcDbGroup
300

 70
1
 71
1
340
B6
340
B7
340
B8
340
B9
340
BA
340
BB
340
BC
340
BD
340
BE
340
BF
340
C0
340
C1
340
C2
340
C3
340
C4
340
C5
340
C6
340
C7
340
C8
340
C9
340
CA
  0
GROUP
  5
CB
102
{ACAD_REACTORS
330
C
102
}
330
C
100
AcDbGroup
300

 70
1
 71
1
340
CC
340
CD
340
CE
340
CF
340
D0
340
D1
340
D2
340
D3
340
D4
340
D5
340
D6
340
D7
340
D8
340
D9
340
DA
340
DB
340
DC
340
DD
340
DE
340
DF
340
E0
340
E1
340
E2
340
E3
340
E4
340
E5
340
E6
340
E7
340
E8
340
E9
340
EA
340
EB
340
EC
340
ED
340
EE
340
EF
340
F0
340
F1
340
F2
340
F3
340
F4
340
F5
340
F6
340
F7
340
F8
340
F9
340
FA
340
FB
340
FC
340
FD
340
FE
340
FF
340
100
340
101
340
102
340
103
340
104
340
105
340
106
  0
GROUP
  5
107
102
{ACAD_REACTORS
330
C
102
}
330
C
100
AcDbGroup
300

 70
1
 71
1
340
108
340
109
340
10A
340
10B
340
10C
340
10D
340
10E
340
10F
340
110
340
111
340
112
340
113
340
114
340
115
340
116
340
117
340
118
340
119
340
11A
340
11B
  0
DICTIONARYVAR
  5
11E
330
2D
100
DictionaryVariables
280
0
  1
1.3.0 @ 2024-05-27T08:41:13.765324+00:00
  0
ENDSEC
  0
EOF
