  0
SECTION
  2
HEADER
  9
$ACADVER
  1
AC1015
  9
$ACADMAINTVER
 70
6
  9
$DWGCODEPAGE
  3
ANSI_1252
  9
$INSBASE
 10
0.0
 20
0.0
 30
0.0
  9
$EXTMIN
 10
1e+20
 20
1e+20
 30
1e+20
  9
$EXTMAX
 10
-1e+20
 20
-1e+20
 30
-1e+20
  9
$LIMMIN
 10
0.0
 20
0.0
  9
$LIMMAX
 10
420.0
 20
297.0
  9
$ORTHOMODE
 70
0
  9
$REGENMODE
 70
1
  9
$FILLMODE
 70
1
  9
$QTEXTMODE
 70
0
  9
$MIRRTEXT
 70
1
  9
$LTSCALE
 40
1.0
  9
$ATTMODE
 70
1
  9
$TEXTSIZE
 40
2.5
  9
$TRACEWID
 40
1.0
  9
$TEXTSTYLE
  7
Standard
  9
$CLAYER
  8
0
  9
$CELTYPE
  6
ByLayer
  9
$CECOLOR
 62
256
  9
$CELTSCALE
 40
1.0
  9
$DISPSILH
 70
0
  9
$DIMSCALE
 40
1.0
  9
$DIMASZ
 40
2.5
  9
$DIMEXO
 40
0.625
  9
$DIMDLI
 40
3.75
  9
$DIMRND
 40
0.0
  9
$DIMDLE
 40
0.0
  9
$DIMEXE
 40
1.25
  9
$DIMTP
 40
0.0
  9
$DIMTM
 40
0.0
  9
$DIMTXT
 40
2.5
  9
$DIMCEN
 40
2.5
  9
$DIMTSZ
 40
0.0
  9
$DIMTOL
 70
0
  9
$DIMLIM
 70
0
  9
$DIMTIH
 70
0
  9
$DIMTOH
 70
0
  9
$DIMSE1
 70
0
  9
$DIMSE2
 70
0
  9
$DIMTAD
 70
1
  9
$DIMZIN
 70
8
  9
$DIMBLK
  1

  9
$DIMASO
 70
1
  9
$DIMSHO
 70
1
  9
$DIMPOST
  1

  9
$DIMAPOST
  1

  9
$DIMALT
 70
0
  9
$DIMALTD
 70
3
  9
$DIMALTF
 40
0.03937007874
  9
$DIMLFAC
 40
1.0
  9
$DIMTOFL
 70
1
  9
$DIMTVP
 40
0.0
  9
$DIMTIX
 70
0
  9
$DIMSOXD
 70
0
  9
$DIMSAH
 70
0
  9
$DIMBLK1
  1

  9
$DIMBLK2
  1

  9
$DIMSTYLE
  2
ISO-25
  9
$DIMCLRD
 70
0
  9
$DIMCLRE
 70
0
  9
$DIMCLRT
 70
0
  9
$DIMTFAC
 40
1.0
  9
$DIMGAP
 40
0.625
  9
$DIMJUST
 70
0
  9
$DIMSD1
 70
0
  9
$DIMSD2
 70
0
  9
$DIMTOLJ
 70
0
  9
$DIMTZIN
 70
8
  9
$DIMALTZ
 70
0
  9
$DIMALTTZ
 70
0
  9
$DIMUPT
 70
0
  9
$DIMDEC
 70
2
  9
$DIMTDEC
 70
2
  9
$DIMALTU
 70
2
  9
$DIMALTTD
 70
3
  9
$DIMTXSTY
  7
Standard
  9
$DIMAUNIT
 70
0
  9
$DIMADEC
 70
0
  9
$DIMALTRND
 40
0.0
  9
$DIMAZIN
 70
0
  9
$DIMDSEP
 70
44
  9
$DIMATFIT
 70
3
  9
$DIMFRAC
 70
0
  9
$DIMLDRBLK
  1

  9
$DIMLUNIT
 70
2
  9
$DIMLWD
 70
-2
  9
$DIMLWE
 70
-2
  9
$DIMTMOVE
 70
0
  9
$LUNITS
 70
2
  9
$LUPREC
 70
4
  9
$SKETCHINC
 40
1.0
  9
$FILLETRAD
 40
10.0
  9
$AUNITS
 70
0
  9
$AUPREC
 70
2
  9
$MENU
  1
.
  9
$ELEVATION
 40
0.0
  9
$PELEVATION
 40
0.0
  9
$THICKNESS
 40
0.0
  9
$LIMCHECK
 70
0
  9
$CHAMFERA
 40
0.0
  9
$CHAMFERB
 40
0.0
  9
$CHAMFERC
 40
0.0
  9
$CHAMFERD
 40
0.0
  9
$SKPOLY
 70
0
  9
$TDCREATE
 40
2460449.59125
  9
$TDUCREATE
 40
2458532.153996898
  9
$TDUPDATE
 40
2460449.591296296
  9
$TDUUPDATE
 40
2458532.1544311
  9
$TDINDWG
 40
0.0
  9
$TDUSRTIMER
 40
0.0
  9
$USRTIMER
 70
1
  9
$ANGBASE
 50
0.0
  9
$ANGDIR
 70
0
  9
$PDMODE
 70
0
  9
$PDSIZE
 40
0.0
  9
$PLINEWID
 40
0.0
  9
$SPLFRAME
 70
0
  9
$SPLINETYPE
 70
6
  9
$SPLINESEGS
 70
8
  9
$HANDSEED
  5
6D
  9
$SURFTAB1
 70
6
  9
$SURFTAB2
 70
6
  9
$SURFTYPE
 70
6
  9
$SURFU
 70
6
  9
$SURFV
 70
6
  9
$UCSBASE
  2

  9
$UCSNAME
  2

  9
$UCSORG
 10
0.0
 20
0.0
 30
0.0
  9
$UCSXDIR
 10
1.0
 20
0.0
 30
0.0
  9
$UCSYDIR
 10
0.0
 20
1.0
 30
0.0
  9
$UCSORTHOREF
  2

  9
$UCSORTHOVIEW
 70
0
  9
$UCSORGTOP
 10
0.0
 20
0.0
 30
0.0
  9
$UCSORGBOTTOM
 10
0.0
 20
0.0
 30
0.0
  9
$UCSORGLEFT
 10
0.0
 20
0.0
 30
0.0
  9
$UCSORGRIGHT
 10
0.0
 20
0.0
 30
0.0
  9
$UCSORGFRONT
 10
0.0
 20
0.0
 30
0.0
  9
$UCSORGBACK
 10
0.0
 20
0.0
 30
0.0
  9
$PUCSBASE
  2

  9
$PUCSNAME
  2

  9
$PUCSORG
 10
0.0
 20
0.0
 30
0.0
  9
$PUCSXDIR
 10
1.0
 20
0.0
 30
0.0
  9
$PUCSYDIR
 10
0.0
 20
1.0
 30
0.0
  9
$PUCSORTHOREF
  2

  9
$PUCSORTHOVIEW
 70
0
  9
$PUCSORGTOP
 10
0.0
 20
0.0
 30
0.0
  9
$PUCSORGBOTTOM
 10
0.0
 20
0.0
 30
0.0
  9
$PUCSORGLEFT
 10
0.0
 20
0.0
 30
0.0
  9
$PUCSORGRIGHT
 10
0.0
 20
0.0
 30
0.0
  9
$PUCSORGFRONT
 10
0.0
 20
0.0
 30
0.0
  9
$PUCSORGBACK
 10
0.0
 20
0.0
 30
0.0
  9
$USERI1
 70
0
  9
$USERI2
 70
0
  9
$USERI3
 70
0
  9
$USERI4
 70
0
  9
$USERI5
 70
0
  9
$USERR1
 40
0.0
  9
$USERR2
 40
0.0
  9
$USERR3
 40
0.0
  9
$USERR4
 40
0.0
  9
$USERR5
 40
0.0
  9
$WORLDVIEW
 70
1
  9
$SHADEDGE
 70
3
  9
$SHADEDIF
 70
70
  9
$TILEMODE
 70
1
  9
$MAXACTVP
 70
64
  9
$PINSBASE
 10
0.0
 20
0.0
 30
0.0
  9
$PLIMCHECK
 70
0
  9
$PEXTMIN
 10
1e+20
 20
1e+20
 30
1e+20
  9
$PEXTMAX
 10
-1e+20
 20
-1e+20
 30
-1e+20
  9
$PLIMMIN
 10
0.0
 20
0.0
  9
$PLIMMAX
 10
420.0
 20
297.0
  9
$UNITMODE
 70
0
  9
$VISRETAIN
 70
1
  9
$PLINEGEN
 70
0
  9
$PSLTSCALE
 70
1
  9
$TREEDEPTH
 70
3020
  9
$CMLSTYLE
  2
Standard
  9
$CMLJUST
 70
0
  9
$CMLSCALE
 40
20.0
  9
$PROXYGRAPHICS
 70
1
  9
$MEASUREMENT
 70
1
  9
$CELWEIGHT
370
-1
  9
$ENDCAPS
280
0
  9
$JOINSTYLE
280
0
  9
$LWDISPLAY
290
0
  9
$INSUNITS
 70
6
  9
$HYPERLINKBASE
  1

  9
$STYLESHEET
  1

  9
$XEDIT
290
1
  9
$CEPSNTYPE
380
0
  9
$PSTYLEMODE
290
1
  9
$FINGERPRINTGUID
  2
{A2791A0B-FBA0-4FD0-9F65-965DB93C5BE6}
  9
$VERSIONGUID
  2
{6A3416C2-8D82-4BA9-A452-4FE492190698}
  9
$EXTNAMES
290
1
  9
$PSVPSCALE
 40
0.0
  9
$OLESTARTUP
290
0
  0
ENDSEC
  0
SECTION
  2
CLASSES
  0
CLASS
  1
ACDBDICTIONARYWDFLT
  2
AcDbDictionaryWithDefault
  3
ObjectDBX Classes
 90
0
280
0
281
0
  0
CLASS
  1
SUN
  2
AcDbSun
  3
SCENEOE
 90
1153
280
0
281
0
  0
CLASS
  1
VISUALSTYLE
  2
AcDbVisualStyle
  3
ObjectDBX Classes
 90
4095
280
0
281
0
  0
CLASS
  1
MATERIAL
  2
AcDbMaterial
  3
ObjectDBX Classes
 90
1153
280
0
281
0
  0
CLASS
  1
SCALE
  2
AcDbScale
  3
ObjectDBX Classes
 90
1153
280
0
281
0
  0
CLASS
  1
TABLESTYLE
  2
AcDbTableStyle
  3
ObjectDBX Classes
 90
4095
280
0
281
0
  0
CLASS
  1
MLEADERSTYLE
  2
AcDbMLeaderStyle
  3
ACDB_MLEADERSTYLE_CLASS
 90
4095
280
0
281
0
  0
CLASS
  1
DICTIONARYVAR
  2
AcDbDictionaryVar
  3
ObjectDBX Classes
 90
0
280
0
281
0
  0
CLASS
  1
CELLSTYLEMAP
  2
AcDbCellStyleMap
  3
ObjectDBX Classes
 90
1152
280
0
281
0
  0
CLASS
  1
MENTALRAYRENDERSETTINGS
  2
AcDbMentalRayRenderSettings
  3
SCENEOE
 90
1024
280
0
281
0
  0
CLASS
  1
ACDBDETAILVIEWSTYLE
  2
AcDbDetailViewStyle
  3
ObjectDBX Classes
 90
1025
280
0
281
0
  0
CLASS
  1
ACDBSECTIONVIEWSTYLE
  2
AcDbSectionViewStyle
  3
ObjectDBX Classes
 90
1025
280
0
281
0
  0
CLASS
  1
RASTERVARIABLES
  2
AcDbRasterVariables
  3
ISM
 90
0
280
0
281
0
  0
CLASS
  1
ACDBPLACEHOLDER
  2
AcDbPlaceHolder
  3
ObjectDBX Classes
 90
0
280
0
281
0
  0
CLASS
  1
LAYOUT
  2
AcDbLayout
  3
ObjectDBX Classes
 90
0
280
0
281
0
  0
ENDSEC
  0
SECTION
  2
TABLES
  0
TABLE
  2
VPORT
  5
8
330
0
100
AcDbSymbolTable
 70
1
  0
VPORT
  5
23
330
8
100
AcDbSymbolTableRecord
100
AcDbViewportTableRecord
  2
*Active
 70
0
 10
0.0
 20
0.0
 11
1.0
 21
1.0
 12
0.0
 22
0.0
 13
0.0
 23
0.0
 14
0.5
 24
0.5
 15
0.5
 25
0.5
 16
0.0
 26
0.0
 36
1.0
 17
0.0
 27
0.0
 37
0.0
 40
1000.0
 41
1.34
 42
50.0
 43
0.0
 44
0.0
 50
0.0
 51
0.0
 71
0
 72
1000
 73
1
 74
3
 75
0
 76
0
 77
0
 78
0
281
0
 65
0
146
0.0
  0
ENDTAB
  0
TABLE
  2
LTYPE
  5
2
330
0
100
AcDbSymbolTable
 70
3
  0
LTYPE
  5
24
330
2
100
AcDbSymbolTableRecord
100
AcDbLinetypeTableRecord
  2
ByBlock
 70
0
  3

 72
65
 73
0
 40
0.0
  0
LTYPE
  5
25
330
2
100
AcDbSymbolTableRecord
100
AcDbLinetypeTableRecord
  2
ByLayer
 70
0
  3

 72
65
 73
0
 40
0.0
  0
LTYPE
  5
26
330
2
100
AcDbSymbolTableRecord
100
AcDbLinetypeTableRecord
  2
Continuous
 70
0
  3

 72
65
 73
0
 40
0.0
  0
ENDTAB
  0
TABLE
  2
LAYER
  5
1
330
0
100
AcDbSymbolTable
 70
2
  0
LAYER
  5
27
330
1
100
AcDbSymbolTableRecord
100
AcDbLayerTableRecord
  2
0
 70
0
 62
7
  6
Continuous
370
-3
390
13
  0
LAYER
  5
28
330
1
100
AcDbSymbolTableRecord
100
AcDbLayerTableRecord
  2
Defpoints
 70
0
 62
7
  6
Continuous
290
0
370
-3
390
13
  0
ENDTAB
  0
TABLE
  2
STYLE
  5
5
330
0
100
AcDbSymbolTable
 70
1
  0
STYLE
  5
29
330
5
100
AcDbSymbolTableRecord
100
AcDbTextStyleTableRecord
  2
Standard
 70
0
 40
0.0
 41
1.0
 50
0.0
 71
0
 42
2.5
  3
txt
  4

  0
ENDTAB
  0
TABLE
  2
VIEW
  5
7
330
0
100
AcDbSymbolTable
 70
0
  0
ENDTAB
  0
TABLE
  2
UCS
  5
6
330
0
100
AcDbSymbolTable
 70
0
  0
ENDTAB
  0
TABLE
  2
APPID
  5
3
330
0
100
AcDbSymbolTable
 70
3
  0
APPID
  5
2A
330
3
100
AcDbSymbolTableRecord
100
AcDbRegAppTableRecord
  2
ACAD
 70
0
  0
APPID
  5
6A
330
3
100
AcDbSymbolTableRecord
100
AcDbRegAppTableRecord
  2
HATCHBACKGROUNDCOLOR
 70
0
  0
APPID
  5
6B
330
3
100
AcDbSymbolTableRecord
100
AcDbRegAppTableRecord
  2
EZDXF
 70
0
  0
ENDTAB
  0
TABLE
  2
DIMSTYLE
  5
4
330
0
100
AcDbSymbolTable
 70
1
100
AcDbDimStyleTable
  0
DIMSTYLE
105
2B
330
4
100
AcDbSymbolTableRecord
100
AcDbDimStyleTableRecord
  2
Standard
 70
0
  3

  4

 40
1.0
 41
2.5
 42
0.625
 43
3.75
 44
1.25
 45
0.0
 46
0.0
 47
0.0
 48
0.0
140
2.5
141
2.5
142
0.0
143
0.03937007874
144
1.0
145
0.0
146
1.0
147
0.625
148
0.0
 71
0
 72
0
 73
0
 74
0
 75
0
 76
0
 77
1
 78
8
 79
3
170
0
171
3
172
1
173
0
174
0
175
0
176
0
177
0
178
0
179
2
271
2
272
2
273
2
274
3
275
0
276
0
277
2
278
44
279
0
280
0
281
0
282
0
283
0
284
8
285
0
286
0
288
0
289
3
371
-2
372
-2
  0
ENDTAB
  0
TABLE
  2
BLOCK_RECORD
  5
9
330
0
100
AcDbSymbolTable
 70
2
  0
BLOCK_RECORD
  5
17
330
9
100
AcDbSymbolTableRecord
100
AcDbBlockTableRecord
  2
*Model_Space
340
1A
  0
BLOCK_RECORD
  5
1B
330
9
100
AcDbSymbolTableRecord
100
AcDbBlockTableRecord
  2
*Paper_Space
340
1E
  0
ENDTAB
  0
ENDSEC
  0
SECTION
  2
BLOCKS
  0
BLOCK
  5
18
330
17
100
AcDbEntity
  8
0
100
AcDbBlockBegin
  2
*Model_Space
 70
0
 10
0.0
 20
0.0
 30
0.0
  3
*Model_Space
  1

  0
ENDBLK
  5
19
330
17
100
AcDbEntity
  8
0
100
AcDbBlockEnd
  0
BLOCK
  5
1C
330
1B
100
AcDbEntity
  8
0
100
AcDbBlockBegin
  2
*Paper_Space
 70
0
 10
0.0
 20
0.0
 30
0.0
  3
*Paper_Space
  1

  0
ENDBLK
  5
1D
330
1B
100
AcDbEntity
  8
0
100
AcDbBlockEnd
  0
ENDSEC
  0
SECTION
  2
ENTITIES
  0
SPLINE
  5
30
330
17
100
AcDbEntity
  8
0
 62
8
100
AcDbSpline
 70
0
 71
3
 72
9
 73
5
 74
0
 40
0.0
 40
0.0
 40
0.0
 40
0.0
 40
0.48901503235552135
 40
1.0
 40
1.0
 40
1.0
 40
1.0
 10
117.01741071428573
 20
43.4889450867052
 30
0.0
 10
114.12289430147999
 20
43.56890994419605
 30
0.0
 10
107.59957703462872
 20
46.020258370886076
 30
0.0
 10
102.78893362237115
 20
51.39186284613823
 30
0.0
 10
100.54905133928573
 20
53.69685693641618
 30
0.0
  0
LWPOLYLINE
  5
31
330
17
100
AcDbEntity
  8
0
 62
6
100
AcDbPolyline
 90
2
 70
0
 10
100.54905133928573
 20
53.69685693641618
 10
100.61724330357144
 20
54.053323699421966
  0
LWPOLYLINE
  5
32
330
17
100
AcDbEntity
  8
0
 62
6
100
AcDbPolyline
 90
2
 70
0
 10
100.61724330357144
 20
54.053323699421966
 10
103.37901785714287
 20
56.224530346820806
  0
SPLINE
  5
33
330
17
100
AcDbEntity
  8
0
 62
8
100
AcDbSpline
 70
0
 71
3
 72
9
 73
5
 74
0
 40
0.0
 40
0.0
 40
0.0
 40
0.0
 40
0.5400641778596168
 40
1.0
 40
1.0
 40
1.0
 40
1.0
 10
103.37901785714287
 20
56.224530346820806
 30
0.0
 10
105.35629927018469
 20
54.04258367003759
 30
0.0
 10
111.28507788784849
 20
48.05496726962048
 30
0.0
 10
116.651604642799
 20
47.05654052453778
 30
0.0
 10
119.23364955357147
 20
47.28045520231215
 30
0.0
  0
LWPOLYLINE
  5
34
330
17
100
AcDbEntity
  8
0
 62
6
100
AcDbPolyline
 90
2
 70
0
 10
119.23364955357144
 20
47.28045520231214
 10
119.7450892857143
 20
43.650975433526014
  0
LWPOLYLINE
  5
35
330
17
100
AcDbEntity
  8
0
 62
6
100
AcDbPolyline
 90
2
 70
0
 10
119.7450892857143
 20
43.650975433526014
 10
117.01741071428573
 20
43.4889450867052
  0
LWPOLYLINE
  5
37
330
17
100
AcDbEntity
  8
0
 62
6
100
AcDbPolyline
 90
2
 70
0
 10
44.32477678571429
 20
7.420989884393063
 10
40.812890625
 20
20.83710260115607
  0
SPLINE
  5
38
330
17
100
AcDbEntity
  8
0
 62
8
100
AcDbSpline
 70
0
 71
3
 72
9
 73
5
 74
0
 40
0.0
 40
0.0
 40
0.0
 40
0.0
 40
0.5151460019470828
 40
1.0
 40
1.0
 40
1.0
 40
1.0
 10
40.812890625
 20
20.83710260115607
 30
0.0
 10
44.15880154295085
 20
19.633986977937113
 30
0.0
 10
51.590117690016
 20
17.840716735060813
 30
0.0
 10
57.77680412448289
 20
21.437562264638753
 30
0.0
 10
60.17940848214286
 20
23.202745664739883
 30
0.0
  0
LWPOLYLINE
  5
39
330
17
100
AcDbEntity
  8
0
 62
6
100
AcDbPolyline
 90
2
 70
0
 10
60.17940848214286
 20
23.202745664739883
 10
53.29202008928572
 20
10.078287572254336
  0
LWPOLYLINE
  5
3A
330
17
100
AcDbEntity
  8
0
 62
6
100
AcDbPolyline
 90
2
 70
0
 10
53.29202008928572
 20
10.078287572254336
 10
50.53024553571429
 20
10.661596820809248
  0
SPLINE
  5
3B
330
17
100
AcDbEntity
  8
0
 62
8
100
AcDbSpline
 70
0
 71
3
 72
8
 73
4
 74
0
 40
0.0
 40
0.0
 40
0.0
 40
0.0
 40
1.0
 40
1.0
 40
1.0
 40
1.0
 10
50.53024553571429
 20
10.661596820809248
 30
0.0
 10
48.172421700088094
 20
10.718269372763846
 30
0.0
 10
46.250027510086376
 20
9.448712157237363
 30
0.0
 10
44.32477678571429
 20
7.420989884393063
 30
0.0
  0
LWPOLYLINE
  5
3D
330
17
100
AcDbEntity
  8
0
 62
6
100
AcDbPolyline
 90
2
 70
0
 10
82.61456473214287
 20
5.24978323699422
 10
67.06679687500001
 20
5.96271676300578
  0
LWPOLYLINE
  5
3E
330
17
100
AcDbEntity
  8
0
 62
5
100
AcDbPolyline
 90
3
 70
0
 10
67.06679687500001
 20
5.96271676300578
 10
66.38487723214287
 20
27.3507225433526
 10
66.41897321428573
 20
42.25751445086705
  0
LWPOLYLINE
  5
3F
330
17
100
AcDbEntity
  8
0
 62
6
100
AcDbPolyline
 90
2
 70
0
 10
66.41897321428573
 20
42.25751445086705
 10
72.76082589285716
 20
43.29450867052023
  0
LWPOLYLINE
  5
40
330
17
100
AcDbEntity
  8
0
 62
5
100
AcDbPolyline
 90
3
 70
0
 10
72.76082589285716
 20
43.29450867052023
 10
74.60200892857144
 20
44.88240606936416
 10
75.96584821428573
 20
47.15083092485549
  0
LWPOLYLINE
  5
41
330
17
100
AcDbEntity
  8
0
 62
6
100
AcDbPolyline
 90
2
 70
0
 10
75.96584821428573
 20
47.15083092485549
 10
90.04748883928572
 20
48.511885838150285
  0
LWPOLYLINE
  5
42
330
17
100
AcDbEntity
  8
0
 62
6
100
AcDbPolyline
 90
2
 70
0
 10
90.04748883928572
 20
48.511885838150285
 10
84.62622767857144
 20
41.64179913294797
  0
SPLINE
  5
43
330
17
100
AcDbEntity
  8
0
 62
8
100
AcDbSpline
 70
0
 71
3
 72
8
 73
4
 74
0
 40
0.0
 40
0.0
 40
0.0
 40
0.0
 40
1.0
 40
1.0
 40
1.0
 40
1.0
 10
84.62622767857144
 20
41.64179913294797
 30
0.0
 10
84.07074792290148
 20
34.24347413620873
 30
0.0
 10
82.41633086906597
 20
26.922974137778134
 30
0.0
 10
84.55803571428572
 20
24.045303468208093
 30
0.0
  0
LWPOLYLINE
  5
44
330
17
100
AcDbEntity
  8
0
 62
6
100
AcDbPolyline
 90
2
 70
0
 10
84.55803571428572
 20
24.045303468208093
 10
87.38800223214287
 20
22.198157514450866
  0
LWPOLYLINE
  5
45
330
17
100
AcDbEntity
  8
0
 62
6
100
AcDbPolyline
 90
2
 70
0
 10
87.38800223214287
 20
22.198157514450866
 10
87.49029017857144
 20
21.7444725433526
  0
LWPOLYLINE
  5
46
330
17
100
AcDbEntity
  8
0
 62
6
100
AcDbPolyline
 90
2
 70
0
 10
87.49029017857144
 20
21.7444725433526
 10
83.73973214285715
 20
5.60625
  0
LWPOLYLINE
  5
47
330
17
100
AcDbEntity
  8
0
 62
6
100
AcDbPolyline
 90
2
 70
0
 10
83.73973214285715
 20
5.60625
 10
83.50106026785716
 20
5.24978323699422
  0
LWPOLYLINE
  5
48
330
17
100
AcDbEntity
  8
0
 62
6
100
AcDbPolyline
 90
2
 70
0
 10
83.50106026785716
 20
5.24978323699422
 10
82.61456473214287
 20
5.24978323699422
  0
LWPOLYLINE
  5
4A
330
17
100
AcDbEntity
  8
0
 62
5
100
AcDbPolyline
 90
3
 70
0
 10
105.9703125
 20
1.8471459537572255
 10
104.57237723214287
 20
6.546026011560693
 10
103.61768973214286
 20
8.295953757225433
  0
LWPOLYLINE
  5
4B
330
17
100
AcDbEntity
  8
0
 62
6
100
AcDbPolyline
 90
2
 70
0
 10
103.61768973214286
 20
8.295953757225433
 10
101.43554687500001
 20
9.721820809248555
  0
LWPOLYLINE
  5
4C
330
17
100
AcDbEntity
  8
0
 62
6
100
AcDbPolyline
 90
2
 70
0
 10
101.43554687500001
 20
9.721820809248555
 10
98.40100446428572
 20
9.689414739884393
  0
LWPOLYLINE
  5
4D
330
17
100
AcDbEntity
  8
0
 62
6
100
AcDbPolyline
 90
2
 70
0
 10
98.40100446428572
 20
9.689414739884393
 10
96.18476562500001
 20
14.647543352601156
  0
LWPOLYLINE
  5
4E
330
17
100
AcDbEntity
  8
0
 62
6
100
AcDbPolyline
 90
2
 70
0
 10
96.18476562500001
 20
14.647543352601156
 10
96.66210937500001
 20
15.06882225433526
  0
LWPOLYLINE
  5
4F
330
17
100
AcDbEntity
  8
0
 62
6
100
AcDbPolyline
 90
2
 70
0
 10
96.66210937500001
 20
15.06882225433526
 10
96.04838169642858
 20
15.295664739884392
  0
LWPOLYLINE
  5
50
330
17
100
AcDbEntity
  8
0
 62
6
100
AcDbPolyline
 90
2
 70
0
 10
96.04838169642858
 20
15.295664739884392
 10
94.13900669642858
 20
19.47604768786127
  0
LWPOLYLINE
  5
51
330
17
100
AcDbEntity
  8
0
 62
6
100
AcDbPolyline
 90
2
 70
0
 10
94.13900669642858
 20
19.47604768786127
 10
94.54815848214287
 20
19.767702312138727
  0
LWPOLYLINE
  5
52
330
17
100
AcDbEntity
  8
0
 62
6
100
AcDbPolyline
 90
2
 70
0
 10
94.54815848214287
 20
19.767702312138727
 10
94.41177455357143
 20
20.188981213872832
  0
LWPOLYLINE
  5
53
330
17
100
AcDbEntity
  8
0
 62
6
100
AcDbPolyline
 90
2
 70
0
 10
94.41177455357143
 20
20.188981213872832
 10
98.29871651785716
 20
23.786054913294798
  0
LWPOLYLINE
  5
54
330
17
100
AcDbEntity
  8
0
 62
6
100
AcDbPolyline
 90
2
 70
0
 10
98.29871651785716
 20
23.786054913294798
 10
97.99185267857143
 20
24.272145953757224
  0
LWPOLYLINE
  5
55
330
17
100
AcDbEntity
  8
0
 62
6
100
AcDbPolyline
 90
2
 70
0
 10
97.99185267857143
 20
24.272145953757224
 10
100.34447544642859
 20
35.09577312138728
  0
LWPOLYLINE
  5
56
330
17
100
AcDbEntity
  8
0
 62
5
100
AcDbPolyline
 90
3
 70
0
 10
100.34447544642859
 20
35.09577312138728
 10
110.94832589285716
 20
34.026372832369944
 10
119.33593750000001
 20
34.3180274566474
  0
LWPOLYLINE
  5
57
330
17
100
AcDbEntity
  8
0
 62
6
100
AcDbPolyline
 90
2
 70
0
 10
119.33593750000001
 20
34.3180274566474
 10
121.34760044642859
 20
15.295664739884392
  0
SPLINE
  5
58
330
17
100
AcDbEntity
  8
0
 62
8
100
AcDbSpline
 70
0
 71
3
 72
10
 73
6
 74
0
 40
0.0
 40
0.0
 40
0.0
 40
0.0
 40
0.3334038978407683
 40
0.5529650606933234
 40
1.0
 40
1.0
 40
1.0
 40
1.0
 10
121.34760044642859
 20
15.295664739884392
 30
0.0
 10
121.16970584078582
 20
14.5592522373057
 30
0.0
 10
119.65645189735275
 20
10.035440957021006
 30
0.0
 10
114.67023938069491
 20
4.121338125858195
 30
0.0
 10
109.64123878117269
 20
2.3619778270643623
 30
0.0
 10
105.9703125
 20
1.8471459537572255
 30
0.0
  0
LWPOLYLINE
  5
5A
330
17
100
AcDbEntity
  8
0
 62
6
100
AcDbPolyline
 90
2
 70
0
 10
11.285770089285716
 20
1.1990245664739885
 10
7.126060267857143
 20
1.2314306358381502
  0
LWPOLYLINE
  5
5B
330
17
100
AcDbEntity
  8
0
 62
6
100
AcDbPolyline
 90
2
 70
0
 10
7.126060267857143
 20
1.2314306358381502
 10
6.887388392857144
 20
1.5554913294797688
  0
LWPOLYLINE
  5
5C
330
17
100
AcDbEntity
  8
0
 62
6
100
AcDbPolyline
 90
2
 70
0
 10
6.887388392857144
 20
1.5554913294797688
 10
1.602511160714286
 20
46.923988439306356
  0
SPLINE
  5
5D
330
17
100
AcDbEntity
  8
0
 62
8
100
AcDbSpline
 70
0
 71
3
 72
9
 73
5
 74
0
 40
0.0
 40
0.0
 40
0.0
 40
0.0
 40
0.3999210262046463
 40
1.0
 40
1.0
 40
1.0
 40
1.0
 10
1.6025111607142863
 20
46.92398843930636
 30
0.0
 10
3.147834712560966
 20
47.70253811944818
 30
0.0
 10
6.555300699338561
 20
48.83469204213745
 30
0.0
 10
9.26844055284924
 20
58.68580467305289
 30
0.0
 10
12.172265625000001
 20
59.78919797687861
 30
0.0
  0
LWPOLYLINE
  5
5E
330
17
100
AcDbEntity
  8
0
 62
6
100
AcDbPolyline
 90
2
 70
0
 10
12.172265625000001
 20
59.78919797687861
 10
15.65005580357143
 20
61.57153179190751
  0
LWPOLYLINE
  5
5F
330
17
100
AcDbEntity
  8
0
 62
6
100
AcDbPolyline
 90
2
 70
0
 10
15.65005580357143
 20
61.57153179190751
 10
18.51411830357143
 20
61.89559248554913
  0
LWPOLYLINE
  5
60
330
17
100
AcDbEntity
  8
0
 62
6
100
AcDbPolyline
 90
2
 70
0
 10
18.51411830357143
 20
61.89559248554913
 10
19.298325892857147
 20
61.37709537572254
  0
LWPOLYLINE
  5
61
330
17
100
AcDbEntity
  8
0
 62
6
100
AcDbPolyline
 90
2
 70
0
 10
19.298325892857147
 20
61.37709537572254
 10
19.741573660714288
 20
61.798374277456645
  0
LWPOLYLINE
  5
62
330
17
100
AcDbEntity
  8
0
 62
6
100
AcDbPolyline
 90
2
 70
0
 10
19.741573660714288
 20
61.798374277456645
 10
22.33286830357143
 20
60.79378612716763
  0
SPLINE
  5
63
330
17
100
AcDbEntity
  8
0
 62
8
100
AcDbSpline
 70
0
 71
3
 72
8
 73
4
 74
0
 40
0.0
 40
0.0
 40
0.0
 40
0.0
 40
1.0
 40
1.0
 40
1.0
 40
1.0
 10
22.33286830357143
 20
60.79378612716763
 30
0.0
 10
25.246922759048754
 20
59.198083654235894
 30
0.0
 10
27.6053928846922
 20
54.28106188987365
 30
0.0
 10
29.424832589285717
 20
49.743316473988436
 30
0.0
  0
LWPOLYLINE
  5
64
330
17
100
AcDbEntity
  8
0
 62
6
100
AcDbPolyline
 90
2
 70
0
 10
29.424832589285717
 20
49.743316473988436
 10
29.322544642857146
 20
49.19241329479769
  0
LWPOLYLINE
  5
65
330
17
100
AcDbEntity
  8
0
 62
6
100
AcDbPolyline
 90
2
 70
0
 10
29.322544642857146
 20
49.19241329479769
 10
29.799888392857145
 20
49.289631502890174
  0
LWPOLYLINE
  5
66
330
17
100
AcDbEntity
  8
0
 62
6
100
AcDbPolyline
 90
2
 70
0
 10
29.799888392857145
 20
49.289631502890174
 10
32.016127232142864
 20
47.70173410404624
  0
LWPOLYLINE
  5
67
330
17
100
AcDbEntity
  8
0
 62
6
100
AcDbPolyline
 90
2
 70
0
 10
32.016127232142864
 20
47.70173410404624
 10
35.25524553571429
 20
46.82677023121387
  0
LWPOLYLINE
  5
68
330
17
100
AcDbEntity
  8
0
 62
5
100
AcDbPolyline
 90
3
 70
0
 10
35.25524553571429
 20
46.82677023121387
 10
30.038560267857147
 20
3.1433887283236994
 10
29.49302455357143
 20
1.296242774566474
  0
LWPOLYLINE
  5
69
330
17
100
AcDbEntity
  8
0
 62
6
100
AcDbPolyline
 90
2
 70
0
 10
29.49302455357143
 20
1.296242774566474
 10
11.285770089285716
 20
1.1990245664739885
  0
ENDSEC
  0
SECTION
  2
OBJECTS
  0
DICTIONARY
  5
A
330
0
100
AcDbDictionary
280
0
281
1
  3
ACAD_COLOR
350
B
  3
ACAD_GROUP
350
C
  3
ACAD_LAYOUT
350
D
  3
ACAD_MATERIAL
350
E
  3
ACAD_MLEADERSTYLE
350
F
  3
ACAD_MLINESTYLE
350
10
  3
ACAD_PLOTSETTINGS
350
11
  3
ACAD_PLOTSTYLENAME
350
12
  3
ACAD_SCALELIST
350
14
  3
ACAD_TABLESTYLE
350
15
  3
ACAD_VISUALSTYLE
350
16
  3
EZDXF_META
350
2D
  0
DICTIONARY
  5
B
330
A
100
AcDbDictionary
280
0
281
1
  0
DICTIONARY
  5
C
330
A
100
AcDbDictionary
280
0
281
1
  3
*A1
350
2F
  3
*A2
350
36
  3
*A3
350
3C
  3
*A4
350
49
  3
*A5
350
59
  0
DICTIONARY
  5
D
330
A
100
AcDbDictionary
280
0
281
1
  3
Model
350
1A
  3
Layout1
350
1E
  0
DICTIONARY
  5
E
330
A
100
AcDbDictionary
280
0
281
1
  3
ByBlock
350
1F
  3
ByLayer
350
20
  3
Global
350
21
  0
DICTIONARY
  5
F
330
A
100
AcDbDictionary
280
0
281
1
  3
Standard
350
2C
  0
DICTIONARY
  5
10
330
A
100
AcDbDictionary
280
0
281
1
  3
Standard
350
22
  0
DICTIONARY
  5
11
330
A
100
AcDbDictionary
280
0
281
1
  0
ACDBDICTIONARYWDFLT
  5
12
330
A
100
AcDbDictionary
280
0
281
1
  3
Normal
350
13
100
AcDbDictionaryWithDefault
340
13
  0
ACDBPLACEHOLDER
  5
13
330
12
  0
DICTIONARY
  5
14
330
A
100
AcDbDictionary
280
0
281
1
  0
DICTIONARY
  5
15
330
A
100
AcDbDictionary
280
0
281
1
  0
DICTIONARY
  5
16
330
A
100
AcDbDictionary
280
0
281
1
  0
LAYOUT
  5
1A
330
D
100
AcDbPlotSettings
  1

  2
Adobe PDF
  4
A3
  6

 40
7.5
 41
20.0
 42
7.5
 43
20.0
 44
420.0
 45
297.0
 46
0.0
 47
0.0
 48
0.0
 49
0.0
140
0.0
141
0.0
142
1.0
143
1.0
 70
1024
 72
1
 73
0
 74
5
  7

 75
16
 76
0
 77
2
 78
300
147
1.0
148
0.0
149
0.0
100
AcDbLayout
  1
Model
 70
1
 71
0
 10
0.0
 20
0.0
 11
420.0
 21
297.0
 12
0.0
 22
0.0
 32
0.0
 14
1e+20
 24
1e+20
 34
1e+20
 15
-1e+20
 25
-1e+20
 35
-1e+20
146
0.0
 13
0.0
 23
0.0
 33
0.0
 16
1.0
 26
0.0
 36
0.0
 17
0.0
 27
1.0
 37
0.0
 76
1
330
17
  0
LAYOUT
  5
1E
330
D
100
AcDbPlotSettings
  1

  2
Adobe PDF
  4
A3
  6

 40
7.5
 41
20.0
 42
7.5
 43
20.0
 44
420.0
 45
297.0
 46
0.0
 47
0.0
 48
0.0
 49
0.0
140
0.0
141
0.0
142
1.0
143
1.0
 70
0
 72
1
 73
0
 74
5
  7

 75
16
 76
0
 77
2
 78
300
147
1.0
148
0.0
149
0.0
100
AcDbLayout
  1
Layout1
 70
1
 71
1
 10
0.0
 20
0.0
 11
420.0
 21
297.0
 12
0.0
 22
0.0
 32
0.0
 14
1e+20
 24
1e+20
 34
1e+20
 15
-1e+20
 25
-1e+20
 35
-1e+20
146
0.0
 13
0.0
 23
0.0
 33
0.0
 16
1.0
 26
0.0
 36
0.0
 17
0.0
 27
1.0
 37
0.0
 76
1
330
1B
  0
MATERIAL
  5
1F
102
{ACAD_REACTORS
330
E
102
}
330
E
100
AcDbMaterial
  1
ByBlock
  2

 70
0
 40
1.0
 71
1
 41
1.0
 91
-1023410177
 42
1.0
 72
1
  3

 73
1
 74
1
 75
1
 44
0.5
 73
0
 45
1.0
 46
1.0
 77
1
  4

 78
1
 79
1
170
1
 48
1.0
171
1
  6

172
1
173
1
174
1
140
1.0
141
1.0
175
1
  7

176
1
177
1
178
1
143
1.0
179
1
  8

270
1
271
1
272
1
145
1.0
146
1.0
273
1
  9

274
1
275
1
276
1
 42
1.0
 72
1
  3

 73
1
 74
1
 75
1
 94
63
  0
MATERIAL
  5
20
102
{ACAD_REACTORS
330
E
102
}
330
E
100
AcDbMaterial
  1
ByLayer
  2

 70
0
 40
1.0
 71
1
 41
1.0
 91
-1023410177
 42
1.0
 72
1
  3

 73
1
 74
1
 75
1
 44
0.5
 73
0
 45
1.0
 46
1.0
 77
1
  4

 78
1
 79
1
170
1
 48
1.0
171
1
  6

172
1
173
1
174
1
140
1.0
141
1.0
175
1
  7

176
1
177
1
178
1
143
1.0
179
1
  8

270
1
271
1
272
1
145
1.0
146
1.0
273
1
  9

274
1
275
1
276
1
 42
1.0
 72
1
  3

 73
1
 74
1
 75
1
 94
63
  0
MATERIAL
  5
21
102
{ACAD_REACTORS
330
E
102
}
330
E
100
AcDbMaterial
  1
Global
  2

 70
0
 40
1.0
 71
1
 41
1.0
 91
-1023410177
 42
1.0
 72
1
  3

 73
1
 74
1
 75
1
 44
0.5
 73
0
 45
1.0
 46
1.0
 77
1
  4

 78
1
 79
1
170
1
 48
1.0
171
1
  6

172
1
173
1
174
1
140
1.0
141
1.0
175
1
  7

176
1
177
1
178
1
143
1.0
179
1
  8

270
1
271
1
272
1
145
1.0
146
1.0
273
1
  9

274
1
275
1
276
1
 42
1.0
 72
1
  3

 73
1
 74
1
 75
1
 94
63
  0
MLINESTYLE
  5
22
102
{ACAD_REACTORS
330
10
102
}
330
10
100
AcDbMlineStyle
  2
Standard
 70
0
  3

 62
256
 51
90.0
 52
90.0
 71
2
 49
0.5
 62
256
  6
BYLAYER
 49
-0.5
 62
256
  6
BYLAYER
  0
MLEADERSTYLE
  5
2C
102
{ACAD_REACTORS
330
F
102
}
330
F
100
AcDbMLeaderStyle
179
2
170
2
171
1
172
0
 90
2
 40
0.0
 41
0.0
173
1
 91
-1056964608
 92
-2
290
1
 42
2.0
291
1
 43
8.0
  3
Standard
 44
4.0
300

342
29
174
1
175
1
176
0
178
1
 93
-1056964608
 45
4.0
292
0
297
0
 46
4.0
 94
-1056964608
 47
1.0
 49
1.0
140
1.0
294
1
141
0.0
177
0
142
1.0
295
0
296
0
143
3.75
271
0
272
9
273
9
  0
DICTIONARY
  5
2D
330
A
100
AcDbDictionary
281
1
  3
CREATED_BY_EZDXF
350
2E
  3
WRITTEN_BY_EZDXF
350
6C
  0
DICTIONARYVAR
  5
2E
330
2D
100
DictionaryVariables
280
0
  1
1.3.0 @ 2024-05-18T10:41:24.166964+00:00
  0
GROUP
  5
2F
102
{ACAD_REACTORS
330
C
102
}
330
C
100
AcDbGroup
300

 70
1
 71
1
340
30
340
31
340
32
340
33
340
34
340
35
  0
GROUP
  5
36
102
{ACAD_REACTORS
330
C
102
}
330
C
100
AcDbGroup
300

 70
1
 71
1
340
37
340
38
340
39
340
3A
340
3B
  0
GROUP
  5
3C
102
{ACAD_REACTORS
330
C
102
}
330
C
100
AcDbGroup
300

 70
1
 71
1
340
3D
340
3E
340
3F
340
40
340
41
340
42
340
43
340
44
340
45
340
46
340
47
340
48
  0
GROUP
  5
49
102
{ACAD_REACTORS
330
C
102
}
330
C
100
AcDbGroup
300

 70
1
 71
1
340
4A
340
4B
340
4C
340
4D
340
4E
340
4F
340
50
340
51
340
52
340
53
340
54
340
55
340
56
340
57
340
58
  0
GROUP
  5
59
102
{ACAD_REACTORS
330
C
102
}
330
C
100
AcDbGroup
300

 70
1
 71
1
340
5A
340
5B
340
5C
340
5D
340
5E
340
5F
340
60
340
61
340
62
340
63
340
64
340
65
340
66
340
67
340
68
340
69
  0
DICTIONARYVAR
  5
6C
330
2D
100
DictionaryVariables
280
0
  1
1.3.0 @ 2024-05-18T10:41:28.017220+00:00
  0
ENDSEC
  0
EOF
