  0
SECTION
  2
HEADER
  9
$ACADVER
  1
AC1015
  9
$ACADMAINTVER
 70
6
  9
$DWGCODEPAGE
  3
ANSI_1252
  9
$INSBASE
 10
0.0
 20
0.0
 30
0.0
  9
$EXTMIN
 10
1e+20
 20
1e+20
 30
1e+20
  9
$EXTMAX
 10
-1e+20
 20
-1e+20
 30
-1e+20
  9
$LIMMIN
 10
0.0
 20
0.0
  9
$LIMMAX
 10
420.0
 20
297.0
  9
$ORTHOMODE
 70
0
  9
$REGENMODE
 70
1
  9
$FILLMODE
 70
1
  9
$QTEXTMODE
 70
0
  9
$MIRRTEXT
 70
1
  9
$LTSCALE
 40
1.0
  9
$ATTMODE
 70
1
  9
$TEXTSIZE
 40
2.5
  9
$TRACEWID
 40
1.0
  9
$TEXTSTYLE
  7
Standard
  9
$CLAYER
  8
0
  9
$CELTYPE
  6
ByLayer
  9
$CECOLOR
 62
256
  9
$CELTSCALE
 40
1.0
  9
$DISPSILH
 70
0
  9
$DIMSCALE
 40
1.0
  9
$DIMASZ
 40
2.5
  9
$DIMEXO
 40
0.625
  9
$DIMDLI
 40
3.75
  9
$DIMRND
 40
0.0
  9
$DIMDLE
 40
0.0
  9
$DIMEXE
 40
1.25
  9
$DIMTP
 40
0.0
  9
$DIMTM
 40
0.0
  9
$DIMTXT
 40
2.5
  9
$DIMCEN
 40
2.5
  9
$DIMTSZ
 40
0.0
  9
$DIMTOL
 70
0
  9
$DIMLIM
 70
0
  9
$DIMTIH
 70
0
  9
$DIMTOH
 70
0
  9
$DIMSE1
 70
0
  9
$DIMSE2
 70
0
  9
$DIMTAD
 70
1
  9
$DIMZIN
 70
8
  9
$DIMBLK
  1

  9
$DIMASO
 70
1
  9
$DIMSHO
 70
1
  9
$DIMPOST
  1

  9
$DIMAPOST
  1

  9
$DIMALT
 70
0
  9
$DIMALTD
 70
3
  9
$DIMALTF
 40
0.03937007874
  9
$DIMLFAC
 40
1.0
  9
$DIMTOFL
 70
1
  9
$DIMTVP
 40
0.0
  9
$DIMTIX
 70
0
  9
$DIMSOXD
 70
0
  9
$DIMSAH
 70
0
  9
$DIMBLK1
  1

  9
$DIMBLK2
  1

  9
$DIMSTYLE
  2
ISO-25
  9
$DIMCLRD
 70
0
  9
$DIMCLRE
 70
0
  9
$DIMCLRT
 70
0
  9
$DIMTFAC
 40
1.0
  9
$DIMGAP
 40
0.625
  9
$DIMJUST
 70
0
  9
$DIMSD1
 70
0
  9
$DIMSD2
 70
0
  9
$DIMTOLJ
 70
0
  9
$DIMTZIN
 70
8
  9
$DIMALTZ
 70
0
  9
$DIMALTTZ
 70
0
  9
$DIMUPT
 70
0
  9
$DIMDEC
 70
2
  9
$DIMTDEC
 70
2
  9
$DIMALTU
 70
2
  9
$DIMALTTD
 70
3
  9
$DIMTXSTY
  7
Standard
  9
$DIMAUNIT
 70
0
  9
$DIMADEC
 70
0
  9
$DIMALTRND
 40
0.0
  9
$DIMAZIN
 70
0
  9
$DIMDSEP
 70
44
  9
$DIMATFIT
 70
3
  9
$DIMFRAC
 70
0
  9
$DIMLDRBLK
  1

  9
$DIMLUNIT
 70
2
  9
$DIMLWD
 70
-2
  9
$DIMLWE
 70
-2
  9
$DIMTMOVE
 70
0
  9
$LUNITS
 70
2
  9
$LUPREC
 70
4
  9
$SKETCHINC
 40
1.0
  9
$FILLETRAD
 40
10.0
  9
$AUNITS
 70
0
  9
$AUPREC
 70
2
  9
$MENU
  1
.
  9
$ELEVATION
 40
0.0
  9
$PELEVATION
 40
0.0
  9
$THICKNESS
 40
0.0
  9
$LIMCHECK
 70
0
  9
$CHAMFERA
 40
0.0
  9
$CHAMFERB
 40
0.0
  9
$CHAMFERC
 40
0.0
  9
$CHAMFERD
 40
0.0
  9
$SKPOLY
 70
0
  9
$TDCREATE
 40
2460458.3589930558
  9
$TDUCREATE
 40
2458532.153996898
  9
$TDUPDATE
 40
2460458.3590856483
  9
$TDUUPDATE
 40
2458532.1544311
  9
$TDINDWG
 40
0.0
  9
$TDUSRTIMER
 40
0.0
  9
$USRTIMER
 70
1
  9
$ANGBASE
 50
0.0
  9
$ANGDIR
 70
0
  9
$PDMODE
 70
0
  9
$PDSIZE
 40
0.0
  9
$PLINEWID
 40
0.0
  9
$SPLFRAME
 70
0
  9
$SPLINETYPE
 70
6
  9
$SPLINESEGS
 70
8
  9
$HANDSEED
  5
4C
  9
$SURFTAB1
 70
6
  9
$SURFTAB2
 70
6
  9
$SURFTYPE
 70
6
  9
$SURFU
 70
6
  9
$SURFV
 70
6
  9
$UCSBASE
  2

  9
$UCSNAME
  2

  9
$UCSORG
 10
0.0
 20
0.0
 30
0.0
  9
$UCSXDIR
 10
1.0
 20
0.0
 30
0.0
  9
$UCSYDIR
 10
0.0
 20
1.0
 30
0.0
  9
$UCSORTHOREF
  2

  9
$UCSORTHOVIEW
 70
0
  9
$UCSORGTOP
 10
0.0
 20
0.0
 30
0.0
  9
$UCSORGBOTTOM
 10
0.0
 20
0.0
 30
0.0
  9
$UCSORGLEFT
 10
0.0
 20
0.0
 30
0.0
  9
$UCSORGRIGHT
 10
0.0
 20
0.0
 30
0.0
  9
$UCSORGFRONT
 10
0.0
 20
0.0
 30
0.0
  9
$UCSORGBACK
 10
0.0
 20
0.0
 30
0.0
  9
$PUCSBASE
  2

  9
$PUCSNAME
  2

  9
$PUCSORG
 10
0.0
 20
0.0
 30
0.0
  9
$PUCSXDIR
 10
1.0
 20
0.0
 30
0.0
  9
$PUCSYDIR
 10
0.0
 20
1.0
 30
0.0
  9
$PUCSORTHOREF
  2

  9
$PUCSORTHOVIEW
 70
0
  9
$PUCSORGTOP
 10
0.0
 20
0.0
 30
0.0
  9
$PUCSORGBOTTOM
 10
0.0
 20
0.0
 30
0.0
  9
$PUCSORGLEFT
 10
0.0
 20
0.0
 30
0.0
  9
$PUCSORGRIGHT
 10
0.0
 20
0.0
 30
0.0
  9
$PUCSORGFRONT
 10
0.0
 20
0.0
 30
0.0
  9
$PUCSORGBACK
 10
0.0
 20
0.0
 30
0.0
  9
$USERI1
 70
0
  9
$USERI2
 70
0
  9
$USERI3
 70
0
  9
$USERI4
 70
0
  9
$USERI5
 70
0
  9
$USERR1
 40
0.0
  9
$USERR2
 40
0.0
  9
$USERR3
 40
0.0
  9
$USERR4
 40
0.0
  9
$USERR5
 40
0.0
  9
$WORLDVIEW
 70
1
  9
$SHADEDGE
 70
3
  9
$SHADEDIF
 70
70
  9
$TILEMODE
 70
1
  9
$MAXACTVP
 70
64
  9
$PINSBASE
 10
0.0
 20
0.0
 30
0.0
  9
$PLIMCHECK
 70
0
  9
$PEXTMIN
 10
1e+20
 20
1e+20
 30
1e+20
  9
$PEXTMAX
 10
-1e+20
 20
-1e+20
 30
-1e+20
  9
$PLIMMIN
 10
0.0
 20
0.0
  9
$PLIMMAX
 10
420.0
 20
297.0
  9
$UNITMODE
 70
0
  9
$VISRETAIN
 70
1
  9
$PLINEGEN
 70
0
  9
$PSLTSCALE
 70
1
  9
$TREEDEPTH
 70
3020
  9
$CMLSTYLE
  2
Standard
  9
$CMLJUST
 70
0
  9
$CMLSCALE
 40
20.0
  9
$PROXYGRAPHICS
 70
1
  9
$MEASUREMENT
 70
1
  9
$CELWEIGHT
370
-1
  9
$ENDCAPS
280
0
  9
$JOINSTYLE
280
0
  9
$LWDISPLAY
290
0
  9
$INSUNITS
 70
6
  9
$HYPERLINKBASE
  1

  9
$STYLESHEET
  1

  9
$XEDIT
290
1
  9
$CEPSNTYPE
380
0
  9
$PSTYLEMODE
290
1
  9
$FINGERPRINTGUID
  2
{3D18AD64-37BC-4169-9551-8F8F302E265D}
  9
$VERSIONGUID
  2
{D08F4024-760C-4EEA-B74D-CE44DF44F666}
  9
$EXTNAMES
290
1
  9
$PSVPSCALE
 40
0.0
  9
$OLESTARTUP
290
0
  0
ENDSEC
  0
SECTION
  2
CLASSES
  0
CLASS
  1
ACDBDICTIONARYWDFLT
  2
AcDbDictionaryWithDefault
  3
ObjectDBX Classes
 90
0
280
0
281
0
  0
CLASS
  1
SUN
  2
AcDbSun
  3
SCENEOE
 90
1153
280
0
281
0
  0
CLASS
  1
VISUALSTYLE
  2
AcDbVisualStyle
  3
ObjectDBX Classes
 90
4095
280
0
281
0
  0
CLASS
  1
MATERIAL
  2
AcDbMaterial
  3
ObjectDBX Classes
 90
1153
280
0
281
0
  0
CLASS
  1
SCALE
  2
AcDbScale
  3
ObjectDBX Classes
 90
1153
280
0
281
0
  0
CLASS
  1
TABLESTYLE
  2
AcDbTableStyle
  3
ObjectDBX Classes
 90
4095
280
0
281
0
  0
CLASS
  1
MLEADERSTYLE
  2
AcDbMLeaderStyle
  3
ACDB_MLEADERSTYLE_CLASS
 90
4095
280
0
281
0
  0
CLASS
  1
DICTIONARYVAR
  2
AcDbDictionaryVar
  3
ObjectDBX Classes
 90
0
280
0
281
0
  0
CLASS
  1
CELLSTYLEMAP
  2
AcDbCellStyleMap
  3
ObjectDBX Classes
 90
1152
280
0
281
0
  0
CLASS
  1
MENTALRAYRENDERSETTINGS
  2
AcDbMentalRayRenderSettings
  3
SCENEOE
 90
1024
280
0
281
0
  0
CLASS
  1
ACDBDETAILVIEWSTYLE
  2
AcDbDetailViewStyle
  3
ObjectDBX Classes
 90
1025
280
0
281
0
  0
CLASS
  1
ACDBSECTIONVIEWSTYLE
  2
AcDbSectionViewStyle
  3
ObjectDBX Classes
 90
1025
280
0
281
0
  0
CLASS
  1
RASTERVARIABLES
  2
AcDbRasterVariables
  3
ISM
 90
0
280
0
281
0
  0
CLASS
  1
ACDBPLACEHOLDER
  2
AcDbPlaceHolder
  3
ObjectDBX Classes
 90
0
280
0
281
0
  0
CLASS
  1
LAYOUT
  2
AcDbLayout
  3
ObjectDBX Classes
 90
0
280
0
281
0
  0
ENDSEC
  0
SECTION
  2
TABLES
  0
TABLE
  2
VPORT
  5
8
330
0
100
AcDbSymbolTable
 70
1
  0
VPORT
  5
23
330
8
100
AcDbSymbolTableRecord
100
AcDbViewportTableRecord
  2
*Active
 70
0
 10
0.0
 20
0.0
 11
1.0
 21
1.0
 12
0.0
 22
0.0
 13
0.0
 23
0.0
 14
0.5
 24
0.5
 15
0.5
 25
0.5
 16
0.0
 26
0.0
 36
1.0
 17
0.0
 27
0.0
 37
0.0
 40
1000.0
 41
1.34
 42
50.0
 43
0.0
 44
0.0
 50
0.0
 51
0.0
 71
0
 72
1000
 73
1
 74
3
 75
0
 76
0
 77
0
 78
0
281
0
 65
0
146
0.0
  0
ENDTAB
  0
TABLE
  2
LTYPE
  5
2
330
0
100
AcDbSymbolTable
 70
3
  0
LTYPE
  5
24
330
2
100
AcDbSymbolTableRecord
100
AcDbLinetypeTableRecord
  2
ByBlock
 70
0
  3

 72
65
 73
0
 40
0.0
  0
LTYPE
  5
25
330
2
100
AcDbSymbolTableRecord
100
AcDbLinetypeTableRecord
  2
ByLayer
 70
0
  3

 72
65
 73
0
 40
0.0
  0
LTYPE
  5
26
330
2
100
AcDbSymbolTableRecord
100
AcDbLinetypeTableRecord
  2
Continuous
 70
0
  3

 72
65
 73
0
 40
0.0
  0
ENDTAB
  0
TABLE
  2
LAYER
  5
1
330
0
100
AcDbSymbolTable
 70
2
  0
LAYER
  5
27
330
1
100
AcDbSymbolTableRecord
100
AcDbLayerTableRecord
  2
0
 70
0
 62
7
  6
Continuous
370
-3
390
13
  0
LAYER
  5
28
330
1
100
AcDbSymbolTableRecord
100
AcDbLayerTableRecord
  2
Defpoints
 70
0
 62
7
  6
Continuous
290
0
370
-3
390
13
  0
ENDTAB
  0
TABLE
  2
STYLE
  5
5
330
0
100
AcDbSymbolTable
 70
1
  0
STYLE
  5
29
330
5
100
AcDbSymbolTableRecord
100
AcDbTextStyleTableRecord
  2
Standard
 70
0
 40
0.0
 41
1.0
 50
0.0
 71
0
 42
2.5
  3
txt
  4

  0
ENDTAB
  0
TABLE
  2
VIEW
  5
7
330
0
100
AcDbSymbolTable
 70
0
  0
ENDTAB
  0
TABLE
  2
UCS
  5
6
330
0
100
AcDbSymbolTable
 70
0
  0
ENDTAB
  0
TABLE
  2
APPID
  5
3
330
0
100
AcDbSymbolTable
 70
3
  0
APPID
  5
2A
330
3
100
AcDbSymbolTableRecord
100
AcDbRegAppTableRecord
  2
ACAD
 70
0
  0
APPID
  5
49
330
3
100
AcDbSymbolTableRecord
100
AcDbRegAppTableRecord
  2
HATCHBACKGROUNDCOLOR
 70
0
  0
APPID
  5
4A
330
3
100
AcDbSymbolTableRecord
100
AcDbRegAppTableRecord
  2
EZDXF
 70
0
  0
ENDTAB
  0
TABLE
  2
DIMSTYLE
  5
4
330
0
100
AcDbSymbolTable
 70
1
100
AcDbDimStyleTable
  0
DIMSTYLE
105
2B
330
4
100
AcDbSymbolTableRecord
100
AcDbDimStyleTableRecord
  2
Standard
 70
0
  3

  4

 40
1.0
 41
2.5
 42
0.625
 43
3.75
 44
1.25
 45
0.0
 46
0.0
 47
0.0
 48
0.0
140
2.5
141
2.5
142
0.0
143
0.03937007874
144
1.0
145
0.0
146
1.0
147
0.625
148
0.0
 71
0
 72
0
 73
0
 74
0
 75
0
 76
0
 77
1
 78
8
 79
3
170
0
171
3
172
1
173
0
174
0
175
0
176
0
177
0
178
0
179
2
271
2
272
2
273
2
274
3
275
0
276
0
277
2
278
44
279
0
280
0
281
0
282
0
283
0
284
8
285
0
286
0
288
0
289
3
371
-2
372
-2
  0
ENDTAB
  0
TABLE
  2
BLOCK_RECORD
  5
9
330
0
100
AcDbSymbolTable
 70
2
  0
BLOCK_RECORD
  5
17
330
9
100
AcDbSymbolTableRecord
100
AcDbBlockTableRecord
  2
*Model_Space
340
1A
  0
BLOCK_RECORD
  5
1B
330
9
100
AcDbSymbolTableRecord
100
AcDbBlockTableRecord
  2
*Paper_Space
340
1E
  0
ENDTAB
  0
ENDSEC
  0
SECTION
  2
BLOCKS
  0
BLOCK
  5
18
330
17
100
AcDbEntity
  8
0
100
AcDbBlockBegin
  2
*Model_Space
 70
0
 10
0.0
 20
0.0
 30
0.0
  3
*Model_Space
  1

  0
ENDBLK
  5
19
330
17
100
AcDbEntity
  8
0
100
AcDbBlockEnd
  0
BLOCK
  5
1C
330
1B
100
AcDbEntity
  8
0
100
AcDbBlockBegin
  2
*Paper_Space
 70
0
 10
0.0
 20
0.0
 30
0.0
  3
*Paper_Space
  1

  0
ENDBLK
  5
1D
330
1B
100
AcDbEntity
  8
0
100
AcDbBlockEnd
  0
ENDSEC
  0
SECTION
  2
ENTITIES
  0
LWPOLYLINE
  5
30
330
17
100
AcDbEntity
  8
0
 62
6
100
AcDbPolyline
 90
4
 70
0
 10
106.18627145085803
 20
47.45454545454545
 10
114.19313572542902
 20
48.756651884700666
 10
106.18627145085803
 20
47.45454545454545
 10
106.18627145085803
 20
47.45454545454545
  0
LWPOLYLINE
  5
32
330
17
100
AcDbEntity
  8
0
 62
6
100
AcDbPolyline
 90
4
 70
0
 10
103.04071762870515
 20
46.68292682926829
 10
114.33611544461779
 20
48.708425720620845
 10
103.04071762870515
 20
46.68292682926829
 10
103.04071762870515
 20
46.68292682926829
  0
LWPOLYLINE
  5
34
330
17
100
AcDbEntity
  8
0
 62
6
100
AcDbPolyline
 90
6
 70
0
 10
107.13946957878315
 20
43.06596452328159
 10
102.03985959438377
 20
45.13968957871397
 10
105.9003120124805
 20
45.23614190687361
 10
108.045007800312
 20
43.9340354767184
 10
107.13946957878315
 20
43.06596452328159
 10
107.13946957878315
 20
43.06596452328159
  0
LWPOLYLINE
  5
36
330
17
100
AcDbEntity
  8
0
 62
6
100
AcDbPolyline
 90
8
 70
0
 10
102.03985959438377
 20
37.809312638580934
 10
100.32410296411857
 20
38.19512195121951
 10
100.32410296411857
 20
38.72560975609756
 10
110.04672386895476
 20
39.64190687361419
 10
106.56755070202809
 20
38.14689578713969
 10
103.80327613104524
 20
38.436252771618626
 10
102.03985959438377
 20
37.809312638580934
 10
102.03985959438377
 20
37.809312638580934
  0
LWPOLYLINE
  5
38
330
17
100
AcDbEntity
  8
0
 62
6
100
AcDbPolyline
 90
7
 70
0
 10
107.85436817472699
 20
37.08592017738359
 10
107.04414976599064
 20
37.56818181818182
 10
107.37776911076443
 20
38.14689578713969
 10
110.33268330733229
 20
39.11141906873614
 10
113.28759750390016
 20
38.09866962305987
 10
107.85436817472699
 20
37.08592017738359
 10
107.85436817472699
 20
37.08592017738359
  0
LWPOLYLINE
  5
3A
330
17
100
AcDbEntity
  8
0
 62
6
100
AcDbPolyline
 90
11
 70
0
 10
66.00897035881435
 20
35.25332594235033
 10
55.42847113884555
 20
36.169623059866964
 10
56.42932917316693
 20
45.52549889135255
 10
57.62082683307332
 20
45.81485587583148
 10
61.43361934477379
 20
50.830376940133036
 10
65.43705148205927
 20
52.71119733924612
 10
65.91365054602184
 20
52.71119733924612
 10
65.67535101404056
 20
41.570953436807095
 10
66.91450858034321
 20
35.639135254988915
 10
66.00897035881435
 20
35.25332594235033
 10
66.00897035881435
 20
35.25332594235033
  0
LWPOLYLINE
  5
3C
330
17
100
AcDbEntity
  8
0
 62
6
100
AcDbPolyline
 90
11
 70
0
 10
45.61053042121685
 20
34.81929046563193
 10
44.228393135725426
 20
57.77494456762749
 10
45.46755070202808
 20
58.16075388026607
 10
47.32628705148206
 20
62.211751662971174
 10
49.042043681747266
 20
64.1890243902439
 10
52.75951638065523
 20
66.21452328159646
 10
53.99867394695788
 20
51.74667405764966
 10
52.997815912636504
 20
42.96951219512195
 10
53.14079563182527
 20
35.108647450110865
 10
45.61053042121685
 20
34.81929046563193
 10
45.61053042121685
 20
34.81929046563193
  0
LWPOLYLINE
  5
3E
330
17
100
AcDbEntity
  8
0
 62
6
100
AcDbPolyline
 90
39
 70
0
 10
10.008580343213728
 20
34.48170731707317
 10
4.432371294851794
 20
36.50720620842572
 10
5.623868954758191
 20
48.22616407982262
 10
5.385569422776911
 20
54.83314855875832
 10
6.481747269890795
 20
53.531042128603104
 10
7.530265210608424
 20
53.86862527716186
 10
4.813650546021841
 20
55.749445676274945
 10
13.154134165366614
 20
55.701219512195124
 10
13.773712948517941
 20
54.30266075388027
 10
14.440951638065522
 20
54.92960088691796
 10
13.487753510140406
 20
54.83314855875832
 10
13.535413416536661
 20
55.604767184035474
 10
15.394149765990639
 20
55.89412416851441
 10
4.432371294851794
 20
56.13525498891352
 10
1.3344773790951638
 20
57.5820399113082
 10
1.5727769110764431
 20
58.83592017738359
 10
22.018876755070202
 20
58.980598669623056
 10
21.494617784711387
 20
60.716740576496676
 10
21.303978159126366
 20
59.31818181818182
 10
20.54141965678627
 20
59.077050997782706
 10
19.63588143525741
 20
59.17350332594235
 10
19.87418096723869
 20
59.84866962305987
 10
15.489469578783151
 20
59.607538802660756
 10
14.869890795631825
 20
60.42738359201774
 10
12.96349453978159
 20
59.7039911308204
 10
11.152418096723869
 20
60.47560975609756
 10
6.672386895475819
 20
60.33093126385809
 10
3.765132605304212
 20
59.462860310421284
 10
3.7174726989079563
 20
60.86141906873614
 10
3.09789391575663
 20
59.36640798226164
 10
1.8587363494539781
 20
59.36640798226164
 10
5.623868954758191
 20
74.02716186252772
 10
22.40015600624025
 20
73.83425720620842
 10
23.067394695787833
 20
56.37638580931264
 10
22.781435257410298
 20
39.78658536585366
 10
14.34563182527301
 20
38.19512195121951
 10
12.153276131045242
 20
36.8930155210643
 10
10.008580343213728
 20
34.48170731707317
 10
10.008580343213728
 20
34.48170731707317
  0
LWPOLYLINE
  5
40
330
17
100
AcDbEntity
  8
0
 62
6
100
AcDbPolyline
 90
31
 70
0
 10
30.740639625585022
 20
34.14412416851441
 10
24.401872074882995
 20
55.36363636363636
 10
25.11677067082683
 20
55.604767184035474
 10
24.401872074882995
 20
55.36363636363636
 10
25.02145085803432
 20
52.61474501108648
 10
28.214664586583464
 20
43.69290465631929
 10
27.92870514820593
 20
43.01773835920177
 10
30.597659906396256
 20
34.28880266075388
 10
35.79258970358814
 20
36.94124168514412
 10
34.07683307332293
 20
44.03048780487805
 10
33.64789391575663
 20
50.58924611973392
 10
34.93471138845554
 20
53.14523281596452
 10
39.55772230889235
 20
54.640243902439025
 10
39.224102964118565
 20
71.76053215077606
 10
28.309984399375974
 20
73.73780487804878
 10
27.166146645865833
 20
66.35920177383592
 10
24.163572542901715
 20
57.5820399113082
 10
24.163572542901715
 20
56.0870288248337
 10
24.878471138845555
 20
55.701219512195124
 10
24.163572542901715
 20
56.0870288248337
 10
24.163572542901715
 20
57.5820399113082
 10
27.166146645865833
 20
66.35920177383592
 10
28.35764430577223
 20
73.83425720620842
 10
39.224102964118565
 20
71.76053215077606
 10
39.55772230889235
 20
54.640243902439025
 10
35.03003120124805
 20
53.19345898004435
 10
33.64789391575663
 20
50.58924611973392
 10
34.07683307332293
 20
44.03048780487805
 10
35.79258970358814
 20
36.8930155210643
 10
30.740639625585022
 20
34.14412416851441
 10
30.740639625585022
 20
34.14412416851441
  0
LWPOLYLINE
  5
42
330
17
100
AcDbEntity
  8
0
 62
6
100
AcDbPolyline
 90
8
 70
0
 10
101.56326053042122
 20
32.890243902439025
 10
100.22878315132606
 20
33.66186252771619
 10
96.74960998439937
 20
33.951219512195124
 10
101.27730109204369
 20
34.04767184035477
 10
101.27730109204369
 20
33.468957871396896
 10
103.5173166926677
 20
33.13137472283814
 10
101.56326053042122
 20
32.890243902439025
 10
101.56326053042122
 20
32.890243902439025
  0
LWPOLYLINE
  5
44
330
17
100
AcDbEntity
  8
0
 62
6
100
AcDbPolyline
 90
19
 70
0
 10
110.57098283931357
 20
28.356984478935697
 10
108.66458658346333
 20
28.887472283813747
 10
107.09180967238689
 20
30.334257206208424
 10
99.03728549141965
 20
28.887472283813747
 10
97.94110764430577
 20
29.12860310421286
 10
97.98876755070202
 20
29.948447893569845
 10
98.84664586583463
 20
29.514412416851442
 10
98.70366614664586
 20
30.527161862527716
 10
102.03985959438377
 20
29.996674057649667
 10
104.99477379095164
 20
31.3470066518847
 10
106.42457098283931
 20
30.47893569844789
 10
105.66201248049921
 20
31.53991130820399
 10
106.85351014040562
 20
32.50443458980045
 10
109.52246489859594
 20
30.527161862527716
 10
111.71482059282371
 20
31.00942350332594
 10
112.76333853354134
 20
30.38248337028825
 10
110.66630265210608
 20
30.23780487804878
 10
110.57098283931357
 20
28.356984478935697
 10
110.57098283931357
 20
28.356984478935697
  0
LWPOLYLINE
  5
46
330
17
100
AcDbEntity
  8
0
 62
6
100
AcDbPolyline
 90
44
 70
0
 10
93.17511700468019
 20
23.196784922394677
 10
91.36404056162246
 20
45.57372505543237
 10
94.70023400936037
 20
61.729490022172946
 10
103.61263650546022
 20
65.34645232815964
 10
106.23393135725429
 20
60.08980044345898
 10
113.57355694227769
 20
53.579268292682926
 10
115.90889235569422
 20
50.05875831485587
 10
117.29102964118565
 20
36.02494456762749
 10
115.33697347893916
 20
35.20509977827051
 10
104.32753510140405
 20
34.578159645232816
 10
103.70795631825273
 20
34.19235033259424
 10
104.47051482059283
 20
33.75831485587583
 10
109.28416536661466
 20
33.9029933481153
 10
103.70795631825273
 20
34.14412416851441
 10
105.99563182527301
 20
34.86751662971175
 10
115.33697347893916
 20
35.20509977827051
 10
117.29102964118565
 20
36.073170731707314
 10
116.1471918876755
 20
49.480044345898
 10
113.62121684867394
 20
53.48281596452328
 10
106.09095163806552
 20
60.23447893569845
 10
103.61263650546022
 20
65.34645232815964
 10
94.93853354134166
 20
62.11529933481153
 10
91.36404056162246
 20
45.57372505543237
 10
92.98447737909517
 20
23.38968957871397
 10
98.9896255850234
 20
23.341463414634145
 10
108.56926677067082
 20
24.788248337028826
 10
108.52160686427457
 20
24.16130820399113
 10
118.00592823712948
 20
24.740022172949
 10
117.43400936037442
 20
34.3370288248337
 10
113.62121684867394
 20
34.67461197339246
 10
114.0978159126365
 20
33.17960088691796
 10
113.09695787831514
 20
33.951219512195124
 10
109.37948517940717
 20
33.80654101995565
 10
113.09695787831514
 20
33.951219512195124
 10
114.0978159126365
 20
33.17960088691796
 10
113.38291731669267
 20
34.62638580931264
 10
117.38634945397816
 20
34.433481152993345
 10
118.14890795631825
 20
24.836474501108647
 10
109.37948517940717
 20
24.16130820399113
 10
108.3786271450858
 20
24.209534368070955
 10
108.56926677067082
 20
24.788248337028826
 10
98.9896255850234
 20
23.341463414634145
 10
93.17511700468019
 20
23.196784922394677
 10
93.17511700468019
 20
23.196784922394677
  0
LWPOLYLINE
  5
48
330
17
100
AcDbEntity
  8
0
 62
6
100
AcDbPolyline
 90
24
 70
0
 10
107.80670826833074
 20
4.147450110864745
 10
98.8943057722309
 20
6.221175166297117
 10
94.12831513260531
 20
19.628048780487806
 10
98.84664586583463
 20
6.3176274944567625
 10
107.99734789391576
 20
4.147450110864745
 10
110.04672386895476
 20
10.32039911308204
 10
117.00507020280811
 20
18.759977827050996
 10
118.24422776911076
 20
22.184035476718403
 10
118.1965678627145
 20
24.16130820399113
 10
106.6628705148206
 20
23.003880266075388
 10
107.33010920436817
 20
23.58259423503326
 10
105.28073322932917
 20
23.534368070953438
 10
93.12745709828393
 20
22.618070953436806
 10
94.17597503900156
 20
19.772727272727273
 10
93.03213728549142
 20
22.47339246119734
 10
93.699375975039
 20
22.85920177383592
 10
106.99648985959438
 20
23.58259423503326
 10
106.6628705148206
 20
23.003880266075388
 10
118.1965678627145
 20
24.209534368070955
 10
118.24422776911076
 20
22.184035476718403
 10
116.95741029641185
 20
18.663525498891353
 10
109.9990639625585
 20
10.223946784922395
 10
107.80670826833074
 20
4.147450110864745
 10
107.80670826833074
 20
4.147450110864745
  0
ENDSEC
  0
SECTION
  2
OBJECTS
  0
DICTIONARY
  5
A
330
0
100
AcDbDictionary
280
0
281
1
  3
ACAD_COLOR
350
B
  3
ACAD_GROUP
350
C
  3
ACAD_LAYOUT
350
D
  3
ACAD_MATERIAL
350
E
  3
ACAD_MLEADERSTYLE
350
F
  3
ACAD_MLINESTYLE
350
10
  3
ACAD_PLOTSETTINGS
350
11
  3
ACAD_PLOTSTYLENAME
350
12
  3
ACAD_SCALELIST
350
14
  3
ACAD_TABLESTYLE
350
15
  3
ACAD_VISUALSTYLE
350
16
  3
EZDXF_META
350
2D
  0
DICTIONARY
  5
B
330
A
100
AcDbDictionary
280
0
281
1
  0
DICTIONARY
  5
C
330
A
100
AcDbDictionary
280
0
281
1
  3
*A1
350
2F
  3
*A2
350
31
  3
*A3
350
33
  3
*A4
350
35
  3
*A5
350
37
  3
*A6
350
39
  3
*A7
350
3B
  3
*A8
350
3D
  3
*A9
350
3F
  3
*A10
350
41
  3
*A11
350
43
  3
*A12
350
45
  3
*A13
350
47
  0
DICTIONARY
  5
D
330
A
100
AcDbDictionary
280
0
281
1
  3
Model
350
1A
  3
Layout1
350
1E
  0
DICTIONARY
  5
E
330
A
100
AcDbDictionary
280
0
281
1
  3
ByBlock
350
1F
  3
ByLayer
350
20
  3
Global
350
21
  0
DICTIONARY
  5
F
330
A
100
AcDbDictionary
280
0
281
1
  3
Standard
350
2C
  0
DICTIONARY
  5
10
330
A
100
AcDbDictionary
280
0
281
1
  3
Standard
350
22
  0
DICTIONARY
  5
11
330
A
100
AcDbDictionary
280
0
281
1
  0
ACDBDICTIONARYWDFLT
  5
12
330
A
100
AcDbDictionary
280
0
281
1
  3
Normal
350
13
100
AcDbDictionaryWithDefault
340
13
  0
ACDBPLACEHOLDER
  5
13
330
12
  0
DICTIONARY
  5
14
330
A
100
AcDbDictionary
280
0
281
1
  0
DICTIONARY
  5
15
330
A
100
AcDbDictionary
280
0
281
1
  0
DICTIONARY
  5
16
330
A
100
AcDbDictionary
280
0
281
1
  0
LAYOUT
  5
1A
330
D
100
AcDbPlotSettings
  1

  2
Adobe PDF
  4
A3
  6

 40
7.5
 41
20.0
 42
7.5
 43
20.0
 44
420.0
 45
297.0
 46
0.0
 47
0.0
 48
0.0
 49
0.0
140
0.0
141
0.0
142
1.0
143
1.0
 70
1024
 72
1
 73
0
 74
5
  7

 75
16
 76
0
 77
2
 78
300
147
1.0
148
0.0
149
0.0
100
AcDbLayout
  1
Model
 70
1
 71
0
 10
0.0
 20
0.0
 11
420.0
 21
297.0
 12
0.0
 22
0.0
 32
0.0
 14
1e+20
 24
1e+20
 34
1e+20
 15
-1e+20
 25
-1e+20
 35
-1e+20
146
0.0
 13
0.0
 23
0.0
 33
0.0
 16
1.0
 26
0.0
 36
0.0
 17
0.0
 27
1.0
 37
0.0
 76
1
330
17
  0
LAYOUT
  5
1E
330
D
100
AcDbPlotSettings
  1

  2
Adobe PDF
  4
A3
  6

 40
7.5
 41
20.0
 42
7.5
 43
20.0
 44
420.0
 45
297.0
 46
0.0
 47
0.0
 48
0.0
 49
0.0
140
0.0
141
0.0
142
1.0
143
1.0
 70
0
 72
1
 73
0
 74
5
  7

 75
16
 76
0
 77
2
 78
300
147
1.0
148
0.0
149
0.0
100
AcDbLayout
  1
Layout1
 70
1
 71
1
 10
0.0
 20
0.0
 11
420.0
 21
297.0
 12
0.0
 22
0.0
 32
0.0
 14
1e+20
 24
1e+20
 34
1e+20
 15
-1e+20
 25
-1e+20
 35
-1e+20
146
0.0
 13
0.0
 23
0.0
 33
0.0
 16
1.0
 26
0.0
 36
0.0
 17
0.0
 27
1.0
 37
0.0
 76
1
330
1B
  0
MATERIAL
  5
1F
102
{ACAD_REACTORS
330
E
102
}
330
E
100
AcDbMaterial
  1
ByBlock
  2

 70
0
 40
1.0
 71
1
 41
1.0
 91
-1023410177
 42
1.0
 72
1
  3

 73
1
 74
1
 75
1
 44
0.5
 73
0
 45
1.0
 46
1.0
 77
1
  4

 78
1
 79
1
170
1
 48
1.0
171
1
  6

172
1
173
1
174
1
140
1.0
141
1.0
175
1
  7

176
1
177
1
178
1
143
1.0
179
1
  8

270
1
271
1
272
1
145
1.0
146
1.0
273
1
  9

274
1
275
1
276
1
 42
1.0
 72
1
  3

 73
1
 74
1
 75
1
 94
63
  0
MATERIAL
  5
20
102
{ACAD_REACTORS
330
E
102
}
330
E
100
AcDbMaterial
  1
ByLayer
  2

 70
0
 40
1.0
 71
1
 41
1.0
 91
-1023410177
 42
1.0
 72
1
  3

 73
1
 74
1
 75
1
 44
0.5
 73
0
 45
1.0
 46
1.0
 77
1
  4

 78
1
 79
1
170
1
 48
1.0
171
1
  6

172
1
173
1
174
1
140
1.0
141
1.0
175
1
  7

176
1
177
1
178
1
143
1.0
179
1
  8

270
1
271
1
272
1
145
1.0
146
1.0
273
1
  9

274
1
275
1
276
1
 42
1.0
 72
1
  3

 73
1
 74
1
 75
1
 94
63
  0
MATERIAL
  5
21
102
{ACAD_REACTORS
330
E
102
}
330
E
100
AcDbMaterial
  1
Global
  2

 70
0
 40
1.0
 71
1
 41
1.0
 91
-1023410177
 42
1.0
 72
1
  3

 73
1
 74
1
 75
1
 44
0.5
 73
0
 45
1.0
 46
1.0
 77
1
  4

 78
1
 79
1
170
1
 48
1.0
171
1
  6

172
1
173
1
174
1
140
1.0
141
1.0
175
1
  7

176
1
177
1
178
1
143
1.0
179
1
  8

270
1
271
1
272
1
145
1.0
146
1.0
273
1
  9

274
1
275
1
276
1
 42
1.0
 72
1
  3

 73
1
 74
1
 75
1
 94
63
  0
MLINESTYLE
  5
22
102
{ACAD_REACTORS
330
10
102
}
330
10
100
AcDbMlineStyle
  2
Standard
 70
0
  3

 62
256
 51
90.0
 52
90.0
 71
2
 49
0.5
 62
256
  6
BYLAYER
 49
-0.5
 62
256
  6
BYLAYER
  0
MLEADERSTYLE
  5
2C
102
{ACAD_REACTORS
330
F
102
}
330
F
100
AcDbMLeaderStyle
179
2
170
2
171
1
172
0
 90
2
 40
0.0
 41
0.0
173
1
 91
-1056964608
 92
-2
290
1
 42
2.0
291
1
 43
8.0
  3
Standard
 44
4.0
300

342
29
174
1
175
1
176
0
178
1
 93
-1056964608
 45
4.0
292
0
297
0
 46
4.0
 94
-1056964608
 47
1.0
 49
1.0
140
1.0
294
1
141
0.0
177
0
142
1.0
295
0
296
0
143
3.75
271
0
272
9
273
9
  0
DICTIONARY
  5
2D
330
A
100
AcDbDictionary
281
1
  3
CREATED_BY_EZDXF
350
2E
  3
WRITTEN_BY_EZDXF
350
4B
  0
DICTIONARYVAR
  5
2E
330
2D
100
DictionaryVariables
280
0
  1
1.3.0 @ 2024-05-27T08:36:57.535499+00:00
  0
GROUP
  5
2F
102
{ACAD_REACTORS
330
C
102
}
330
C
100
AcDbGroup
300

 70
1
 71
1
  0
GROUP
  5
31
102
{ACAD_REACTORS
330
C
102
}
330
C
100
AcDbGroup
300

 70
1
 71
1
  0
GROUP
  5
33
102
{ACAD_REACTORS
330
C
102
}
330
C
100
AcDbGroup
300

 70
1
 71
1
  0
GROUP
  5
35
102
{ACAD_REACTORS
330
C
102
}
330
C
100
AcDbGroup
300

 70
1
 71
1
  0
GROUP
  5
37
102
{ACAD_REACTORS
330
C
102
}
330
C
100
AcDbGroup
300

 70
1
 71
1
  0
GROUP
  5
39
102
{ACAD_REACTORS
330
C
102
}
330
C
100
AcDbGroup
300

 70
1
 71
1
  0
GROUP
  5
3B
102
{ACAD_REACTORS
330
C
102
}
330
C
100
AcDbGroup
300

 70
1
 71
1
  0
GROUP
  5
3D
102
{ACAD_REACTORS
330
C
102
}
330
C
100
AcDbGroup
300

 70
1
 71
1
  0
GROUP
  5
3F
102
{ACAD_REACTORS
330
C
102
}
330
C
100
AcDbGroup
300

 70
1
 71
1
  0
GROUP
  5
41
102
{ACAD_REACTORS
330
C
102
}
330
C
100
AcDbGroup
300

 70
1
 71
1
  0
GROUP
  5
43
102
{ACAD_REACTORS
330
C
102
}
330
C
100
AcDbGroup
300

 70
1
 71
1
  0
GROUP
  5
45
102
{ACAD_REACTORS
330
C
102
}
330
C
100
AcDbGroup
300

 70
1
 71
1
  0
GROUP
  5
47
102
{ACAD_REACTORS
330
C
102
}
330
C
100
AcDbGroup
300

 70
1
 71
1
  0
DICTIONARYVAR
  5
4B
330
2D
100
DictionaryVariables
280
0
  1
1.3.0 @ 2024-05-27T08:37:05.865559+00:00
  0
ENDSEC
  0
EOF
